M48
;Layer_Color=9474304
;FILE_FORMAT=2:4
INCH,LZ
;TYPE=PLATED
T1F00S00C0.0197
T2F00S00C0.0236
T3F00S00C0.0276
T4F00S00C0.0280
T5F00S00C0.0315
T6F00S00C0.0354
T7F00S00C0.0394
T8F00S00C0.0551
T9F00S00C0.1654
%
T01
X032773Y049745
X03258Y05074
X03188Y05069
X03183Y051812
X03248Y05159
X033166Y051809
X033951
X033948Y051043
X03473Y05104
X03483Y050406
X035742Y050628
X036063Y05163
X0361Y05255
X03543Y05249
X03503Y05324
X034154Y053868
X03338Y05364
X03253Y05319
X0319Y0528
X033951Y052583
X03476Y051929
X03378Y05019
X020513Y0509
X024714Y059014
X025186
Y059486
X024714
T02
X020714Y034023
X02565Y0333
X02555Y0325
X0257Y035661
X0294Y03565
X029Y03785
X02935Y0402
X0308Y04155
Y04255
X026362Y046291
X0251Y04595
X0236Y0461
X0211Y04455
X034642Y046504
X035409Y04624
X03705Y0441
X03755Y04315
X03865Y0443
X039721Y044138
X040294Y043484
X04145Y043
X0419Y0438
X042965Y043783
X0446Y04365
X04625Y0436
X04675Y04285
Y04
X0452Y03865
X045125Y036701
X0459Y03425
X04085Y0343
X03795Y03635
X0342Y0369
X03155Y03735
X04345Y03835
X04475Y0416
X048405Y039811
X05026Y036976
Y035677
X04825Y0349
X0507Y0603
Y06095
X040472Y057598
X0365Y05765
X0354
X036003Y056551
X0371Y0549
X03803Y05459
X039185Y05315
X040021Y053959
X040528Y05282
X040456Y052074
X040421Y051327
X03712Y047915
X033925Y046941
X033051Y047232
X031669Y047579
X0356Y0539
X033869Y059264
X034344Y059775
X032207Y061899
X029759Y062156
X029217Y061607
X028236Y06034
X02682Y060313
X02685Y059464
Y058846
X02665Y05625
X02665Y055573
X028204Y056018
X028236Y056755
X025589Y057091
X02508Y056582
X02477Y054616
X024413Y052659
X026595Y05303
X02663Y052318
X029039Y052178
X029552Y051735
X029783Y053959
X030756Y05535
X030767Y056065
X027868Y050402
X027789Y048961
X02903Y049085
X02633Y048298
X02715Y0474
X0236Y0479
Y0509
X021793Y052331
Y056306
X023057Y058104
X023838Y061077
Y061734
X026331Y062001
X027186Y063254
X026328Y065308
X02485Y06465
X023996Y065196
X0309Y06395
X033333Y064652
X036095Y067367
X034961Y068861
X0418Y06735
X04325
X046378Y067
X049488Y068819
T03
X030836Y045423
X036229Y045894
X0359Y0417
X0346
X033809Y04245
X0388Y043
X0389Y04105
X039502Y040548
Y035751
X03725Y03515
X03645Y03445
X0335
X04155Y0337
X04445Y03745
X043752Y043791
X0492Y043407
X049461Y041712
X05335Y0397
X0502Y034
X0492Y052869
X04845Y053641
X049566Y055476
X039621Y05518
X030968Y057438
X02685Y05795
X02682Y061115
X025783Y055482
X02616Y053824
X022269Y052881
X029436Y048126
X033566Y066581
Y068153
X04435Y068169
X047264
T04
X026364Y045423
X032806Y040213
X033516Y040194
X0344Y03995
Y03935
Y03875
Y03815
Y0376
X0352
X0358
X03645
X0371
X03775Y03755
Y03805
Y03855
Y03905
Y03955
Y04005
X043726Y035926
X046969Y045577
X047452Y045142
X047698Y050496
X0477Y051106
Y05185
X04845
Y051106
X048448Y050496
X0492
Y051106
X04695
X046948Y050496
X04695Y05185
Y052635
X0477
X04695Y053488
Y054341
Y055194
Y056047
Y0569
Y05765
Y05835
X049606Y062205
X046457Y059449
X045669
X044882
X044094
X043307
X04336Y05835
X044094
X044827
Y05765
X04556
X04625
Y05835
X04556Y05835
Y0569
X04625
X044827
X04156Y056784
Y056017
Y05525
Y0536
Y05275
Y05195
Y0511
X044827Y051108
X044826Y050496
X045559
X04556Y051106
X04625
X046248Y050496
X04625Y053488
Y054341
X04156Y05755
Y05835
X03937Y059449
X038583
X037795
X037008
X03622
X035433
X03603Y049706
X039508Y049101
X040945Y06378
X041732
Y064567
X040945
Y065354
X041732
Y066142
X040945
X043307
X044094
Y065354
X043307
Y064567
X044094
Y06378
X043307
X03622
X035433
Y064567
Y065354
X03622
Y064575
Y066142
X035433
X048819
Y065354
X049606
Y064567
Y06378
X048819
Y064567
Y062992
X049606
T05
X02665Y035963
Y0399
T06
X0476Y0312
X0486
X04635
X04535
X04405
X04305
X04205
X04105
X0397
X0387
X0377
X0367
X035351Y031208
X034351
X0325Y0312
X0315
X0305
X0295
Y0322
X0305
X0276Y03125
X0266
X02245Y0446
Y0456
Y0466
X0315Y0322
X0325
X05075Y0403
X05175
Y0413
X05075
Y0423
X05175
Y0433
X05075
Y0443
X05175
Y0453
X05075
Y0463
X05175
Y0473
X05075
Y0483
X05175
Y0493
X05075
Y0503
X05175
Y0513
X05075
Y0523
X05175
Y0533
X05075
Y0543
X05175
Y0553
X05075
Y0563
X05175
Y0573
X05075
Y0583
X05175
Y0593
X05075
X05175Y06075
Y06175
X0219Y0613
Y0623
Y0603
Y0593
Y0583
Y0573
Y0509
Y0499
Y0489
Y0479
X031156Y06649
X032156
X05175Y065
Y064
Y06275
T07
X052215Y035884
Y037616
T08
X02288Y03592
Y037889
Y04042
Y042389
X02632Y06707
X028289
T09
X02245Y032476
X05185
X02245Y06745
X05185
M30
