%FSLAX24Y24*%
%MOIN*%
G70*
G01*
G75*
G04 Layer_Color=65535*
%ADD10C,0.0079*%
%ADD11C,0.0394*%
%ADD12C,0.0098*%
%ADD13C,0.0236*%
%ADD14C,0.0250*%
%ADD15C,0.0100*%
%ADD16C,0.0010*%
%ADD17C,0.0218*%
%ADD18C,0.0080*%
D10*
X25182Y64650D02*
G03*
X25182Y64650I-332J0D01*
G01*
X23932Y50900D02*
G03*
X23932Y50900I-332J0D01*
G01*
X36427Y67367D02*
G03*
X36427Y67367I-332J0D01*
G01*
X35293Y68861D02*
G03*
X35293Y68861I-332J0D01*
G01*
X42132Y67350D02*
G03*
X42132Y67350I-332J0D01*
G01*
X31232Y63950D02*
G03*
X31232Y63950I-332J0D01*
G01*
X23932Y47900D02*
G03*
X23932Y47900I-332J0D01*
G01*
Y46100D02*
G03*
X23932Y46100I-332J0D01*
G01*
X43296Y43783D02*
G03*
X43296Y43783I-332J0D01*
G01*
X40804Y57598D02*
G03*
X40804Y57598I-332J0D01*
G01*
X29362Y49085D02*
G03*
X29362Y49085I-332J0D01*
G01*
X48737Y39811D02*
G03*
X48737Y39811I-332J0D01*
G01*
X21432Y44550D02*
G03*
X21432Y44550I-332J0D01*
G01*
X32001Y47579D02*
G03*
X32001Y47579I-332J0D01*
G01*
X39517Y53150D02*
G03*
X39517Y53150I-332J0D01*
G01*
X45457Y36701D02*
G03*
X45457Y36701I-332J0D01*
G01*
X44850Y30700D02*
Y31700D01*
X46850D01*
Y30700D02*
Y31700D01*
X44850Y30700D02*
X46850D01*
X21400Y47400D02*
X22400D01*
X21400D02*
Y51400D01*
X22400Y47400D02*
Y51400D01*
X21400D02*
X22400D01*
X47100Y30700D02*
Y31700D01*
X49100D01*
Y30700D02*
Y31700D01*
X47100Y30700D02*
X49100D01*
X39928Y63434D02*
Y67916D01*
X37172Y63454D02*
Y67916D01*
X52250Y39800D02*
Y59800D01*
X50250Y39800D02*
Y59800D01*
Y39800D02*
X52250D01*
X50250Y59800D02*
X52250D01*
X24487Y60234D02*
X25353D01*
X24487Y58266D02*
X25353D01*
X42139Y40484D02*
Y42216D01*
X45840Y40484D02*
Y42216D01*
X42139Y40484D02*
X45840D01*
X42139Y42216D02*
X45840D01*
X32959Y65779D02*
Y65976D01*
X33228D01*
X34141Y65779D02*
Y65976D01*
X33870D02*
X34141D01*
X47756Y63434D02*
Y67916D01*
X45000Y63454D02*
Y67916D01*
X36411Y49348D02*
Y54270D01*
X31490Y49348D02*
Y54270D01*
X36411D01*
X31490Y49348D02*
X36411D01*
X36200Y30700D02*
Y31700D01*
X40200D01*
X36200Y30700D02*
X40200D01*
Y31700D01*
X40550Y30700D02*
Y31700D01*
X44550D01*
X40550Y30700D02*
X44550D01*
Y31700D01*
X21950Y47100D02*
X22950D01*
Y44100D02*
Y47100D01*
X21950Y44100D02*
X22950D01*
X21950D02*
Y47100D01*
X51250Y60250D02*
X52250D01*
X51250D02*
Y63250D01*
X52250D01*
Y60250D02*
Y63250D01*
X33851Y30708D02*
Y31708D01*
X35851D01*
Y30708D02*
Y31708D01*
X33851Y30708D02*
X35851D01*
X29000Y30700D02*
X33000D01*
X29000Y32700D02*
X33000D01*
X29000Y30700D02*
Y32700D01*
X33000Y30700D02*
Y32700D01*
X32656Y65990D02*
Y66990D01*
X30656Y65990D02*
X32656D01*
X30656D02*
Y66990D01*
X32656D01*
X51250Y65500D02*
X52250D01*
Y63500D02*
Y65500D01*
X51250Y63500D02*
X52250D01*
X51250D02*
Y65500D01*
X28100Y30750D02*
Y31750D01*
X26100Y30750D02*
X28100D01*
X26100D02*
Y31750D01*
X28100D01*
X21400Y62800D02*
X22400D01*
X21400Y56800D02*
X22400D01*
X21400D02*
Y62800D01*
X22400Y56800D02*
Y62800D01*
D11*
X21974Y40027D02*
G03*
X21974Y40027I-197J0D01*
G01*
Y35527D02*
G03*
X21974Y35527I-197J0D01*
G01*
X26124Y68173D02*
G03*
X26124Y68173I-197J0D01*
G01*
D12*
X40188Y67836D02*
G03*
X40188Y67836I-49J0D01*
G01*
X25953Y58165D02*
G03*
X25953Y58165I-49J0D01*
G01*
X45968Y42620D02*
G03*
X45968Y42620I-49J0D01*
G01*
X32818Y65303D02*
G03*
X32818Y65303I-49J0D01*
G01*
X48016Y67836D02*
G03*
X48016Y67836I-49J0D01*
G01*
X31362Y48836D02*
G03*
X31362Y48836I-49J0D01*
G01*
D13*
X45564Y41822D02*
G03*
X45564Y41822I-118J0D01*
G01*
X32002Y49742D02*
G03*
X32002Y49742I-118J0D01*
G01*
D14*
X30834Y39094D02*
G03*
X30834Y39094I-114J0D01*
G01*
D15*
X29960Y39680D02*
G03*
X29960Y39680I-20J0D01*
G01*
X28619Y39900D02*
G03*
X24681Y39900I-1969J0D01*
G01*
Y35963D02*
G03*
X28619Y35963I1969J-39D01*
G01*
X46315Y42374D02*
X47693D01*
Y41587D02*
Y42374D01*
X46315Y41587D02*
X47693D01*
X46315D02*
Y42374D01*
X46394D01*
X23216Y44706D02*
X24594D01*
X23216D02*
Y45494D01*
X24594D01*
Y44706D02*
Y45494D01*
X24515Y44706D02*
X24594D01*
X33866Y31956D02*
X35244D01*
X33866D02*
Y32744D01*
X35244D01*
Y31956D02*
Y32744D01*
X35165Y31956D02*
X35244D01*
X44717Y51706D02*
Y53084D01*
X45504D01*
Y51706D02*
Y53084D01*
X44717Y51706D02*
X45504D01*
X44717D02*
Y51785D01*
X45504Y54866D02*
Y56244D01*
X44717Y54866D02*
X45504D01*
X44717D02*
Y56244D01*
X45504D01*
Y56165D02*
Y56244D01*
X22923Y63517D02*
X24301D01*
X22923D02*
Y64304D01*
X24301D01*
Y63517D02*
Y64304D01*
X24222Y63517D02*
X24301D01*
X22923Y62567D02*
X24301D01*
X22923D02*
Y63354D01*
X24301D01*
Y62567D02*
Y63354D01*
X24222Y62567D02*
X24301D01*
X39356Y32006D02*
Y33384D01*
X40144D01*
Y32006D02*
Y33384D01*
X39356Y32006D02*
X40144D01*
X39356D02*
Y32085D01*
X38306Y32006D02*
Y33384D01*
X39094D01*
Y32006D02*
Y33384D01*
X38306Y32006D02*
X39094D01*
X38306D02*
Y32085D01*
X21108Y39397D02*
X21147Y39357D01*
X24100D01*
Y39279D02*
Y39357D01*
X21108Y39279D02*
X24100D01*
X21108Y39200D02*
Y43373D01*
X24100D01*
Y39200D02*
Y43373D01*
X21108Y39200D02*
X24100D01*
X21108Y34897D02*
X21147Y34857D01*
X24100D01*
Y34779D02*
Y34857D01*
X21108Y34779D02*
X24100D01*
X21108Y34700D02*
Y38873D01*
X24100D01*
Y34700D02*
Y38873D01*
X21108Y34700D02*
X24100D01*
X22763Y56425D02*
X24337D01*
X21581Y55244D02*
X22763Y56425D01*
X21581Y51700D02*
Y55244D01*
Y51700D02*
X25519D01*
Y55244D01*
X24337Y56425D02*
X25519Y55244D01*
X30320Y36280D02*
X32800D01*
X30320D02*
Y39520D01*
X32800Y36280D02*
Y39510D01*
X32790Y39520D02*
X32800Y39510D01*
X30320Y39520D02*
X32790D01*
X42176Y50407D02*
Y57493D01*
X44412D01*
Y50407D02*
Y57493D01*
X42176Y50407D02*
X44412D01*
X25257Y68803D02*
X25297Y68842D01*
X25257Y65850D02*
Y68803D01*
X25179Y65850D02*
X25257D01*
X25179D02*
Y68842D01*
X25100D02*
X29273D01*
Y65850D02*
Y68842D01*
X25100Y65850D02*
X29273D01*
X25100D02*
Y68842D01*
X28619Y35963D02*
Y39900D01*
X24681Y35963D02*
Y39900D01*
X46315Y41303D02*
X47693D01*
Y40516D02*
Y41303D01*
X46315Y40516D02*
X47693D01*
X46315D02*
Y41303D01*
X46394D01*
X21050Y62550D02*
X20450D01*
Y62250D01*
X20550Y62150D01*
X20650D01*
X20750Y62250D01*
Y62550D01*
Y62250D01*
X20850Y62150D01*
X20950D01*
X21050Y62250D01*
Y62550D01*
X20450Y61950D02*
Y61750D01*
Y61850D01*
X21050D01*
X20950Y61950D01*
X45850Y51900D02*
X45750Y51800D01*
Y51600D01*
X45850Y51500D01*
X46250D01*
X46350Y51600D01*
Y51800D01*
X46250Y51900D01*
X46350Y52100D02*
Y52300D01*
Y52200D01*
X45750D01*
X45850Y52100D01*
Y52600D02*
X45750Y52700D01*
Y52900D01*
X45850Y53000D01*
X45950D01*
X46050Y52900D01*
Y52800D01*
Y52900D01*
X46150Y53000D01*
X46250D01*
X46350Y52900D01*
Y52700D01*
X46250Y52600D01*
X45861Y55250D02*
X45761Y55150D01*
Y54950D01*
X45861Y54850D01*
X46261D01*
X46360Y54950D01*
Y55150D01*
X46261Y55250D01*
X46360Y55450D02*
Y55650D01*
Y55550D01*
X45761D01*
X45861Y55450D01*
X46360Y56250D02*
X45761D01*
X46061Y55950D01*
Y56350D01*
X24900Y31600D02*
Y31000D01*
X25200D01*
X25300Y31100D01*
Y31500D01*
X25200Y31600D01*
X24900D01*
X25500Y31000D02*
X25700D01*
X25600D01*
Y31600D01*
X25500Y31500D01*
X52487Y64245D02*
Y63646D01*
X52787D01*
X52887Y63746D01*
Y64146D01*
X52787Y64245D01*
X52487D01*
X53487Y63646D02*
X53087D01*
X53487Y64046D01*
Y64146D01*
X53387Y64245D01*
X53187D01*
X53087Y64146D01*
X47500Y43400D02*
Y42800D01*
X47800D01*
X47900Y42900D01*
Y43300D01*
X47800Y43400D01*
X47500D01*
X48100Y43300D02*
X48200Y43400D01*
X48400D01*
X48500Y43300D01*
Y43200D01*
X48400Y43100D01*
X48300D01*
X48400D01*
X48500Y43000D01*
Y42900D01*
X48400Y42800D01*
X48200D01*
X48100Y42900D01*
X47221Y39320D02*
X47821D01*
Y39620D01*
X47721Y39720D01*
X47321D01*
X47221Y39620D01*
Y39320D01*
X47821Y40220D02*
X47221D01*
X47521Y39920D01*
Y40320D01*
X20557Y65869D02*
Y65269D01*
Y65569D01*
X20957D01*
Y65869D01*
Y65269D01*
X21157D02*
X21357D01*
X21257D01*
Y65869D01*
X21157Y65769D01*
X48626Y67595D02*
Y66995D01*
Y67295D01*
X49026D01*
Y67595D01*
Y66995D01*
X49626D02*
X49226D01*
X49626Y67395D01*
Y67495D01*
X49526Y67595D01*
X49326D01*
X49226Y67495D01*
X24078Y34151D02*
Y33552D01*
Y33851D01*
X24477D01*
Y34151D01*
Y33552D01*
X24677Y34051D02*
X24777Y34151D01*
X24977D01*
X25077Y34051D01*
Y33951D01*
X24977Y33851D01*
X24877D01*
X24977D01*
X25077Y33752D01*
Y33652D01*
X24977Y33552D01*
X24777D01*
X24677Y33652D01*
X48885Y33403D02*
Y32804D01*
Y33103D01*
X49285D01*
Y33403D01*
Y32804D01*
X49785D02*
Y33403D01*
X49485Y33103D01*
X49885D01*
X31050Y67818D02*
Y67218D01*
X31450D01*
X32050Y67718D02*
X31950Y67818D01*
X31750D01*
X31650Y67718D01*
Y67618D01*
X31750Y67518D01*
X31950D01*
X32050Y67418D01*
Y67318D01*
X31950Y67218D01*
X31750D01*
X31650Y67318D01*
X32250Y67218D02*
X32450D01*
X32350D01*
Y67818D01*
X32250Y67718D01*
X47619Y31986D02*
Y32586D01*
X47919D01*
X48019Y32486D01*
Y32286D01*
X47919Y32186D01*
X47619D01*
X48519Y31986D02*
Y32586D01*
X48219Y32286D01*
X48619D01*
X45100Y31950D02*
Y32550D01*
X45400D01*
X45500Y32450D01*
Y32250D01*
X45400Y32150D01*
X45100D01*
X46100Y32550D02*
X45700D01*
Y32250D01*
X45900Y32350D01*
X46000D01*
X46100Y32250D01*
Y32050D01*
X46000Y31950D01*
X45800D01*
X45700Y32050D01*
X30516Y33043D02*
Y33642D01*
X30816D01*
X30916Y33542D01*
Y33342D01*
X30816Y33242D01*
X30516D01*
X31116Y33642D02*
X31515D01*
Y33542D01*
X31116Y33142D01*
Y33043D01*
X36100Y31950D02*
X35500D01*
Y32250D01*
X35600Y32350D01*
X35800D01*
X35900Y32250D01*
Y31950D01*
X35600Y32550D02*
X35500Y32650D01*
Y32850D01*
X35600Y32950D01*
X35700D01*
X35800Y32850D01*
X35900Y32950D01*
X36000D01*
X36100Y32850D01*
Y32650D01*
X36000Y32550D01*
X35900D01*
X35800Y32650D01*
X35700Y32550D01*
X35600D01*
X35800Y32650D02*
Y32850D01*
X23294Y43880D02*
Y44479D01*
X23594D01*
X23694Y44379D01*
Y44179D01*
X23594Y44079D01*
X23294D01*
X23494D02*
X23694Y43880D01*
X23894D02*
X24094D01*
X23994D01*
Y44479D01*
X23894Y44379D01*
X53250Y61600D02*
X52650D01*
Y61900D01*
X52750Y62000D01*
X52950D01*
X53050Y61900D01*
Y61600D01*
Y61800D02*
X53250Y62000D01*
Y62200D02*
Y62400D01*
Y62300D01*
X52650D01*
X52750Y62200D01*
X53250Y63100D02*
Y62700D01*
X52850Y63100D01*
X52750D01*
X52650Y63000D01*
Y62800D01*
X52750Y62700D01*
X21203Y63017D02*
Y63616D01*
X21503D01*
X21603Y63516D01*
Y63316D01*
X21503Y63216D01*
X21203D01*
X21403D02*
X21603Y63017D01*
X21803D02*
X22003D01*
X21903D01*
Y63616D01*
X21803Y63516D01*
X22303Y63616D02*
X22703D01*
Y63516D01*
X22303Y63116D01*
Y63017D01*
X21203Y63822D02*
Y64422D01*
X21503D01*
X21603Y64322D01*
Y64122D01*
X21503Y64022D01*
X21203D01*
X21403D02*
X21603Y63822D01*
X21803D02*
X22003D01*
X21903D01*
Y64422D01*
X21803Y64322D01*
X22303D02*
X22403Y64422D01*
X22603D01*
X22703Y64322D01*
Y64222D01*
X22603Y64122D01*
X22703Y64022D01*
Y63922D01*
X22603Y63822D01*
X22403D01*
X22303Y63922D01*
Y64022D01*
X22403Y64122D01*
X22303Y64222D01*
Y64322D01*
X22403Y64122D02*
X22603D01*
X40000Y33650D02*
X39400D01*
Y33950D01*
X39500Y34050D01*
X39700D01*
X39800Y33950D01*
Y33650D01*
Y33850D02*
X40000Y34050D01*
Y34650D02*
Y34250D01*
X39600Y34650D01*
X39500D01*
X39400Y34550D01*
Y34350D01*
X39500Y34250D01*
X40000Y34850D02*
Y35050D01*
Y34950D01*
X39400D01*
X39500Y34850D01*
X39000Y33650D02*
X38400D01*
Y33950D01*
X38500Y34050D01*
X38700D01*
X38800Y33950D01*
Y33650D01*
Y33850D02*
X39000Y34050D01*
Y34650D02*
Y34250D01*
X38600Y34650D01*
X38500D01*
X38400Y34550D01*
Y34350D01*
X38500Y34250D01*
X39000Y35249D02*
Y34850D01*
X38600Y35249D01*
X38500D01*
X38400Y35150D01*
Y34950D01*
X38500Y34850D01*
X33750Y33050D02*
Y33650D01*
X34050D01*
X34150Y33550D01*
Y33350D01*
X34050Y33250D01*
X33750D01*
X33950D02*
X34150Y33050D01*
X34750D02*
X34350D01*
X34750Y33450D01*
Y33550D01*
X34650Y33650D01*
X34450D01*
X34350Y33550D01*
X34950D02*
X35050Y33650D01*
X35250D01*
X35349Y33550D01*
Y33450D01*
X35250Y33350D01*
X35150D01*
X35250D01*
X35349Y33250D01*
Y33150D01*
X35250Y33050D01*
X35050D01*
X34950Y33150D01*
X23550Y47250D02*
X23450Y47350D01*
X23250D01*
X23150Y47250D01*
Y47150D01*
X23250Y47050D01*
X23450D01*
X23550Y46950D01*
Y46850D01*
X23450Y46750D01*
X23250D01*
X23150Y46850D01*
X23750Y46750D02*
X23950D01*
X23850D01*
Y47350D01*
X23750Y47250D01*
X20981Y50079D02*
X21081Y50179D01*
Y50379D01*
X20981Y50479D01*
X20881D01*
X20781Y50379D01*
Y50179D01*
X20681Y50079D01*
X20581D01*
X20481Y50179D01*
Y50379D01*
X20581Y50479D01*
X20481Y49479D02*
Y49879D01*
X20881Y49479D01*
X20981D01*
X21081Y49579D01*
Y49779D01*
X20981Y49879D01*
X43600Y32650D02*
X43500Y32750D01*
X43300D01*
X43200Y32650D01*
Y32550D01*
X43300Y32450D01*
X43500D01*
X43600Y32350D01*
Y32250D01*
X43500Y32150D01*
X43300D01*
X43200Y32250D01*
X43800Y32650D02*
X43900Y32750D01*
X44100D01*
X44200Y32650D01*
Y32550D01*
X44100Y32450D01*
X44000D01*
X44100D01*
X44200Y32350D01*
Y32250D01*
X44100Y32150D01*
X43900D01*
X43800Y32250D01*
X40148Y55591D02*
Y55990D01*
Y55790D01*
X40748D01*
Y56190D02*
X40148D01*
Y56490D01*
X40248Y56590D01*
X40448D01*
X40548Y56490D01*
Y56190D01*
X40748Y56790D02*
Y56990D01*
Y56890D01*
X40148D01*
X40248Y56790D01*
X28518Y47600D02*
X28918D01*
X28718D01*
Y47000D01*
X29118D02*
Y47600D01*
X29418D01*
X29518Y47500D01*
Y47300D01*
X29418Y47200D01*
X29118D01*
X30118Y47000D02*
X29718D01*
X30118Y47400D01*
Y47500D01*
X30018Y47600D01*
X29818D01*
X29718Y47500D01*
X47450Y39000D02*
X47850D01*
X47650D01*
Y38400D01*
X48050D02*
Y39000D01*
X48350D01*
X48450Y38900D01*
Y38700D01*
X48350Y38600D01*
X48050D01*
X48650Y38900D02*
X48750Y39000D01*
X48950D01*
X49049Y38900D01*
Y38800D01*
X48950Y38700D01*
X48850D01*
X48950D01*
X49049Y38600D01*
Y38500D01*
X48950Y38400D01*
X48750D01*
X48650Y38500D01*
X20800Y45200D02*
Y45600D01*
Y45400D01*
X21400D01*
Y45800D02*
X20800D01*
Y46100D01*
X20900Y46200D01*
X21100D01*
X21200Y46100D01*
Y45800D01*
X21400Y46700D02*
X20800D01*
X21100Y46400D01*
Y46799D01*
X33905Y67623D02*
X34305D01*
X34105D01*
Y67023D01*
X34505D02*
Y67623D01*
X34805D01*
X34905Y67523D01*
Y67323D01*
X34805Y67223D01*
X34505D01*
X35505Y67623D02*
X35105D01*
Y67323D01*
X35305Y67423D01*
X35405D01*
X35505Y67323D01*
Y67123D01*
X35405Y67023D01*
X35205D01*
X35105Y67123D01*
X41000Y68600D02*
X41400D01*
X41200D01*
Y68000D01*
X41600D02*
Y68600D01*
X41900D01*
X42000Y68500D01*
Y68300D01*
X41900Y68200D01*
X41600D01*
X42599Y68600D02*
X42400Y68500D01*
X42200Y68300D01*
Y68100D01*
X42300Y68000D01*
X42500D01*
X42599Y68100D01*
Y68200D01*
X42500Y68300D01*
X42200D01*
X31551Y62973D02*
Y63373D01*
Y63173D01*
X32151D01*
Y63573D02*
X31551D01*
Y63873D01*
X31651Y63973D01*
X31851D01*
X31951Y63873D01*
Y63573D01*
X31551Y64173D02*
Y64573D01*
X31651D01*
X32051Y64173D01*
X32151D01*
X35551Y69064D02*
X35951D01*
X35751D01*
Y68465D01*
X36151D02*
Y69064D01*
X36451D01*
X36551Y68964D01*
Y68764D01*
X36451Y68664D01*
X36151D01*
X36751Y68964D02*
X36851Y69064D01*
X37051D01*
X37151Y68964D01*
Y68864D01*
X37051Y68764D01*
X37151Y68664D01*
Y68565D01*
X37051Y68465D01*
X36851D01*
X36751Y68565D01*
Y68664D01*
X36851Y68764D01*
X36751Y68864D01*
Y68964D01*
X36851Y68764D02*
X37051D01*
X30671Y46891D02*
X31071D01*
X30871D01*
Y46291D01*
X31271D02*
Y46891D01*
X31571D01*
X31671Y46791D01*
Y46591D01*
X31571Y46491D01*
X31271D01*
X31871Y46391D02*
X31971Y46291D01*
X32171D01*
X32271Y46391D01*
Y46791D01*
X32171Y46891D01*
X31971D01*
X31871Y46791D01*
Y46691D01*
X31971Y46591D01*
X32271D01*
X24296Y47699D02*
X24696D01*
X24496D01*
Y47099D01*
X24896D02*
Y47699D01*
X25196D01*
X25296Y47599D01*
Y47399D01*
X25196Y47299D01*
X24896D01*
X25496Y47099D02*
X25696D01*
X25596D01*
Y47699D01*
X25496Y47599D01*
X25996D02*
X26095Y47699D01*
X26295D01*
X26395Y47599D01*
Y47199D01*
X26295Y47099D01*
X26095D01*
X25996Y47199D01*
Y47599D01*
X38562Y53648D02*
Y54048D01*
Y53848D01*
X39161D01*
Y54247D02*
X38562D01*
Y54547D01*
X38662Y54647D01*
X38862D01*
X38961Y54547D01*
Y54247D01*
X39161Y54847D02*
Y55047D01*
Y54947D01*
X38562D01*
X38662Y54847D01*
X39161Y55347D02*
Y55547D01*
Y55447D01*
X38562D01*
X38662Y55347D01*
X24658Y61910D02*
Y62310D01*
Y62110D01*
X25258D01*
Y62510D02*
X24658D01*
Y62810D01*
X24758Y62910D01*
X24958D01*
X25058Y62810D01*
Y62510D01*
X25258Y63109D02*
Y63309D01*
Y63209D01*
X24658D01*
X24758Y63109D01*
X25258Y64009D02*
Y63609D01*
X24858Y64009D01*
X24758D01*
X24658Y63909D01*
Y63709D01*
X24758Y63609D01*
X24150Y51150D02*
X24550D01*
X24350D01*
Y50550D01*
X24750D02*
Y51150D01*
X25050D01*
X25150Y51050D01*
Y50850D01*
X25050Y50750D01*
X24750D01*
X25350Y50550D02*
X25550D01*
X25450D01*
Y51150D01*
X25350Y51050D01*
X25849D02*
X25949Y51150D01*
X26149D01*
X26249Y51050D01*
Y50950D01*
X26149Y50850D01*
X26049D01*
X26149D01*
X26249Y50750D01*
Y50650D01*
X26149Y50550D01*
X25949D01*
X25849Y50650D01*
X22750Y49200D02*
X23150D01*
X22950D01*
Y48600D01*
X23350D02*
Y49200D01*
X23650D01*
X23750Y49100D01*
Y48900D01*
X23650Y48800D01*
X23350D01*
X23950Y48600D02*
X24150D01*
X24050D01*
Y49200D01*
X23950Y49100D01*
X24749Y48600D02*
Y49200D01*
X24449Y48900D01*
X24849D01*
X42015Y45033D02*
X42414D01*
X42214D01*
Y44433D01*
X42614D02*
Y45033D01*
X42914D01*
X43014Y44933D01*
Y44733D01*
X42914Y44633D01*
X42614D01*
X43214Y44433D02*
X43414D01*
X43314D01*
Y45033D01*
X43214Y44933D01*
X44114Y45033D02*
X43714D01*
Y44733D01*
X43914Y44833D01*
X44014D01*
X44114Y44733D01*
Y44533D01*
X44014Y44433D01*
X43814D01*
X43714Y44533D01*
X45900Y36900D02*
X46300D01*
X46100D01*
Y36300D01*
X46500D02*
Y36900D01*
X46800D01*
X46900Y36800D01*
Y36600D01*
X46800Y36500D01*
X46500D01*
X47100Y36300D02*
X47300D01*
X47200D01*
Y36900D01*
X47100Y36800D01*
X47999Y36900D02*
X47799Y36800D01*
X47599Y36600D01*
Y36400D01*
X47699Y36300D01*
X47899D01*
X47999Y36400D01*
Y36500D01*
X47899Y36600D01*
X47599D01*
X36495Y32651D02*
Y32151D01*
X36595Y32051D01*
X36795D01*
X36895Y32151D01*
Y32651D01*
X37495D02*
X37295Y32551D01*
X37095Y32351D01*
Y32151D01*
X37195Y32051D01*
X37395D01*
X37495Y32151D01*
Y32251D01*
X37395Y32351D01*
X37095D01*
X26150Y42850D02*
X26050Y42950D01*
X25850D01*
X25750Y42850D01*
Y42450D01*
X25850Y42350D01*
X26050D01*
X26150Y42450D01*
X26350Y42350D02*
X26550D01*
X26450D01*
Y42950D01*
X26350Y42850D01*
X27250Y42950D02*
X26850D01*
Y42650D01*
X27050Y42750D01*
X27150D01*
X27250Y42650D01*
Y42450D01*
X27150Y42350D01*
X26950D01*
X26850Y42450D01*
X30250Y48700D02*
Y48200D01*
X30350Y48100D01*
X30550D01*
X30650Y48200D01*
Y48700D01*
X30850Y48100D02*
X31050D01*
X30950D01*
Y48700D01*
X30850Y48600D01*
X24400Y42600D02*
Y43200D01*
X24700D01*
X24800Y43100D01*
Y42900D01*
X24700Y42800D01*
X24400D01*
X25000Y42600D02*
X25200D01*
X25100D01*
Y43200D01*
X25000Y43100D01*
X20300Y37350D02*
X20900D01*
Y37050D01*
X20800Y36950D01*
X20600D01*
X20500Y37050D01*
Y37350D01*
X20300Y36350D02*
Y36750D01*
X20700Y36350D01*
X20800D01*
X20900Y36450D01*
Y36650D01*
X20800Y36750D01*
X29600Y67600D02*
Y68200D01*
X29900D01*
X30000Y68100D01*
Y67900D01*
X29900Y67800D01*
X29600D01*
X30200Y68100D02*
X30300Y68200D01*
X30500D01*
X30600Y68100D01*
Y68000D01*
X30500Y67900D01*
X30400D01*
X30500D01*
X30600Y67800D01*
Y67700D01*
X30500Y67600D01*
X30300D01*
X30200Y67700D01*
X38100Y68900D02*
Y68400D01*
X38200Y68300D01*
X38400D01*
X38500Y68400D01*
Y68900D01*
X38700Y68800D02*
X38800Y68900D01*
X39000D01*
X39100Y68800D01*
Y68700D01*
X39000Y68600D01*
X38900D01*
X39000D01*
X39100Y68500D01*
Y68400D01*
X39000Y68300D01*
X38800D01*
X38700Y68400D01*
X45928Y68836D02*
Y68336D01*
X46028Y68236D01*
X46228D01*
X46328Y68336D01*
Y68836D01*
X46828Y68236D02*
Y68836D01*
X46528Y68536D01*
X46928D01*
X35280Y41120D02*
Y41520D01*
X35180Y41620D01*
X34980D01*
X34880Y41520D01*
Y41120D01*
X34980Y41020D01*
X35180D01*
X35080Y41220D02*
X35280Y41020D01*
X35180D02*
X35280Y41120D01*
X35480Y41020D02*
X35680D01*
X35580D01*
Y41620D01*
X35480Y41520D01*
X42225Y58445D02*
Y58345D01*
X42425Y58145D01*
X42625Y58345D01*
Y58445D01*
X42425Y58145D02*
Y57845D01*
X42825D02*
X43025D01*
X42925D01*
Y58445D01*
X42825Y58345D01*
X31100Y40500D02*
Y40000D01*
X31200Y39900D01*
X31400D01*
X31500Y40000D01*
Y40500D01*
X32100Y39900D02*
X31700D01*
X32100Y40300D01*
Y40400D01*
X32000Y40500D01*
X31800D01*
X31700Y40400D01*
X31800Y65100D02*
Y65500D01*
X31700Y65600D01*
X31500D01*
X31400Y65500D01*
Y65100D01*
X31500Y65000D01*
X31700D01*
X31600Y65200D02*
X31800Y65000D01*
X31700D02*
X31800Y65100D01*
X32400Y65000D02*
X32000D01*
X32400Y65400D01*
Y65500D01*
X32300Y65600D01*
X32100D01*
X32000Y65500D01*
X40850Y41550D02*
Y41050D01*
X40950Y40950D01*
X41150D01*
X41250Y41050D01*
Y41550D01*
X41450D02*
X41850D01*
Y41450D01*
X41450Y41050D01*
Y40950D01*
X49750Y38400D02*
X49550D01*
X49650D01*
Y37900D01*
X49550Y37800D01*
X49450D01*
X49350Y37900D01*
X49950Y37800D02*
X50150D01*
X50050D01*
Y38400D01*
X49950Y38300D01*
X24150Y57950D02*
Y57450D01*
X24250Y57350D01*
X24450D01*
X24550Y57450D01*
Y57950D01*
X25150D02*
X24750D01*
Y57650D01*
X24950Y57750D01*
X25050D01*
X25150Y57650D01*
Y57450D01*
X25050Y57350D01*
X24850D01*
X24750Y57450D01*
X21050Y54250D02*
X21150Y54350D01*
Y54550D01*
X21050Y54650D01*
X20650D01*
X20550Y54550D01*
Y54350D01*
X20650Y54250D01*
X20550Y53650D02*
Y54050D01*
X20950Y53650D01*
X21050D01*
X21150Y53750D01*
Y53950D01*
X21050Y54050D01*
X20550Y53150D02*
X21150D01*
X20850Y53450D01*
Y53051D01*
X53300Y56000D02*
X52700D01*
Y56300D01*
X52800Y56400D01*
X53000D01*
X53100Y56300D01*
Y56000D01*
X52700Y57000D02*
X52800Y56800D01*
X53000Y56600D01*
X53200D01*
X53300Y56700D01*
Y56900D01*
X53200Y57000D01*
X53100D01*
X53000Y56900D01*
Y56600D01*
X52497Y65305D02*
Y64706D01*
Y64905D01*
X52897Y65305D01*
X52597Y65005D01*
X52897Y64706D01*
X27435Y32560D02*
Y31961D01*
Y32161D01*
X27835Y32560D01*
X27535Y32261D01*
X27835Y31961D01*
X52810Y44256D02*
X53409D01*
X53110D01*
Y44656D01*
X52810D01*
X53409D01*
X52810Y45256D02*
Y44856D01*
X53409D01*
Y45256D01*
X53110Y44856D02*
Y45056D01*
X52910Y45856D02*
X52810Y45756D01*
Y45556D01*
X52910Y45456D01*
X53309D01*
X53409Y45556D01*
Y45756D01*
X53309Y45856D01*
X52810Y46056D02*
X53409D01*
X53110D01*
Y46456D01*
X52810D01*
X53409D01*
X52810Y46955D02*
Y46755D01*
X52910Y46656D01*
X53309D01*
X53409Y46755D01*
Y46955D01*
X53309Y47055D01*
X52910D01*
X52810Y46955D01*
Y48255D02*
Y47855D01*
X53409D01*
Y48255D01*
X53110Y47855D02*
Y48055D01*
X53409Y48455D02*
X52810D01*
X53409Y48855D01*
X52810D01*
X52910Y50054D02*
X52810Y49954D01*
Y49755D01*
X52910Y49655D01*
X53309D01*
X53409Y49755D01*
Y49954D01*
X53309Y50054D01*
X52810Y50554D02*
Y50354D01*
X52910Y50254D01*
X53309D01*
X53409Y50354D01*
Y50554D01*
X53309Y50654D01*
X52910D01*
X52810Y50554D01*
Y50854D02*
X53409D01*
Y51254D01*
X52810Y51754D02*
Y51554D01*
X52910Y51454D01*
X53309D01*
X53409Y51554D01*
Y51754D01*
X53309Y51854D01*
X52910D01*
X52810Y51754D01*
X53409Y52054D02*
X52810D01*
X53010Y52254D01*
X52810Y52454D01*
X53409D01*
X52810Y52654D02*
X53409D01*
Y52953D01*
X53309Y53053D01*
X53210D01*
X53110Y52953D01*
Y52654D01*
Y52953D01*
X53010Y53053D01*
X52910D01*
X52810Y52953D01*
Y52654D01*
Y53253D02*
Y53453D01*
Y53353D01*
X53409D01*
Y53253D01*
Y53453D01*
Y53753D02*
X53010D01*
X52810Y53953D01*
X53010Y54153D01*
X53409D01*
X53110D01*
Y53753D01*
X48050Y41250D02*
Y40650D01*
Y40850D01*
X48450Y41250D01*
X48150Y40950D01*
X48450Y40650D01*
X48050Y42300D02*
Y41700D01*
Y41900D01*
X48450Y42300D01*
X48150Y42000D01*
X48450Y41700D01*
D16*
X36659Y63813D02*
X36729D01*
X36659Y63803D02*
X36729D01*
X36659Y63793D02*
X36729D01*
X36659Y63783D02*
X36729D01*
X36659Y63773D02*
X36729D01*
X36659Y63763D02*
X36729D01*
X36659Y63753D02*
X36729D01*
X36659Y63743D02*
X36729D01*
X36659Y63733D02*
X36729D01*
X36659Y63723D02*
X36729D01*
X36659Y63713D02*
X36729D01*
X36659Y63703D02*
X36729D01*
X36659Y63693D02*
X36729D01*
X36659Y63683D02*
X36729D01*
X36659Y63673D02*
X36729D01*
X36659Y63663D02*
X36729D01*
X36659Y63653D02*
X36729D01*
X36659Y63643D02*
X36729D01*
X36659Y63633D02*
X36729D01*
X36659Y63623D02*
X36729D01*
X36659Y63613D02*
X36729D01*
X36659Y63603D02*
X36729D01*
X36659Y63593D02*
X36729D01*
X36659Y63583D02*
X36729D01*
X36659Y63573D02*
X36729D01*
X36659Y63563D02*
X36729D01*
X36659Y63553D02*
X36729D01*
X36659Y63543D02*
X36729D01*
X36659Y63533D02*
X36729D01*
X36659Y63523D02*
X36729D01*
X36659Y63513D02*
X36729D01*
X36659Y63503D02*
X36729D01*
X36659Y63493D02*
X36729D01*
X36659Y63483D02*
X36729D01*
X36659Y63473D02*
X36729D01*
X36659Y63463D02*
X36729D01*
X36659Y63453D02*
X36729D01*
X36659Y63443D02*
X36729D01*
X36659Y63433D02*
X36729D01*
X36659Y63423D02*
X36729D01*
X36659Y63413D02*
X36729D01*
X36659Y63403D02*
X36729D01*
X36659Y63393D02*
X36729D01*
X36659Y63383D02*
X36729D01*
X36659Y63373D02*
X36729D01*
X36659Y63363D02*
X36729D01*
X36659Y63353D02*
X36729D01*
X36659Y63343D02*
X36729D01*
X36659Y63333D02*
X36729D01*
X36659Y63323D02*
X36729D01*
X36659Y63313D02*
X36729D01*
X36659Y63303D02*
X36729D01*
X36659Y63293D02*
X36729D01*
X36659Y63283D02*
X36729D01*
X36659Y63273D02*
X36729D01*
X36659Y63263D02*
X36729D01*
X36659Y63253D02*
X36729D01*
X36659Y63243D02*
X36729D01*
X36659Y63233D02*
X36729D01*
X36659Y63223D02*
X36729D01*
X36659Y63213D02*
X36729D01*
X36659Y63203D02*
X36729D01*
X36659Y63193D02*
X36729D01*
X36659Y63183D02*
X36729D01*
X36659Y63173D02*
X36729D01*
X36659Y63163D02*
X36729D01*
X36659Y63153D02*
X36729D01*
X36659Y63143D02*
X36729D01*
X36659Y63133D02*
X36729D01*
X36659Y63123D02*
X36729D01*
X36659Y63113D02*
X36729D01*
X36659Y63103D02*
X36729D01*
X36659Y63093D02*
X36729D01*
X36659Y63083D02*
X36729D01*
X36659Y63073D02*
X36729D01*
X36659Y63063D02*
X36729D01*
X36659Y63053D02*
X36729D01*
X36659Y63043D02*
X36729D01*
X36659Y63033D02*
X36729D01*
X36659Y63023D02*
X36729D01*
X36659Y63013D02*
X36729D01*
X36659Y63003D02*
X36729D01*
X36659Y62993D02*
X36729D01*
X36659Y62983D02*
X36729D01*
X36659Y62973D02*
X36729D01*
X36659Y62963D02*
X36729D01*
X36659Y62953D02*
X36729D01*
X36659Y62943D02*
X36729D01*
X36659Y62933D02*
X36729D01*
X36659Y62923D02*
X36729D01*
X36659Y62913D02*
X36729D01*
X36659Y62903D02*
X36729D01*
X36659Y62893D02*
X36729D01*
X36659Y62883D02*
X36729D01*
X36659Y62873D02*
X36729D01*
X36659Y62863D02*
X36729D01*
X36659Y62853D02*
X36729D01*
X36659Y62843D02*
X36729D01*
X36659Y62833D02*
X36729D01*
X36659Y62823D02*
X36729D01*
X36659Y62813D02*
X36729D01*
X36659Y62803D02*
X36729D01*
X36659Y62793D02*
X36729D01*
X36659Y62783D02*
X36729D01*
X36659Y62773D02*
X36729D01*
X36659Y62763D02*
X36729D01*
X36659Y62753D02*
X36729D01*
X34849Y62743D02*
X36659D01*
X36719D02*
X47589D01*
X34849Y62733D02*
X36659D01*
X36719D02*
X47589D01*
X34849Y62723D02*
X36659D01*
X36719D02*
X47589D01*
X34849Y62713D02*
X36659D01*
X36719D02*
X47589D01*
X34849Y62703D02*
X36659D01*
X36719D02*
X47589D01*
X34849Y62693D02*
X36659D01*
X36719D02*
X47589D01*
X34849Y62683D02*
X36659D01*
X36719D02*
X47589D01*
X34849Y62673D02*
X36659D01*
X36719D02*
X47589D01*
X34849Y62663D02*
X36659D01*
X36719D02*
X47589D01*
X34849Y62653D02*
X36659D01*
X36719D02*
X47589D01*
X34849Y62643D02*
X36659D01*
X36719D02*
X47589D01*
X34849Y62633D02*
X36659D01*
X36719D02*
X47589D01*
X34849Y62623D02*
X36659D01*
X36719D02*
X47589D01*
X34849Y62613D02*
X36659D01*
X36719D02*
X47589D01*
X34849Y62603D02*
X36659D01*
X36719D02*
X47589D01*
X34849Y62593D02*
X36659D01*
X36719D02*
X47589D01*
X34849Y62583D02*
X36659D01*
X36719D02*
X47589D01*
X34849Y62573D02*
X36659D01*
X36719D02*
X47589D01*
X34849Y62563D02*
X36659D01*
X36719D02*
X47589D01*
X34849Y62553D02*
X36659D01*
X36719D02*
X47589D01*
X34849Y62543D02*
X36659D01*
X36719D02*
X47589D01*
X34849Y62533D02*
X36659D01*
X36719D02*
X47589D01*
X34849Y62523D02*
X36659D01*
X36719D02*
X47589D01*
X34849Y62513D02*
X36659D01*
X36719D02*
X47589D01*
X34849Y62503D02*
X36659D01*
X36719D02*
X47589D01*
X34849Y62493D02*
X36659D01*
X36719D02*
X47589D01*
X34849Y62483D02*
X36659D01*
X36719D02*
X47589D01*
X34849Y62473D02*
X36659D01*
X36719D02*
X47589D01*
X34849Y62463D02*
X36659D01*
X36719D02*
X47589D01*
X34849Y62453D02*
X36659D01*
X36719D02*
X47589D01*
X34849Y62443D02*
X36659D01*
X36719D02*
X47589D01*
X34849Y62433D02*
X36659D01*
X36719D02*
X47589D01*
X34849Y62423D02*
X36659D01*
X36719D02*
X47589D01*
X34849Y62413D02*
X36659D01*
X36719D02*
X47589D01*
X34849Y62403D02*
X36659D01*
X36719D02*
X47589D01*
X34849Y62393D02*
X36659D01*
X36719D02*
X47589D01*
X34849Y62383D02*
X36659D01*
X36719D02*
X47589D01*
X34849Y62373D02*
X36659D01*
X36719D02*
X47589D01*
X34849Y62363D02*
X36659D01*
X36719D02*
X47589D01*
X34849Y62353D02*
X36659D01*
X36719D02*
X47589D01*
X34849Y62343D02*
X36659D01*
X36719D02*
X47589D01*
X34849Y62333D02*
X36659D01*
X36719D02*
X47589D01*
X34849Y62323D02*
X36659D01*
X36719D02*
X47589D01*
X34849Y62313D02*
X36659D01*
X36719D02*
X47589D01*
X34849Y62303D02*
X36659D01*
X36719D02*
X47589D01*
X34849Y62293D02*
X36659D01*
X36719D02*
X47589D01*
X34849Y62283D02*
X35689D01*
X37539D02*
X47589D01*
X34849Y62273D02*
X35639D01*
X37599D02*
X47589D01*
X34849Y62263D02*
X35599D01*
X37629D02*
X47589D01*
X34849Y62253D02*
X35579D01*
X37649D02*
X47589D01*
X34849Y62243D02*
X35559D01*
X37669D02*
X47589D01*
X34849Y62233D02*
X35549D01*
X37689D02*
X47589D01*
X34849Y62223D02*
X35529D01*
X37699D02*
X47589D01*
X34849Y62213D02*
X35519D01*
X37709D02*
X47589D01*
X34849Y62203D02*
X35509D01*
X37719D02*
X47589D01*
X34849Y62193D02*
X35509D01*
X37729D02*
X47589D01*
X34849Y62183D02*
X35499D01*
X37739D02*
X47589D01*
X34849Y62173D02*
X35489D01*
X37749D02*
X47589D01*
X34849Y62163D02*
X35489D01*
X37749D02*
X47589D01*
X34849Y62153D02*
X35489D01*
X37759D02*
X47589D01*
X34849Y62143D02*
X35479D01*
X37759D02*
X38329D01*
X38759D02*
X39509D01*
X40969D02*
X42369D01*
X44239D02*
X44859D01*
X45279D02*
X47589D01*
X34849Y62133D02*
X35479D01*
X37769D02*
X38329D01*
X38759D02*
X39509D01*
X41069D02*
X42369D01*
X44239D02*
X44859D01*
X45279D02*
X47589D01*
X34849Y62123D02*
X35479D01*
X37769D02*
X38329D01*
X38759D02*
X39509D01*
X41139D02*
X42369D01*
X44239D02*
X44859D01*
X45279D02*
X47589D01*
X34849Y62113D02*
X35479D01*
X35969D02*
X36659D01*
X36719D02*
X37289D01*
X37769D02*
X38329D01*
X38759D02*
X39509D01*
X41199D02*
X42369D01*
X44239D02*
X44859D01*
X45279D02*
X47589D01*
X34849Y62103D02*
X35479D01*
X35969D02*
X36659D01*
X36719D02*
X37289D01*
X37779D02*
X38329D01*
X38759D02*
X39509D01*
X41239D02*
X42369D01*
X44239D02*
X44859D01*
X45279D02*
X47589D01*
X34849Y62093D02*
X35469D01*
X35969D02*
X36659D01*
X36719D02*
X37289D01*
X37779D02*
X38329D01*
X38759D02*
X39509D01*
X41289D02*
X42369D01*
X44239D02*
X44859D01*
X45279D02*
X47589D01*
X34849Y62083D02*
X35469D01*
X35969D02*
X36659D01*
X36719D02*
X37289D01*
X37779D02*
X38329D01*
X38759D02*
X39509D01*
X41319D02*
X42369D01*
X44239D02*
X44859D01*
X45279D02*
X47589D01*
X34849Y62073D02*
X35469D01*
X35969D02*
X36659D01*
X36719D02*
X37289D01*
X37779D02*
X38329D01*
X38759D02*
X39509D01*
X41359D02*
X42369D01*
X44239D02*
X44859D01*
X45279D02*
X47589D01*
X34849Y62063D02*
X35469D01*
X35969D02*
X36659D01*
X36719D02*
X37289D01*
X37779D02*
X38329D01*
X38759D02*
X39509D01*
X41389D02*
X42369D01*
X44239D02*
X44859D01*
X45279D02*
X47589D01*
X34849Y62053D02*
X35469D01*
X35969D02*
X36659D01*
X36719D02*
X37289D01*
X37789D02*
X38329D01*
X38759D02*
X39509D01*
X41419D02*
X42369D01*
X44239D02*
X44859D01*
X45279D02*
X47589D01*
X34849Y62043D02*
X35469D01*
X35969D02*
X36659D01*
X36719D02*
X37289D01*
X37789D02*
X38329D01*
X38759D02*
X39509D01*
X41439D02*
X42369D01*
X44239D02*
X44859D01*
X45279D02*
X47589D01*
X34849Y62033D02*
X35469D01*
X35969D02*
X36659D01*
X36719D02*
X37289D01*
X37789D02*
X38329D01*
X38759D02*
X39509D01*
X41469D02*
X42369D01*
X44239D02*
X44859D01*
X45279D02*
X47589D01*
X34849Y62023D02*
X35469D01*
X35969D02*
X36659D01*
X36719D02*
X37289D01*
X37789D02*
X38329D01*
X38759D02*
X39509D01*
X41489D02*
X42369D01*
X44239D02*
X44859D01*
X45279D02*
X47589D01*
X34849Y62013D02*
X35469D01*
X35969D02*
X36659D01*
X36719D02*
X37289D01*
X37789D02*
X38329D01*
X38759D02*
X39509D01*
X41509D02*
X42369D01*
X44239D02*
X44859D01*
X45279D02*
X47589D01*
X34849Y62003D02*
X35469D01*
X35969D02*
X36659D01*
X36719D02*
X37289D01*
X37789D02*
X38329D01*
X38759D02*
X39509D01*
X41529D02*
X42369D01*
X42799D02*
X44859D01*
X45279D02*
X47589D01*
X34849Y61993D02*
X35469D01*
X35969D02*
X36659D01*
X36719D02*
X37289D01*
X37789D02*
X38329D01*
X38759D02*
X39509D01*
X41549D02*
X42369D01*
X42799D02*
X44859D01*
X45279D02*
X47589D01*
X34849Y61983D02*
X35469D01*
X35969D02*
X36659D01*
X36719D02*
X37289D01*
X37779D02*
X38329D01*
X38759D02*
X39509D01*
X41559D02*
X42369D01*
X42799D02*
X44859D01*
X45279D02*
X47589D01*
X34849Y61973D02*
X35469D01*
X35969D02*
X36659D01*
X36719D02*
X37289D01*
X37779D02*
X38329D01*
X38759D02*
X39509D01*
X39939D02*
X40879D01*
X41579D02*
X42369D01*
X42799D02*
X44859D01*
X45279D02*
X47589D01*
X34849Y61963D02*
X35469D01*
X35969D02*
X36659D01*
X36719D02*
X37289D01*
X37779D02*
X38329D01*
X38759D02*
X39509D01*
X39939D02*
X40969D01*
X41589D02*
X42369D01*
X42799D02*
X44859D01*
X45279D02*
X47589D01*
X34849Y61953D02*
X35469D01*
X35969D02*
X36659D01*
X36719D02*
X37289D01*
X37779D02*
X38329D01*
X38759D02*
X39509D01*
X39939D02*
X41019D01*
X41599D02*
X42369D01*
X42799D02*
X44859D01*
X45279D02*
X47589D01*
X34849Y61943D02*
X35469D01*
X35969D02*
X36659D01*
X36719D02*
X37289D01*
X37689D02*
X38329D01*
X38759D02*
X39509D01*
X39939D02*
X41059D01*
X41619D02*
X42369D01*
X42799D02*
X44859D01*
X45279D02*
X47589D01*
X34849Y61933D02*
X35469D01*
X35969D02*
X36659D01*
X36719D02*
X37289D01*
X37589D02*
X38329D01*
X38759D02*
X39509D01*
X39939D02*
X41089D01*
X41629D02*
X42369D01*
X42799D02*
X44859D01*
X45279D02*
X47589D01*
X34849Y61923D02*
X35469D01*
X35969D02*
X36659D01*
X36719D02*
X37289D01*
X37489D02*
X38329D01*
X38759D02*
X39509D01*
X39939D02*
X41119D01*
X41639D02*
X42369D01*
X42799D02*
X44859D01*
X45279D02*
X47589D01*
X34849Y61913D02*
X35469D01*
X35969D02*
X36659D01*
X36719D02*
X37289D01*
X37389D02*
X38329D01*
X38759D02*
X39509D01*
X39939D02*
X41149D01*
X41649D02*
X42369D01*
X42799D02*
X44859D01*
X45279D02*
X47589D01*
X34849Y61903D02*
X35469D01*
X35969D02*
X36639D01*
X36749D02*
X38329D01*
X38759D02*
X39509D01*
X39939D02*
X41169D01*
X41659D02*
X42369D01*
X42799D02*
X44859D01*
X45279D02*
X47589D01*
X34849Y61893D02*
X35469D01*
X35969D02*
X36569D01*
X36809D02*
X38329D01*
X38759D02*
X39509D01*
X39939D02*
X41179D01*
X41659D02*
X42369D01*
X42799D02*
X44859D01*
X45279D02*
X47589D01*
X34849Y61883D02*
X35469D01*
X35969D02*
X36529D01*
X36849D02*
X38329D01*
X38759D02*
X39509D01*
X39939D02*
X41199D01*
X41669D02*
X42369D01*
X42799D02*
X44859D01*
X45279D02*
X47589D01*
X34849Y61873D02*
X35469D01*
X35969D02*
X36499D01*
X36879D02*
X38329D01*
X38759D02*
X39509D01*
X39939D02*
X41209D01*
X41679D02*
X42369D01*
X42799D02*
X44859D01*
X45279D02*
X47589D01*
X34849Y61863D02*
X35469D01*
X35969D02*
X36479D01*
X36909D02*
X38329D01*
X38759D02*
X39509D01*
X39939D02*
X41229D01*
X41689D02*
X42369D01*
X42799D02*
X44859D01*
X45279D02*
X47589D01*
X34849Y61853D02*
X35469D01*
X35969D02*
X36459D01*
X36929D02*
X38329D01*
X38759D02*
X39509D01*
X39939D02*
X41239D01*
X41689D02*
X42369D01*
X42799D02*
X44859D01*
X45279D02*
X47589D01*
X34849Y61843D02*
X35469D01*
X35969D02*
X36439D01*
X36939D02*
X38329D01*
X38759D02*
X39509D01*
X39939D02*
X41249D01*
X41699D02*
X42369D01*
X42799D02*
X44859D01*
X45279D02*
X47589D01*
X34849Y61833D02*
X35469D01*
X35969D02*
X36429D01*
X36639D02*
X36739D01*
X36959D02*
X38329D01*
X38759D02*
X39509D01*
X39939D02*
X41259D01*
X41699D02*
X42369D01*
X42799D02*
X44859D01*
X45279D02*
X47589D01*
X34849Y61823D02*
X35469D01*
X35969D02*
X36409D01*
X36589D02*
X36789D01*
X36969D02*
X38329D01*
X38759D02*
X39509D01*
X39939D02*
X41259D01*
X41709D02*
X42369D01*
X42799D02*
X44859D01*
X45279D02*
X47589D01*
X34849Y61813D02*
X35469D01*
X35969D02*
X36399D01*
X36569D02*
X36819D01*
X36979D02*
X38329D01*
X38759D02*
X39509D01*
X39939D02*
X41269D01*
X41709D02*
X42369D01*
X42799D02*
X44859D01*
X45279D02*
X47589D01*
X34849Y61803D02*
X35469D01*
X35969D02*
X36389D01*
X36549D02*
X36839D01*
X36989D02*
X38329D01*
X38759D02*
X39509D01*
X39939D02*
X41279D01*
X41709D02*
X42369D01*
X42799D02*
X44859D01*
X45279D02*
X47589D01*
X34849Y61793D02*
X35469D01*
X35969D02*
X36379D01*
X36529D02*
X36849D01*
X36999D02*
X38329D01*
X38759D02*
X39509D01*
X39939D02*
X41279D01*
X41719D02*
X42369D01*
X42799D02*
X44859D01*
X45279D02*
X47589D01*
X34849Y61783D02*
X35469D01*
X35969D02*
X36379D01*
X36519D02*
X36869D01*
X37009D02*
X38329D01*
X38759D02*
X39509D01*
X39939D02*
X41289D01*
X41719D02*
X42369D01*
X42799D02*
X44859D01*
X45279D02*
X47589D01*
X34849Y61773D02*
X35469D01*
X35969D02*
X36369D01*
X36509D02*
X36869D01*
X37009D02*
X38329D01*
X38759D02*
X39509D01*
X39939D02*
X41289D01*
X41719D02*
X42369D01*
X43629D02*
X44859D01*
X45279D02*
X47589D01*
X33169Y61763D02*
X35469D01*
X35969D02*
X36369D01*
X36499D02*
X36879D01*
X37019D02*
X38329D01*
X38759D02*
X39509D01*
X39939D02*
X41289D01*
X41719D02*
X42359D01*
X43629D02*
X44859D01*
X45289D02*
X49269D01*
X33169Y61753D02*
X34849D01*
X36499D02*
X36889D01*
X47589D02*
X49269D01*
X33169Y61743D02*
X34849D01*
X36499D02*
X36889D01*
X47589D02*
X49269D01*
X33169Y61733D02*
X34849D01*
X36489D02*
X36889D01*
X47589D02*
X49269D01*
X33169Y61723D02*
X34849D01*
X36489D02*
X36889D01*
X47589D02*
X49269D01*
X33169Y61713D02*
X34849D01*
X36499D02*
X36889D01*
X47589D02*
X49269D01*
X33169Y61703D02*
X34849D01*
X36499D02*
X36879D01*
X47589D02*
X49269D01*
X34849Y61693D02*
X35469D01*
X35969D02*
X36369D01*
X36499D02*
X36879D01*
X37009D02*
X38329D01*
X38759D02*
X39509D01*
X39939D02*
X41299D01*
X41729D02*
X42369D01*
X43629D02*
X44859D01*
X45279D02*
X47589D01*
X34849Y61683D02*
X35469D01*
X35969D02*
X36369D01*
X36509D02*
X36869D01*
X37009D02*
X38329D01*
X38759D02*
X39509D01*
X39939D02*
X41299D01*
X41719D02*
X42369D01*
X43629D02*
X44859D01*
X45279D02*
X47589D01*
X34849Y61673D02*
X35469D01*
X35969D02*
X36379D01*
X36519D02*
X36859D01*
X36999D02*
X38329D01*
X38759D02*
X39509D01*
X39939D02*
X41289D01*
X41719D02*
X42369D01*
X43629D02*
X44859D01*
X45279D02*
X47589D01*
X34849Y61663D02*
X35469D01*
X35969D02*
X36389D01*
X36529D02*
X36849D01*
X36999D02*
X38329D01*
X38759D02*
X39509D01*
X39939D02*
X41289D01*
X41719D02*
X42369D01*
X43629D02*
X44859D01*
X45279D02*
X47589D01*
X34849Y61653D02*
X35469D01*
X35969D02*
X36399D01*
X36549D02*
X36829D01*
X36989D02*
X38329D01*
X38759D02*
X39509D01*
X39939D02*
X41289D01*
X41719D02*
X42369D01*
X43629D02*
X44859D01*
X45279D02*
X47589D01*
X34849Y61643D02*
X35469D01*
X35969D02*
X36409D01*
X36569D02*
X36809D01*
X36979D02*
X38329D01*
X38759D02*
X39509D01*
X39939D02*
X41279D01*
X41719D02*
X42369D01*
X43629D02*
X44859D01*
X45279D02*
X47589D01*
X34849Y61633D02*
X35469D01*
X35969D02*
X36419D01*
X36599D02*
X36779D01*
X36969D02*
X38329D01*
X38759D02*
X39509D01*
X39939D02*
X41279D01*
X41709D02*
X42369D01*
X43629D02*
X44859D01*
X45279D02*
X47589D01*
X34849Y61623D02*
X35469D01*
X35969D02*
X36429D01*
X36669D02*
X36709D01*
X36949D02*
X37269D01*
X37319D02*
X38329D01*
X38759D02*
X39509D01*
X39939D02*
X41269D01*
X41709D02*
X42369D01*
X42799D02*
X44859D01*
X45279D02*
X47589D01*
X34849Y61613D02*
X35469D01*
X35969D02*
X36449D01*
X36939D02*
X37269D01*
X37419D02*
X38329D01*
X38759D02*
X39509D01*
X39939D02*
X41269D01*
X41709D02*
X42369D01*
X42799D02*
X44859D01*
X45279D02*
X47589D01*
X34849Y61603D02*
X35469D01*
X35969D02*
X36459D01*
X36919D02*
X37269D01*
X37509D02*
X38329D01*
X38759D02*
X39509D01*
X39939D02*
X41259D01*
X41699D02*
X42369D01*
X42799D02*
X44859D01*
X45279D02*
X47589D01*
X34849Y61593D02*
X35469D01*
X35969D02*
X36479D01*
X36899D02*
X37269D01*
X37599D02*
X38329D01*
X38759D02*
X39509D01*
X39939D02*
X41249D01*
X41699D02*
X42369D01*
X42799D02*
X44859D01*
X45279D02*
X47589D01*
X34849Y61583D02*
X35469D01*
X35969D02*
X36509D01*
X36869D02*
X37269D01*
X37689D02*
X38329D01*
X38759D02*
X39509D01*
X39939D02*
X41239D01*
X41689D02*
X42369D01*
X42799D02*
X44859D01*
X45279D02*
X47589D01*
X34849Y61573D02*
X35469D01*
X35969D02*
X36539D01*
X36839D02*
X37269D01*
X37779D02*
X38329D01*
X38759D02*
X39509D01*
X39939D02*
X41239D01*
X41689D02*
X42369D01*
X42799D02*
X44859D01*
X45279D02*
X47589D01*
X34849Y61563D02*
X35469D01*
X35969D02*
X36589D01*
X36799D02*
X37269D01*
X37789D02*
X38329D01*
X38759D02*
X39509D01*
X39939D02*
X41229D01*
X41679D02*
X42369D01*
X42799D02*
X44859D01*
X45279D02*
X47589D01*
X34849Y61553D02*
X35469D01*
X35969D02*
X36659D01*
X36719D02*
X37269D01*
X37789D02*
X38329D01*
X38759D02*
X39509D01*
X39939D02*
X41219D01*
X41669D02*
X42369D01*
X42799D02*
X44859D01*
X45279D02*
X47589D01*
X34849Y61543D02*
X35469D01*
X35969D02*
X36659D01*
X36719D02*
X37269D01*
X37789D02*
X38329D01*
X38759D02*
X39509D01*
X39939D02*
X41209D01*
X41669D02*
X42369D01*
X42799D02*
X44859D01*
X45279D02*
X47589D01*
X34849Y61533D02*
X35469D01*
X35969D02*
X36659D01*
X36719D02*
X37269D01*
X37789D02*
X38329D01*
X38759D02*
X39509D01*
X39939D02*
X41199D01*
X41659D02*
X42369D01*
X42799D02*
X44859D01*
X45279D02*
X47589D01*
X34849Y61523D02*
X35469D01*
X35969D02*
X36659D01*
X36719D02*
X37269D01*
X37789D02*
X38329D01*
X38759D02*
X39509D01*
X39939D02*
X41179D01*
X41649D02*
X42369D01*
X42799D02*
X44859D01*
X45279D02*
X47589D01*
X34849Y61513D02*
X35469D01*
X35969D02*
X36659D01*
X36719D02*
X37269D01*
X37789D02*
X38329D01*
X38759D02*
X39509D01*
X39939D02*
X41169D01*
X41649D02*
X42369D01*
X42799D02*
X44859D01*
X45279D02*
X47589D01*
X34849Y61503D02*
X35469D01*
X35969D02*
X36659D01*
X36719D02*
X37269D01*
X37789D02*
X38329D01*
X38759D02*
X39509D01*
X39939D02*
X41159D01*
X41639D02*
X42369D01*
X42799D02*
X44859D01*
X45279D02*
X47589D01*
X34849Y61493D02*
X35469D01*
X35969D02*
X36659D01*
X36719D02*
X37269D01*
X37789D02*
X38329D01*
X38759D02*
X39509D01*
X39939D02*
X41139D01*
X41629D02*
X42369D01*
X42799D02*
X44859D01*
X45279D02*
X47589D01*
X34849Y61483D02*
X35469D01*
X35969D02*
X36659D01*
X36719D02*
X37269D01*
X37789D02*
X38329D01*
X38759D02*
X39509D01*
X39939D02*
X41119D01*
X41619D02*
X42369D01*
X42799D02*
X44859D01*
X45279D02*
X47589D01*
X34849Y61473D02*
X35469D01*
X35969D02*
X36659D01*
X36719D02*
X37269D01*
X37789D02*
X38329D01*
X38759D02*
X39509D01*
X39939D02*
X41099D01*
X41609D02*
X42369D01*
X42799D02*
X44859D01*
X45279D02*
X47589D01*
X34849Y61463D02*
X35469D01*
X35969D02*
X36659D01*
X36719D02*
X37269D01*
X37789D02*
X38329D01*
X38759D02*
X39509D01*
X39939D02*
X41079D01*
X41599D02*
X42369D01*
X42799D02*
X44859D01*
X45279D02*
X47589D01*
X34849Y61453D02*
X35469D01*
X35969D02*
X36659D01*
X36719D02*
X37269D01*
X37789D02*
X38329D01*
X38759D02*
X39509D01*
X39939D02*
X41049D01*
X41589D02*
X42369D01*
X42799D02*
X44859D01*
X45279D02*
X47589D01*
X34849Y61443D02*
X35469D01*
X35969D02*
X36659D01*
X36719D02*
X37269D01*
X37789D02*
X38329D01*
X38759D02*
X39509D01*
X39939D02*
X41019D01*
X41569D02*
X42369D01*
X42799D02*
X44859D01*
X45279D02*
X47589D01*
X34849Y61433D02*
X35469D01*
X35969D02*
X36659D01*
X36719D02*
X37269D01*
X37789D02*
X38329D01*
X38759D02*
X39509D01*
X39939D02*
X40969D01*
X41559D02*
X42369D01*
X42799D02*
X44859D01*
X45279D02*
X47589D01*
X34849Y61423D02*
X35469D01*
X35969D02*
X36659D01*
X36719D02*
X37269D01*
X37789D02*
X38329D01*
X38759D02*
X39509D01*
X39939D02*
X40899D01*
X41549D02*
X42369D01*
X44239D02*
X44859D01*
X45279D02*
X47589D01*
X34849Y61413D02*
X35469D01*
X35969D02*
X36659D01*
X36719D02*
X37269D01*
X37789D02*
X38329D01*
X38759D02*
X39509D01*
X41529D02*
X42369D01*
X44239D02*
X44859D01*
X45279D02*
X47589D01*
X34849Y61403D02*
X35469D01*
X35969D02*
X36659D01*
X36719D02*
X37269D01*
X37789D02*
X38329D01*
X38759D02*
X39509D01*
X41519D02*
X42369D01*
X44239D02*
X44859D01*
X45279D02*
X47589D01*
X34849Y61393D02*
X35479D01*
X37789D02*
X38329D01*
X38759D02*
X39509D01*
X41499D02*
X42369D01*
X44239D02*
X44859D01*
X45279D02*
X47589D01*
X34849Y61383D02*
X35479D01*
X37779D02*
X38329D01*
X38759D02*
X39509D01*
X41479D02*
X42369D01*
X44239D02*
X44859D01*
X45279D02*
X47589D01*
X34849Y61373D02*
X35479D01*
X37779D02*
X38329D01*
X38759D02*
X39509D01*
X41459D02*
X42369D01*
X44239D02*
X44859D01*
X45279D02*
X47589D01*
X34849Y61363D02*
X35479D01*
X37779D02*
X38329D01*
X38759D02*
X39509D01*
X41439D02*
X42369D01*
X44239D02*
X44859D01*
X45279D02*
X47589D01*
X34849Y61353D02*
X35489D01*
X37769D02*
X38329D01*
X38759D02*
X39509D01*
X41419D02*
X42369D01*
X44239D02*
X44859D01*
X45279D02*
X47589D01*
X34849Y61343D02*
X35489D01*
X37769D02*
X38329D01*
X38759D02*
X39509D01*
X41389D02*
X42369D01*
X44239D02*
X44859D01*
X45279D02*
X47589D01*
X34849Y61333D02*
X35499D01*
X37759D02*
X38329D01*
X38759D02*
X39509D01*
X41369D02*
X42369D01*
X44239D02*
X44859D01*
X45279D02*
X47589D01*
X34849Y61323D02*
X35509D01*
X37759D02*
X38329D01*
X38759D02*
X39509D01*
X41339D02*
X42369D01*
X44239D02*
X44859D01*
X45279D02*
X47589D01*
X34849Y61313D02*
X35509D01*
X37749D02*
X38329D01*
X38759D02*
X39509D01*
X41299D02*
X42369D01*
X44239D02*
X44859D01*
X45279D02*
X47589D01*
X34849Y61303D02*
X35519D01*
X37739D02*
X38329D01*
X38759D02*
X39509D01*
X41259D02*
X42369D01*
X44239D02*
X44859D01*
X45279D02*
X47589D01*
X34849Y61293D02*
X35529D01*
X37729D02*
X38329D01*
X38759D02*
X39509D01*
X41219D02*
X42369D01*
X44239D02*
X44859D01*
X45279D02*
X47589D01*
X34849Y61283D02*
X35539D01*
X37719D02*
X38329D01*
X38759D02*
X39509D01*
X41159D02*
X42369D01*
X44239D02*
X44859D01*
X45279D02*
X47589D01*
X34849Y61273D02*
X35559D01*
X37709D02*
X38329D01*
X38759D02*
X39509D01*
X41089D02*
X42369D01*
X44239D02*
X44859D01*
X45279D02*
X47589D01*
X34849Y61263D02*
X35569D01*
X37689D02*
X38329D01*
X38759D02*
X39509D01*
X40989D02*
X42369D01*
X44239D02*
X44859D01*
X45279D02*
X47589D01*
X34849Y61253D02*
X35589D01*
X37669D02*
X47589D01*
X34849Y61243D02*
X35609D01*
X37649D02*
X47589D01*
X34849Y61233D02*
X35629D01*
X37619D02*
X47589D01*
X34849Y61223D02*
X35659D01*
X37589D02*
X47589D01*
X34849Y61213D02*
X35709D01*
X37549D02*
X47589D01*
X34849Y61203D02*
X35779D01*
X37469D02*
X47589D01*
X34849Y61193D02*
X36659D01*
X36719D02*
X47589D01*
X34849Y61183D02*
X36659D01*
X36719D02*
X47589D01*
X34849Y61173D02*
X36659D01*
X36719D02*
X47589D01*
X34849Y61163D02*
X36659D01*
X36719D02*
X47589D01*
X34849Y61153D02*
X36659D01*
X36719D02*
X47589D01*
X34849Y61143D02*
X36659D01*
X36719D02*
X47589D01*
X34849Y61133D02*
X36659D01*
X36719D02*
X47589D01*
X34849Y61123D02*
X36659D01*
X36719D02*
X47589D01*
X34849Y61113D02*
X36659D01*
X36719D02*
X47589D01*
X34849Y61103D02*
X36659D01*
X36719D02*
X47589D01*
X34849Y61093D02*
X36659D01*
X36719D02*
X47589D01*
X34849Y61083D02*
X36659D01*
X36719D02*
X47589D01*
X34849Y61073D02*
X36659D01*
X36719D02*
X47589D01*
X34849Y61063D02*
X36659D01*
X36719D02*
X47589D01*
X34849Y61053D02*
X36659D01*
X36719D02*
X47589D01*
X34849Y61043D02*
X36659D01*
X36719D02*
X47589D01*
X34849Y61033D02*
X36659D01*
X36719D02*
X47589D01*
X34849Y61023D02*
X36659D01*
X36719D02*
X47589D01*
X34849Y61013D02*
X36659D01*
X36719D02*
X47589D01*
X34849Y61003D02*
X36659D01*
X36719D02*
X47589D01*
X34849Y60993D02*
X36659D01*
X36719D02*
X47589D01*
X34849Y60983D02*
X36659D01*
X36719D02*
X47589D01*
X34849Y60973D02*
X36659D01*
X36719D02*
X47589D01*
X34849Y60963D02*
X36659D01*
X36719D02*
X47589D01*
X34849Y60953D02*
X36659D01*
X36719D02*
X47589D01*
X34849Y60943D02*
X36659D01*
X36719D02*
X47589D01*
X34849Y60933D02*
X36659D01*
X36719D02*
X47589D01*
X34849Y60923D02*
X36659D01*
X36719D02*
X47589D01*
X34849Y60913D02*
X36659D01*
X36719D02*
X47589D01*
X34849Y60903D02*
X36659D01*
X36719D02*
X47589D01*
X34849Y60893D02*
X36659D01*
X36719D02*
X47589D01*
X34849Y60883D02*
X36659D01*
X36719D02*
X47589D01*
X34849Y60873D02*
X36659D01*
X36719D02*
X47589D01*
X34849Y60863D02*
X36659D01*
X36719D02*
X47589D01*
X34849Y60853D02*
X36659D01*
X36719D02*
X47589D01*
X34849Y60843D02*
X36659D01*
X36719D02*
X47589D01*
X34849Y60833D02*
X36659D01*
X36719D02*
X47589D01*
X34849Y60823D02*
X36659D01*
X36719D02*
X47589D01*
X34849Y60813D02*
X36659D01*
X36719D02*
X47589D01*
X34849Y60803D02*
X36659D01*
X36719D02*
X47589D01*
X34849Y60793D02*
X47589D01*
X36659Y60783D02*
X36729D01*
X36659Y60773D02*
X36729D01*
X36659Y60763D02*
X36729D01*
X36659Y60753D02*
X36729D01*
X36659Y60743D02*
X36729D01*
X36659Y60733D02*
X36729D01*
X36659Y60723D02*
X36729D01*
X36659Y60713D02*
X36729D01*
X36659Y60703D02*
X36729D01*
X36659Y60693D02*
X36729D01*
X36659Y60683D02*
X36729D01*
X36659Y60673D02*
X36729D01*
X36659Y60663D02*
X36729D01*
X36659Y60653D02*
X36729D01*
X36659Y60643D02*
X36729D01*
X36659Y60633D02*
X36729D01*
X36659Y60623D02*
X36729D01*
X36659Y60613D02*
X36729D01*
X36659Y60603D02*
X36729D01*
X36659Y60593D02*
X36729D01*
X36659Y60583D02*
X36729D01*
X36659Y60573D02*
X36729D01*
X36659Y60563D02*
X36729D01*
X36659Y60553D02*
X36729D01*
X36659Y60543D02*
X36729D01*
X36659Y60533D02*
X36729D01*
X36659Y60523D02*
X36729D01*
X36659Y60513D02*
X36729D01*
X36659Y60503D02*
X36729D01*
X36659Y60493D02*
X36729D01*
X36659Y60483D02*
X36729D01*
X36659Y60473D02*
X36729D01*
X36659Y60463D02*
X36729D01*
X36659Y60453D02*
X36729D01*
X36659Y60443D02*
X36729D01*
X36659Y60433D02*
X36729D01*
X36659Y60423D02*
X36729D01*
X36659Y60413D02*
X36729D01*
X36659Y60403D02*
X36729D01*
X36659Y60393D02*
X36729D01*
X36659Y60383D02*
X36729D01*
X36659Y60373D02*
X36729D01*
X36659Y60363D02*
X36729D01*
X36659Y60353D02*
X36729D01*
X36659Y60343D02*
X36729D01*
X36659Y60333D02*
X36729D01*
X36659Y60323D02*
X36729D01*
X36659Y60313D02*
X36729D01*
X36659Y60303D02*
X36729D01*
X36659Y60293D02*
X36729D01*
X36659Y60283D02*
X36729D01*
X36659Y60273D02*
X36729D01*
X36659Y60263D02*
X36729D01*
X36659Y60253D02*
X36729D01*
X36659Y60243D02*
X36729D01*
X36659Y60233D02*
X36729D01*
X36659Y60223D02*
X36729D01*
X36659Y60213D02*
X36729D01*
X36659Y60203D02*
X36729D01*
X36659Y60193D02*
X36729D01*
X36659Y60183D02*
X36729D01*
X36659Y60173D02*
X36729D01*
X36659Y60163D02*
X36729D01*
X36659Y60153D02*
X36729D01*
X36659Y60143D02*
X36729D01*
X36659Y60133D02*
X36729D01*
X36659Y60123D02*
X36729D01*
X36659Y60113D02*
X36729D01*
X36659Y60103D02*
X36729D01*
X36659Y60093D02*
X36729D01*
X36659Y60083D02*
X36729D01*
X36659Y60073D02*
X36729D01*
X36659Y60063D02*
X36729D01*
X36659Y60053D02*
X36729D01*
X36659Y60043D02*
X36729D01*
X36659Y60033D02*
X36729D01*
X36659Y60023D02*
X36729D01*
X36659Y60013D02*
X36729D01*
X36659Y60003D02*
X36729D01*
X36659Y59993D02*
X36729D01*
X36659Y59983D02*
X36729D01*
X36659Y59973D02*
X36729D01*
X36659Y59963D02*
X36729D01*
X36659Y59953D02*
X36729D01*
X36659Y59943D02*
X36729D01*
X36659Y59933D02*
X36729D01*
X36659Y59923D02*
X36729D01*
X36659Y59913D02*
X36729D01*
X36659Y59903D02*
X36729D01*
X36659Y59893D02*
X36729D01*
X36659Y59883D02*
X36729D01*
X36659Y59873D02*
X36729D01*
X36659Y59863D02*
X36729D01*
X36659Y59853D02*
X36729D01*
X36659Y59843D02*
X36729D01*
X36659Y59833D02*
X36729D01*
X36659Y59823D02*
X36729D01*
X36659Y59813D02*
X36729D01*
X36659Y59803D02*
X36729D01*
X36659Y59793D02*
X36729D01*
X36659Y59783D02*
X36729D01*
X36659Y59773D02*
X36729D01*
X36659Y59763D02*
X36729D01*
X36659Y59753D02*
X36729D01*
X36659Y59743D02*
X36729D01*
X36659Y59733D02*
X36729D01*
X36659Y59723D02*
X36729D01*
D17*
X43162Y49878D02*
X42997Y50043D01*
X42666D01*
X42500Y49878D01*
Y49216D01*
X42666Y49050D01*
X42997D01*
X43162Y49216D01*
X43493Y50043D02*
X43825D01*
X43659D01*
Y49050D01*
X43493D01*
X43825D01*
X44321Y50043D02*
Y49050D01*
X44818D01*
X44983Y49216D01*
Y49878D01*
X44818Y50043D01*
X44321D01*
X45977D02*
X45315D01*
Y49050D01*
X45977D01*
X45315Y49547D02*
X45646D01*
X46308Y50043D02*
X46639D01*
X46474D01*
Y49050D01*
X46308D01*
X46639D01*
X40876Y47500D02*
Y48493D01*
X41373D01*
X41539Y48328D01*
Y47997D01*
X41373Y47831D01*
X40876D01*
X41870Y47500D02*
Y48493D01*
X42366D01*
X42532Y48328D01*
Y47997D01*
X42366Y47831D01*
X41870D01*
X42201D02*
X42532Y47500D01*
X43360Y48493D02*
X43029D01*
X42863Y48328D01*
Y47666D01*
X43029Y47500D01*
X43360D01*
X43525Y47666D01*
Y48328D01*
X43360Y48493D01*
X43857D02*
Y48328D01*
X44188Y47997D01*
X44519Y48328D01*
Y48493D01*
X44188Y47997D02*
Y47500D01*
X45512Y48493D02*
X44850D01*
Y47500D01*
X45512D01*
X44850Y47997D02*
X45181D01*
X46506Y48328D02*
X46340Y48493D01*
X46009D01*
X45843Y48328D01*
Y47666D01*
X46009Y47500D01*
X46340D01*
X46506Y47666D01*
X46837Y48493D02*
X47499D01*
X47168D01*
Y47500D01*
X48327Y48493D02*
X47996D01*
X47830Y48328D01*
Y47666D01*
X47996Y47500D01*
X48327D01*
X48492Y47666D01*
Y48328D01*
X48327Y48493D01*
X39100Y46050D02*
Y47043D01*
X39431Y46712D01*
X39762Y47043D01*
Y46050D01*
X40756Y47043D02*
X40093D01*
Y46050D01*
X40756D01*
X40093Y46547D02*
X40425D01*
X41087Y47043D02*
X41749D01*
X41418D01*
Y46050D01*
X42577Y47043D02*
X42246D01*
X42080Y46878D01*
Y46216D01*
X42246Y46050D01*
X42577D01*
X42742Y46216D01*
Y46878D01*
X42577Y47043D01*
X43074D02*
Y46050D01*
X43570D01*
X43736Y46216D01*
Y46878D01*
X43570Y47043D01*
X43074D01*
X44564D02*
X44232D01*
X44067Y46878D01*
Y46216D01*
X44232Y46050D01*
X44564D01*
X44729Y46216D01*
Y46878D01*
X44564Y47043D01*
X45060D02*
Y46050D01*
X45723D01*
X46550Y47043D02*
X46219D01*
X46054Y46878D01*
Y46216D01*
X46219Y46050D01*
X46550D01*
X46716Y46216D01*
Y46878D01*
X46550Y47043D01*
X47709Y46878D02*
X47544Y47043D01*
X47213D01*
X47047Y46878D01*
Y46216D01*
X47213Y46050D01*
X47544D01*
X47709Y46216D01*
Y46547D01*
X47378D01*
X48040Y47043D02*
X48372D01*
X48206D01*
Y46050D01*
X48040D01*
X48372D01*
X48868D02*
Y46712D01*
X49199Y47043D01*
X49530Y46712D01*
Y46050D01*
Y46547D01*
X48868D01*
D18*
X52600Y39900D02*
X52767D01*
X52683D01*
Y40400D01*
X52600Y40317D01*
X49933Y39850D02*
X49600D01*
X49933Y40183D01*
Y40267D01*
X49850Y40350D01*
X49683D01*
X49600Y40267D01*
X49906Y59150D02*
X49406D01*
X49656Y58900D01*
Y59233D01*
X49489Y59400D02*
X49406Y59483D01*
Y59650D01*
X49489Y59733D01*
X49822D01*
X49906Y59650D01*
Y59483D01*
X49822Y59400D01*
X49489D01*
X52683Y58900D02*
X52600Y58983D01*
Y59150D01*
X52683Y59233D01*
X52767D01*
X52850Y59150D01*
Y59067D01*
Y59150D01*
X52933Y59233D01*
X53017D01*
X53100Y59150D01*
Y58983D01*
X53017Y58900D01*
Y59400D02*
X53100Y59483D01*
Y59650D01*
X53017Y59733D01*
X52683D01*
X52600Y59650D01*
Y59483D01*
X52683Y59400D01*
X52767D01*
X52850Y59483D01*
Y59733D01*
X28699Y32078D02*
X28366D01*
X28699Y32411D01*
Y32494D01*
X28616Y32578D01*
X28449D01*
X28366Y32494D01*
X28468Y30909D02*
X28635D01*
X28552D01*
Y31409D01*
X28468Y31325D01*
X33256Y31365D02*
X33589D01*
Y31282D01*
X33256Y30949D01*
Y30865D01*
X33610Y32091D02*
X33527Y32007D01*
X33360D01*
X33277Y32091D01*
Y32174D01*
X33360Y32257D01*
X33277Y32340D01*
Y32424D01*
X33360Y32507D01*
X33527D01*
X33610Y32424D01*
Y32340D01*
X33527Y32257D01*
X33610Y32174D01*
Y32091D01*
X33527Y32257D02*
X33360D01*
M02*
