%FSLAX24Y24*%
%MOIN*%
G70*
G01*
G75*
G04 Layer_Physical_Order=2*
G04 Layer_Color=16711680*
%ADD10R,0.0512X0.0315*%
%ADD11R,0.0315X0.0512*%
%ADD12R,0.1378X0.1181*%
%ADD13R,0.1181X0.1378*%
%ADD14R,0.1575X0.1339*%
%ADD15R,0.1142X0.1024*%
%ADD16C,0.0512*%
%ADD17C,0.0394*%
%ADD18C,0.0087*%
%ADD19C,0.0787*%
%ADD20C,0.0591*%
%ADD21C,0.0433*%
%ADD22C,0.0315*%
%ADD23C,0.1181*%
%ADD24C,0.0472*%
%ADD25C,0.0346*%
%ADD26C,0.0197*%
%ADD27C,0.0118*%
%ADD28C,0.0098*%
%ADD29C,0.0157*%
%ADD30C,0.0709*%
%ADD31R,0.1895X0.1648*%
%ADD32R,0.1102X0.3730*%
%ADD33R,0.1519X0.0665*%
%ADD34R,0.0750X0.0750*%
%ADD35R,0.1300X0.0600*%
%ADD36R,0.0669X0.0748*%
%ADD37R,0.0620X0.0792*%
%ADD38R,0.0517X0.1553*%
%ADD39R,0.8944X1.1604*%
%ADD40R,0.1906X0.1516*%
%ADD41R,0.4161X0.3343*%
%ADD42C,0.0394*%
%ADD43R,0.0591X0.0591*%
%ADD44C,0.0591*%
%ADD45R,0.0591X0.0591*%
%ADD46C,0.0748*%
%ADD47R,0.0748X0.0748*%
%ADD48R,0.0748X0.0748*%
%ADD49C,0.0512*%
%ADD50C,0.3150*%
%ADD51C,0.0433*%
%ADD52C,0.0500*%
%ADD53C,0.0630*%
G36*
X49992Y44398D02*
X49988Y44394D01*
X49969Y44374D01*
X41548D01*
Y46723D01*
X41537Y46778D01*
X41505Y46825D01*
X41081Y47250D01*
X41072Y59033D01*
X41074Y59035D01*
X49992D01*
Y44398D01*
D02*
G37*
G36*
X42369Y59806D02*
X40945D01*
X40852Y59794D01*
X40766Y59758D01*
X40692Y59702D01*
X40692Y59702D01*
X40220Y59229D01*
X40163Y59155D01*
X40156Y59139D01*
X34770D01*
Y66521D01*
X42369D01*
Y59806D01*
D02*
G37*
G36*
X50197Y65757D02*
Y59748D01*
X50142Y59741D01*
X50032Y59695D01*
X49938Y59623D01*
X49454Y59139D01*
X42598D01*
Y66521D01*
X49433D01*
X50197Y65757D01*
D02*
G37*
%LPC*%
G36*
X47294Y52576D02*
X47009D01*
Y52292D01*
X47041Y52296D01*
X47126Y52331D01*
X47199Y52387D01*
X47254Y52460D01*
X47289Y52544D01*
X47294Y52576D01*
D02*
G37*
G36*
X46891D02*
X46606D01*
X46611Y52544D01*
X46646Y52460D01*
X46701Y52387D01*
X46774Y52331D01*
X46859Y52296D01*
X46891Y52292D01*
Y52576D01*
D02*
G37*
G36*
X41620Y52294D02*
Y52009D01*
X41904D01*
X41900Y52041D01*
X41865Y52126D01*
X41809Y52199D01*
X41736Y52255D01*
X41651Y52290D01*
X41620Y52294D01*
D02*
G37*
G36*
X47641Y52576D02*
X47356D01*
X47361Y52544D01*
X47396Y52460D01*
X47452Y52387D01*
X47524Y52331D01*
X47609Y52296D01*
X47641Y52292D01*
Y52576D01*
D02*
G37*
G36*
X41904Y52691D02*
X41620D01*
Y52407D01*
X41651Y52411D01*
X41736Y52446D01*
X41809Y52502D01*
X41865Y52574D01*
X41900Y52659D01*
X41904Y52691D01*
D02*
G37*
G36*
X41501D02*
X41217D01*
X41221Y52659D01*
X41256Y52574D01*
X41312Y52502D01*
X41385Y52446D01*
X41470Y52411D01*
X41501Y52407D01*
Y52691D01*
D02*
G37*
G36*
X48044Y52576D02*
X47759D01*
Y52292D01*
X47791Y52296D01*
X47876Y52331D01*
X47948Y52387D01*
X48004Y52460D01*
X48039Y52544D01*
X48044Y52576D01*
D02*
G37*
G36*
X47641Y52194D02*
X47609Y52189D01*
X47524Y52154D01*
X47452Y52098D01*
X47396Y52026D01*
X47361Y51941D01*
X47356Y51909D01*
X47641D01*
Y52194D01*
D02*
G37*
G36*
X47009D02*
Y51909D01*
X47294D01*
X47289Y51941D01*
X47254Y52026D01*
X47199Y52098D01*
X47126Y52154D01*
X47041Y52189D01*
X47009Y52194D01*
D02*
G37*
G36*
X46891D02*
X46859Y52189D01*
X46774Y52154D01*
X46701Y52098D01*
X46646Y52026D01*
X46611Y51941D01*
X46606Y51909D01*
X46891D01*
Y52194D01*
D02*
G37*
G36*
X47759D02*
Y51909D01*
X48044D01*
X48039Y51941D01*
X48004Y52026D01*
X47948Y52098D01*
X47876Y52154D01*
X47791Y52189D01*
X47759Y52194D01*
D02*
G37*
G36*
X41501Y52294D02*
X41470Y52290D01*
X41385Y52255D01*
X41312Y52199D01*
X41256Y52126D01*
X41221Y52041D01*
X41217Y52009D01*
X41501D01*
Y52294D01*
D02*
G37*
G36*
X48509Y52194D02*
Y51909D01*
X48794D01*
X48789Y51941D01*
X48754Y52026D01*
X48699Y52098D01*
X48626Y52154D01*
X48541Y52189D01*
X48509Y52194D01*
D02*
G37*
G36*
X48391D02*
X48359Y52189D01*
X48274Y52154D01*
X48201Y52098D01*
X48146Y52026D01*
X48111Y51941D01*
X48106Y51909D01*
X48391D01*
Y52194D01*
D02*
G37*
G36*
X49141Y53213D02*
X49109Y53209D01*
X49024Y53174D01*
X48952Y53118D01*
X48896Y53045D01*
X48861Y52960D01*
X48856Y52928D01*
X49141D01*
Y53213D01*
D02*
G37*
G36*
X41620Y53094D02*
Y52809D01*
X41904D01*
X41900Y52841D01*
X41865Y52926D01*
X41809Y52999D01*
X41736Y53055D01*
X41651Y53090D01*
X41620Y53094D01*
D02*
G37*
G36*
X41501D02*
X41470Y53090D01*
X41385Y53055D01*
X41312Y52999D01*
X41256Y52926D01*
X41221Y52841D01*
X41217Y52809D01*
X41501D01*
Y53094D01*
D02*
G37*
G36*
X49259Y53213D02*
Y52928D01*
X49544D01*
X49539Y52960D01*
X49504Y53045D01*
X49448Y53118D01*
X49376Y53174D01*
X49291Y53209D01*
X49259Y53213D01*
D02*
G37*
G36*
X41501Y53541D02*
X41217D01*
X41221Y53509D01*
X41256Y53424D01*
X41312Y53352D01*
X41385Y53296D01*
X41470Y53261D01*
X41501Y53257D01*
Y53541D01*
D02*
G37*
G36*
X47294Y53429D02*
X47009D01*
Y53145D01*
X47041Y53149D01*
X47126Y53184D01*
X47199Y53240D01*
X47254Y53313D01*
X47289Y53397D01*
X47294Y53429D01*
D02*
G37*
G36*
X46191D02*
X45906D01*
X45911Y53397D01*
X45946Y53313D01*
X46002Y53240D01*
X46074Y53184D01*
X46159Y53149D01*
X46191Y53145D01*
Y53429D01*
D02*
G37*
G36*
X47299Y52657D02*
X47301Y52635D01*
X47300Y52625D01*
X47339D01*
X47351Y52613D01*
X47349Y52635D01*
X47350Y52646D01*
X47311D01*
X47299Y52657D01*
D02*
G37*
G36*
X49544Y52810D02*
X49259D01*
Y52526D01*
X49291Y52530D01*
X49376Y52565D01*
X49448Y52621D01*
X49504Y52694D01*
X49539Y52778D01*
X49544Y52810D01*
D02*
G37*
G36*
X49141D02*
X48856D01*
X48861Y52778D01*
X48896Y52694D01*
X48952Y52621D01*
X49024Y52565D01*
X49109Y52530D01*
X49141Y52526D01*
Y52810D01*
D02*
G37*
G36*
X46891Y52979D02*
X46859Y52975D01*
X46774Y52940D01*
X46701Y52884D01*
X46646Y52811D01*
X46611Y52726D01*
X46606Y52694D01*
X46891D01*
Y52979D01*
D02*
G37*
G36*
X47759D02*
Y52694D01*
X48044D01*
X48039Y52726D01*
X48004Y52811D01*
X47948Y52884D01*
X47876Y52940D01*
X47791Y52975D01*
X47759Y52979D01*
D02*
G37*
G36*
X47641D02*
X47609Y52975D01*
X47524Y52940D01*
X47452Y52884D01*
X47396Y52811D01*
X47361Y52726D01*
X47356Y52694D01*
X47641D01*
Y52979D01*
D02*
G37*
G36*
X47009D02*
Y52694D01*
X47294D01*
X47289Y52726D01*
X47254Y52811D01*
X47199Y52884D01*
X47126Y52940D01*
X47041Y52975D01*
X47009Y52979D01*
D02*
G37*
G36*
X47639Y50437D02*
X47355D01*
X47359Y50406D01*
X47394Y50321D01*
X47450Y50248D01*
X47523Y50192D01*
X47607Y50157D01*
X47639Y50153D01*
Y50437D01*
D02*
G37*
G36*
X47292D02*
X47007D01*
Y50153D01*
X47039Y50157D01*
X47124Y50192D01*
X47197Y50248D01*
X47253Y50321D01*
X47288Y50406D01*
X47292Y50437D01*
D02*
G37*
G36*
X44767D02*
X44482D01*
X44486Y50406D01*
X44521Y50321D01*
X44577Y50248D01*
X44650Y50192D01*
X44735Y50157D01*
X44767Y50153D01*
Y50437D01*
D02*
G37*
G36*
X48042D02*
X47757D01*
Y50153D01*
X47789Y50157D01*
X47874Y50192D01*
X47947Y50248D01*
X48003Y50321D01*
X48038Y50406D01*
X48042Y50437D01*
D02*
G37*
G36*
X49141D02*
X48856D01*
X48861Y50406D01*
X48896Y50321D01*
X48952Y50248D01*
X49024Y50192D01*
X49109Y50157D01*
X49141Y50153D01*
Y50437D01*
D02*
G37*
G36*
X48792D02*
X48507D01*
Y50153D01*
X48539Y50157D01*
X48624Y50192D01*
X48697Y50248D01*
X48753Y50321D01*
X48788Y50406D01*
X48792Y50437D01*
D02*
G37*
G36*
X48389D02*
X48105D01*
X48109Y50406D01*
X48144Y50321D01*
X48200Y50248D01*
X48273Y50192D01*
X48357Y50157D01*
X48389Y50153D01*
Y50437D01*
D02*
G37*
G36*
X47313Y45518D02*
X47028D01*
Y45234D01*
X47060Y45238D01*
X47070Y45242D01*
X47109Y45211D01*
X47108Y45201D01*
X47393D01*
Y45486D01*
X47361Y45482D01*
X47351Y45478D01*
X47312Y45508D01*
X47313Y45518D01*
D02*
G37*
G36*
X47795Y45083D02*
X47511D01*
Y44798D01*
X47543Y44803D01*
X47627Y44838D01*
X47700Y44894D01*
X47756Y44966D01*
X47791Y45051D01*
X47795Y45083D01*
D02*
G37*
G36*
X47393D02*
X47108D01*
X47112Y45051D01*
X47147Y44966D01*
X47203Y44894D01*
X47276Y44838D01*
X47361Y44803D01*
X47393Y44798D01*
Y45083D01*
D02*
G37*
G36*
X47511Y45486D02*
Y45201D01*
X47795D01*
X47791Y45233D01*
X47756Y45318D01*
X47700Y45391D01*
X47627Y45446D01*
X47543Y45482D01*
X47511Y45486D01*
D02*
G37*
G36*
X47028Y45921D02*
Y45636D01*
X47313D01*
X47309Y45668D01*
X47274Y45753D01*
X47218Y45826D01*
X47145Y45882D01*
X47060Y45917D01*
X47028Y45921D01*
D02*
G37*
G36*
X46910D02*
X46878Y45917D01*
X46794Y45882D01*
X46721Y45826D01*
X46665Y45753D01*
X46630Y45668D01*
X46626Y45636D01*
X46910D01*
Y45921D01*
D02*
G37*
G36*
Y45518D02*
X46626D01*
X46630Y45486D01*
X46665Y45401D01*
X46721Y45329D01*
X46794Y45273D01*
X46878Y45238D01*
X46910Y45234D01*
Y45518D01*
D02*
G37*
G36*
X46891Y51791D02*
X46606D01*
X46611Y51759D01*
X46646Y51674D01*
X46701Y51602D01*
X46774Y51546D01*
X46859Y51511D01*
X46891Y51506D01*
Y51791D01*
D02*
G37*
G36*
X44768Y51451D02*
X44736Y51447D01*
X44651Y51412D01*
X44579Y51356D01*
X44523Y51283D01*
X44488Y51199D01*
X44483Y51167D01*
X44768D01*
Y51451D01*
D02*
G37*
G36*
X49259Y51450D02*
Y51165D01*
X49544D01*
X49539Y51197D01*
X49504Y51282D01*
X49448Y51354D01*
X49376Y51410D01*
X49291Y51445D01*
X49259Y51450D01*
D02*
G37*
G36*
X48794Y51791D02*
X48509D01*
Y51506D01*
X48541Y51511D01*
X48626Y51546D01*
X48699Y51602D01*
X48754Y51674D01*
X48789Y51759D01*
X48794Y51791D01*
D02*
G37*
G36*
X48049Y51872D02*
X48051Y51850D01*
X48044Y51791D01*
X47356D01*
X47349Y51850D01*
X47350Y51861D01*
X47311D01*
X47299Y51872D01*
X47301Y51850D01*
X47294Y51791D01*
X47009D01*
Y51506D01*
X46950Y51499D01*
X46917Y51503D01*
Y51453D01*
X46950Y51457D01*
X47009Y51450D01*
Y51106D01*
X46891D01*
Y51450D01*
X46859Y51445D01*
X46774Y51410D01*
X46701Y51354D01*
X46646Y51282D01*
X46625Y51232D01*
X46575D01*
X46554Y51282D01*
X46498Y51354D01*
X46426Y51410D01*
X46341Y51445D01*
X46309Y51450D01*
Y51106D01*
X46191D01*
Y51450D01*
X46159Y51445D01*
X46074Y51410D01*
X46002Y51354D01*
X45946Y51282D01*
X45930Y51244D01*
X45880D01*
X45865Y51282D01*
X45809Y51354D01*
X45736Y51410D01*
X45651Y51445D01*
X45620Y51450D01*
Y51106D01*
X45501D01*
Y51450D01*
X45470Y51445D01*
X45385Y51410D01*
X45312Y51354D01*
X45256Y51282D01*
X45221Y51197D01*
X45219Y51181D01*
X45169D01*
X45167Y51199D01*
X45132Y51283D01*
X45076Y51356D01*
X45003Y51412D01*
X44918Y51447D01*
X44886Y51451D01*
Y51108D01*
X44827D01*
Y51049D01*
X44483D01*
X44488Y51017D01*
X44523Y50932D01*
X44579Y50859D01*
X44620Y50828D01*
Y50778D01*
X44577Y50745D01*
X44521Y50672D01*
X44486Y50587D01*
X44482Y50556D01*
X44826D01*
Y50497D01*
X44885D01*
Y50153D01*
X44917Y50157D01*
X45001Y50192D01*
X45074Y50248D01*
X45130Y50321D01*
X45165Y50406D01*
X45167Y50422D01*
X45217D01*
X45219Y50406D01*
X45255Y50321D01*
X45310Y50248D01*
X45383Y50192D01*
X45468Y50157D01*
X45500Y50153D01*
Y50497D01*
X45618D01*
Y50153D01*
X45650Y50157D01*
X45735Y50192D01*
X45807Y50248D01*
X45863Y50321D01*
X45879Y50358D01*
X45929D01*
X45944Y50321D01*
X46000Y50248D01*
X46073Y50192D01*
X46157Y50157D01*
X46189Y50153D01*
Y50497D01*
X46307D01*
Y50153D01*
X46339Y50157D01*
X46424Y50192D01*
X46497Y50248D01*
X46553Y50321D01*
X46573Y50371D01*
X46623D01*
X46644Y50321D01*
X46700Y50248D01*
X46773Y50192D01*
X46857Y50157D01*
X46889Y50153D01*
Y50497D01*
X46948D01*
Y50556D01*
X47292D01*
X47300Y50496D01*
X47298Y50486D01*
X47348D01*
X47347Y50496D01*
X47355Y50556D01*
X48042D01*
X48050Y50496D01*
X48048Y50486D01*
X48098D01*
X48097Y50496D01*
X48105Y50556D01*
X48792D01*
X48800Y50496D01*
X48799Y50492D01*
X48849D01*
X48849Y50496D01*
X48856Y50556D01*
X49544D01*
X49539Y50587D01*
X49504Y50672D01*
X49448Y50745D01*
X49376Y50801D01*
Y50802D01*
X49448Y50857D01*
X49504Y50930D01*
X49539Y51015D01*
X49544Y51047D01*
X48856D01*
X48849Y51106D01*
X48850Y51117D01*
X48811D01*
X48799Y51128D01*
X48801Y51106D01*
X48794Y51047D01*
X48450D01*
Y51106D01*
X48391D01*
Y51450D01*
X48450Y51457D01*
X48483Y51453D01*
Y51503D01*
X48450Y51499D01*
X48391Y51506D01*
Y51791D01*
X48106D01*
X48099Y51850D01*
X48100Y51861D01*
X48061D01*
X48049Y51872D01*
D02*
G37*
G36*
X41904Y51891D02*
X41620D01*
Y51607D01*
X41651Y51611D01*
X41736Y51646D01*
X41809Y51702D01*
X41865Y51774D01*
X41900Y51859D01*
X41904Y51891D01*
D02*
G37*
G36*
X41501D02*
X41217D01*
X41221Y51859D01*
X41256Y51774D01*
X41312Y51702D01*
X41385Y51646D01*
X41470Y51611D01*
X41501Y51607D01*
Y51891D01*
D02*
G37*
G36*
X41904Y51041D02*
X41620D01*
Y50757D01*
X41651Y50761D01*
X41736Y50796D01*
X41809Y50852D01*
X41865Y50924D01*
X41900Y51009D01*
X41904Y51041D01*
D02*
G37*
G36*
X41501D02*
X41217D01*
X41221Y51009D01*
X41256Y50924D01*
X41312Y50852D01*
X41385Y50796D01*
X41470Y50761D01*
X41501Y50757D01*
Y51041D01*
D02*
G37*
G36*
X49544Y50437D02*
X49259D01*
Y50153D01*
X49291Y50157D01*
X49376Y50192D01*
X49448Y50248D01*
X49504Y50321D01*
X49539Y50406D01*
X49544Y50437D01*
D02*
G37*
G36*
X41501Y51444D02*
X41470Y51440D01*
X41385Y51405D01*
X41312Y51349D01*
X41256Y51276D01*
X41221Y51191D01*
X41217Y51159D01*
X41501D01*
Y51444D01*
D02*
G37*
G36*
X49141Y51450D02*
X49109Y51445D01*
X49024Y51410D01*
X48952Y51354D01*
X48896Y51282D01*
X48861Y51197D01*
X48856Y51165D01*
X49141D01*
Y51450D01*
D02*
G37*
G36*
X48509D02*
Y51165D01*
X48794D01*
X48789Y51197D01*
X48754Y51282D01*
X48699Y51354D01*
X48626Y51410D01*
X48541Y51445D01*
X48509Y51450D01*
D02*
G37*
G36*
X41620Y51444D02*
Y51159D01*
X41904D01*
X41900Y51191D01*
X41865Y51276D01*
X41809Y51349D01*
X41736Y51405D01*
X41651Y51440D01*
X41620Y51444D01*
D02*
G37*
G36*
X41904Y53541D02*
X41620D01*
Y53257D01*
X41651Y53261D01*
X41736Y53296D01*
X41809Y53352D01*
X41865Y53424D01*
X41900Y53509D01*
X41904Y53541D01*
D02*
G37*
G36*
X41501Y57127D02*
X41470Y57123D01*
X41385Y57088D01*
X41312Y57032D01*
X41256Y56959D01*
X41221Y56874D01*
X41217Y56843D01*
X41501D01*
Y57127D01*
D02*
G37*
G36*
X47294Y56841D02*
X47009D01*
Y56557D01*
X47041Y56561D01*
X47126Y56596D01*
X47199Y56652D01*
X47254Y56724D01*
X47289Y56809D01*
X47294Y56841D01*
D02*
G37*
G36*
X44768D02*
X44483D01*
X44488Y56809D01*
X44523Y56724D01*
X44579Y56652D01*
X44651Y56596D01*
X44736Y56561D01*
X44768Y56557D01*
Y56841D01*
D02*
G37*
G36*
X41620Y57127D02*
Y56843D01*
X41904D01*
X41900Y56874D01*
X41865Y56959D01*
X41809Y57032D01*
X41736Y57088D01*
X41651Y57123D01*
X41620Y57127D01*
D02*
G37*
G36*
X41501Y57491D02*
X41217D01*
X41221Y57459D01*
X41256Y57374D01*
X41312Y57302D01*
X41385Y57246D01*
X41470Y57211D01*
X41501Y57207D01*
Y57491D01*
D02*
G37*
G36*
X47009Y57244D02*
Y56959D01*
X47294D01*
X47289Y56991D01*
X47254Y57076D01*
X47199Y57149D01*
X47126Y57205D01*
X47041Y57240D01*
X47009Y57244D01*
D02*
G37*
G36*
X44768D02*
X44736Y57240D01*
X44651Y57205D01*
X44579Y57149D01*
X44523Y57076D01*
X44488Y56991D01*
X44483Y56959D01*
X44768D01*
Y57244D01*
D02*
G37*
G36*
X41620Y56361D02*
Y56076D01*
X41904D01*
X41900Y56108D01*
X41865Y56193D01*
X41809Y56265D01*
X41736Y56321D01*
X41651Y56356D01*
X41620Y56361D01*
D02*
G37*
G36*
X41501D02*
X41470Y56356D01*
X41385Y56321D01*
X41312Y56265D01*
X41256Y56193D01*
X41221Y56108D01*
X41217Y56076D01*
X41501D01*
Y56361D01*
D02*
G37*
G36*
X47294Y55988D02*
X47009D01*
Y55704D01*
X47041Y55708D01*
X47126Y55743D01*
X47199Y55799D01*
X47254Y55872D01*
X47289Y55956D01*
X47294Y55988D01*
D02*
G37*
G36*
X46891Y56391D02*
X46859Y56387D01*
X46774Y56352D01*
X46701Y56296D01*
X46646Y56223D01*
X46611Y56138D01*
X46606Y56106D01*
X46891D01*
Y56391D01*
D02*
G37*
G36*
X41904Y56724D02*
X41620D01*
Y56440D01*
X41651Y56444D01*
X41736Y56479D01*
X41809Y56535D01*
X41865Y56608D01*
X41900Y56693D01*
X41904Y56724D01*
D02*
G37*
G36*
X41501D02*
X41217D01*
X41221Y56693D01*
X41256Y56608D01*
X41312Y56535D01*
X41385Y56479D01*
X41470Y56444D01*
X41501Y56440D01*
Y56724D01*
D02*
G37*
G36*
X47009Y56391D02*
Y56106D01*
X47294D01*
X47289Y56138D01*
X47254Y56223D01*
X47199Y56296D01*
X47126Y56352D01*
X47041Y56387D01*
X47009Y56391D01*
D02*
G37*
G36*
Y58694D02*
Y58409D01*
X47294D01*
X47289Y58441D01*
X47254Y58526D01*
X47199Y58598D01*
X47126Y58654D01*
X47041Y58689D01*
X47009Y58694D01*
D02*
G37*
G36*
X45620Y58694D02*
Y58350D01*
X45501D01*
Y58694D01*
X45470Y58690D01*
X45385Y58655D01*
X45312Y58599D01*
X45256Y58526D01*
X45221Y58441D01*
X45219Y58424D01*
X45169D01*
X45167Y58441D01*
X45132Y58526D01*
X45076Y58599D01*
X45003Y58655D01*
X44918Y58690D01*
X44886Y58694D01*
Y58350D01*
X44768D01*
Y58694D01*
X44736Y58690D01*
X44651Y58655D01*
X44579Y58599D01*
X44523Y58526D01*
X44488Y58441D01*
X44485Y58424D01*
X44435D01*
X44433Y58441D01*
X44398Y58526D01*
X44342Y58599D01*
X44270Y58655D01*
X44185Y58690D01*
X44153Y58694D01*
Y58350D01*
Y58007D01*
X44185Y58011D01*
X44270Y58046D01*
X44342Y58102D01*
X44398Y58174D01*
X44433Y58259D01*
X44435Y58276D01*
X44485D01*
X44488Y58259D01*
X44523Y58174D01*
X44579Y58102D01*
X44651Y58046D01*
X44701Y58025D01*
Y57975D01*
X44651Y57955D01*
X44579Y57899D01*
X44523Y57826D01*
X44488Y57741D01*
X44483Y57709D01*
X44827D01*
Y57650D01*
X44886D01*
Y57307D01*
X44827Y57299D01*
X44816Y57300D01*
Y57250D01*
X44827Y57252D01*
X44886Y57244D01*
Y56900D01*
Y56557D01*
X44918Y56561D01*
X45003Y56596D01*
X45076Y56652D01*
X45132Y56724D01*
X45167Y56809D01*
X45169Y56826D01*
X45219D01*
X45221Y56809D01*
X45256Y56724D01*
X45312Y56652D01*
X45385Y56596D01*
X45470Y56561D01*
X45501Y56557D01*
Y56900D01*
X45620D01*
Y56557D01*
X45651Y56561D01*
X45736Y56596D01*
X45809Y56652D01*
X45865Y56724D01*
X45880Y56762D01*
X45930D01*
X45946Y56724D01*
X46002Y56652D01*
X46074Y56596D01*
X46159Y56561D01*
X46191Y56557D01*
Y56900D01*
X46309D01*
Y56557D01*
X46341Y56561D01*
X46426Y56596D01*
X46498Y56652D01*
X46554Y56724D01*
X46575Y56774D01*
X46625D01*
X46646Y56724D01*
X46701Y56652D01*
X46774Y56596D01*
X46859Y56561D01*
X46891Y56557D01*
Y56900D01*
Y57244D01*
X46950Y57252D01*
X46961Y57250D01*
Y57300D01*
X46950Y57299D01*
X46891Y57307D01*
Y57650D01*
X46950D01*
Y57709D01*
X47294D01*
X47289Y57741D01*
X47254Y57826D01*
X47199Y57899D01*
X47126Y57955D01*
X47041Y57990D01*
Y58011D01*
X47126Y58046D01*
X47199Y58102D01*
X47254Y58174D01*
X47289Y58259D01*
X47294Y58291D01*
X46950D01*
Y58350D01*
X46891D01*
Y58694D01*
X46859Y58689D01*
X46774Y58654D01*
X46701Y58598D01*
X46646Y58526D01*
X46625Y58476D01*
X46575D01*
X46554Y58526D01*
X46498Y58598D01*
X46426Y58654D01*
X46341Y58689D01*
X46309Y58694D01*
Y58350D01*
X46191D01*
Y58694D01*
X46159Y58689D01*
X46074Y58654D01*
X46002Y58598D01*
X45946Y58526D01*
X45930Y58489D01*
X45880D01*
X45865Y58526D01*
X45809Y58599D01*
X45736Y58655D01*
X45651Y58690D01*
X45620Y58694D01*
D02*
G37*
G36*
X43301Y58291D02*
X43017D01*
X43021Y58259D01*
X43056Y58174D01*
X43112Y58102D01*
X43185Y58046D01*
X43270Y58011D01*
X43301Y58007D01*
Y58291D01*
D02*
G37*
G36*
X41501Y58694D02*
X41470Y58690D01*
X41385Y58655D01*
X41312Y58599D01*
X41256Y58526D01*
X41221Y58441D01*
X41217Y58409D01*
X41501D01*
Y58694D01*
D02*
G37*
G36*
X44035D02*
X44003Y58690D01*
X43918Y58655D01*
X43845Y58599D01*
X43789Y58526D01*
X43754Y58441D01*
X43752Y58424D01*
X43702D01*
X43700Y58441D01*
X43665Y58526D01*
X43609Y58599D01*
X43536Y58655D01*
X43451Y58690D01*
X43420Y58694D01*
Y58350D01*
Y58007D01*
X43451Y58011D01*
X43536Y58046D01*
X43609Y58102D01*
X43665Y58174D01*
X43700Y58259D01*
X43702Y58276D01*
X43752D01*
X43754Y58259D01*
X43789Y58174D01*
X43845Y58102D01*
X43918Y58046D01*
X44003Y58011D01*
X44035Y58007D01*
Y58350D01*
Y58694D01*
D02*
G37*
G36*
X43301D02*
X43270Y58690D01*
X43185Y58655D01*
X43112Y58599D01*
X43056Y58526D01*
X43021Y58441D01*
X43017Y58409D01*
X43301D01*
Y58694D01*
D02*
G37*
G36*
X41620D02*
Y58409D01*
X41904D01*
X41900Y58441D01*
X41865Y58526D01*
X41809Y58599D01*
X41736Y58655D01*
X41651Y58690D01*
X41620Y58694D01*
D02*
G37*
G36*
X47294Y57591D02*
X47009D01*
Y57307D01*
X47041Y57311D01*
X47126Y57346D01*
X47199Y57402D01*
X47254Y57474D01*
X47289Y57559D01*
X47294Y57591D01*
D02*
G37*
G36*
X44768D02*
X44483D01*
X44488Y57559D01*
X44523Y57474D01*
X44579Y57402D01*
X44651Y57346D01*
X44736Y57311D01*
X44768Y57307D01*
Y57591D01*
D02*
G37*
G36*
X41904Y57491D02*
X41620D01*
Y57207D01*
X41651Y57211D01*
X41736Y57246D01*
X41809Y57302D01*
X41865Y57374D01*
X41900Y57459D01*
X41904Y57491D01*
D02*
G37*
G36*
X41501Y57894D02*
X41470Y57890D01*
X41385Y57855D01*
X41312Y57799D01*
X41256Y57726D01*
X41221Y57641D01*
X41217Y57609D01*
X41501D01*
Y57894D01*
D02*
G37*
G36*
X41904Y58291D02*
X41620D01*
Y58007D01*
X41651Y58011D01*
X41736Y58046D01*
X41809Y58102D01*
X41865Y58174D01*
X41900Y58259D01*
X41904Y58291D01*
D02*
G37*
G36*
X41501D02*
X41217D01*
X41221Y58259D01*
X41256Y58174D01*
X41312Y58102D01*
X41385Y58046D01*
X41470Y58011D01*
X41501Y58007D01*
Y58291D01*
D02*
G37*
G36*
X41620Y57894D02*
Y57609D01*
X41904D01*
X41900Y57641D01*
X41865Y57726D01*
X41809Y57799D01*
X41736Y57855D01*
X41651Y57890D01*
X41620Y57894D01*
D02*
G37*
G36*
X46891Y55988D02*
X46606D01*
X46611Y55956D01*
X46646Y55872D01*
X46701Y55799D01*
X46774Y55743D01*
X46859Y55708D01*
X46891Y55704D01*
Y55988D01*
D02*
G37*
G36*
X46191Y54282D02*
X45906D01*
X45911Y54250D01*
X45946Y54166D01*
X46002Y54093D01*
X46074Y54037D01*
X46159Y54002D01*
X46191Y53998D01*
Y54282D01*
D02*
G37*
G36*
X48509Y53984D02*
Y53700D01*
X48794D01*
X48789Y53732D01*
X48754Y53816D01*
X48699Y53889D01*
X48626Y53945D01*
X48541Y53980D01*
X48509Y53984D01*
D02*
G37*
G36*
X48391D02*
X48359Y53980D01*
X48274Y53945D01*
X48201Y53889D01*
X48146Y53816D01*
X48111Y53732D01*
X48106Y53700D01*
X48391D01*
Y53984D01*
D02*
G37*
G36*
X47294Y54282D02*
X47009D01*
Y53998D01*
X47041Y54002D01*
X47126Y54037D01*
X47199Y54093D01*
X47254Y54166D01*
X47289Y54250D01*
X47294Y54282D01*
D02*
G37*
G36*
X46891Y54685D02*
X46859Y54681D01*
X46774Y54646D01*
X46701Y54590D01*
X46646Y54517D01*
X46625Y54467D01*
X46575D01*
X46554Y54517D01*
X46498Y54590D01*
X46426Y54646D01*
X46341Y54681D01*
X46309Y54685D01*
Y54341D01*
Y53998D01*
X46341Y54002D01*
X46426Y54037D01*
X46498Y54093D01*
X46554Y54166D01*
X46575Y54215D01*
X46625D01*
X46646Y54166D01*
X46701Y54093D01*
X46774Y54037D01*
X46859Y54002D01*
X46891Y53998D01*
Y54341D01*
Y54685D01*
D02*
G37*
G36*
X47009D02*
Y54400D01*
X47294D01*
X47289Y54432D01*
X47254Y54517D01*
X47199Y54590D01*
X47126Y54646D01*
X47041Y54681D01*
X47009Y54685D01*
D02*
G37*
G36*
X46191D02*
X46159Y54681D01*
X46074Y54646D01*
X46002Y54590D01*
X45946Y54517D01*
X45911Y54432D01*
X45906Y54400D01*
X46191D01*
Y54685D01*
D02*
G37*
G36*
Y53832D02*
X46159Y53828D01*
X46074Y53793D01*
X46002Y53737D01*
X45946Y53664D01*
X45911Y53579D01*
X45906Y53547D01*
X46191D01*
Y53832D01*
D02*
G37*
G36*
X48794Y53582D02*
X48509D01*
Y53297D01*
X48541Y53301D01*
X48626Y53336D01*
X48699Y53392D01*
X48754Y53465D01*
X48789Y53550D01*
X48794Y53582D01*
D02*
G37*
G36*
X48391D02*
X48106D01*
X48111Y53550D01*
X48146Y53465D01*
X48201Y53392D01*
X48274Y53336D01*
X48359Y53301D01*
X48391Y53297D01*
Y53582D01*
D02*
G37*
G36*
X47009Y53832D02*
Y53547D01*
X47294D01*
X47289Y53579D01*
X47254Y53664D01*
X47199Y53737D01*
X47126Y53793D01*
X47041Y53828D01*
X47009Y53832D01*
D02*
G37*
G36*
X41620Y53944D02*
Y53659D01*
X41904D01*
X41900Y53691D01*
X41865Y53776D01*
X41809Y53849D01*
X41736Y53905D01*
X41651Y53940D01*
X41620Y53944D01*
D02*
G37*
G36*
X41501D02*
X41470Y53940D01*
X41385Y53905D01*
X41312Y53849D01*
X41256Y53776D01*
X41221Y53691D01*
X41217Y53659D01*
X41501D01*
Y53944D01*
D02*
G37*
G36*
X46891Y53832D02*
X46859Y53828D01*
X46774Y53793D01*
X46701Y53737D01*
X46646Y53664D01*
X46625Y53614D01*
X46575D01*
X46554Y53664D01*
X46498Y53737D01*
X46426Y53793D01*
X46341Y53828D01*
X46309Y53832D01*
Y53488D01*
Y53145D01*
X46341Y53149D01*
X46426Y53184D01*
X46498Y53240D01*
X46554Y53313D01*
X46575Y53363D01*
X46625D01*
X46646Y53313D01*
X46701Y53240D01*
X46774Y53184D01*
X46859Y53149D01*
X46891Y53145D01*
Y53488D01*
Y53832D01*
D02*
G37*
G36*
X41620Y55594D02*
Y55309D01*
X41904D01*
X41900Y55341D01*
X41865Y55426D01*
X41809Y55499D01*
X41736Y55555D01*
X41651Y55590D01*
X41620Y55594D01*
D02*
G37*
G36*
X41501D02*
X41470Y55590D01*
X41385Y55555D01*
X41312Y55499D01*
X41256Y55426D01*
X41221Y55341D01*
X41217Y55309D01*
X41501D01*
Y55594D01*
D02*
G37*
G36*
X47009Y55538D02*
Y55253D01*
X47294D01*
X47289Y55285D01*
X47254Y55370D01*
X47199Y55443D01*
X47126Y55499D01*
X47041Y55534D01*
X47009Y55538D01*
D02*
G37*
G36*
X49507Y55819D02*
X49475Y55815D01*
X49390Y55780D01*
X49317Y55724D01*
X49261Y55651D01*
X49226Y55567D01*
X49222Y55535D01*
X49507D01*
Y55819D01*
D02*
G37*
G36*
X41904Y55958D02*
X41620D01*
Y55673D01*
X41651Y55677D01*
X41736Y55713D01*
X41809Y55768D01*
X41865Y55841D01*
X41900Y55926D01*
X41904Y55958D01*
D02*
G37*
G36*
X41501D02*
X41217D01*
X41221Y55926D01*
X41256Y55841D01*
X41312Y55768D01*
X41385Y55713D01*
X41470Y55677D01*
X41501Y55673D01*
Y55958D01*
D02*
G37*
G36*
X49625Y55819D02*
Y55535D01*
X49909D01*
X49905Y55567D01*
X49870Y55651D01*
X49814Y55724D01*
X49741Y55780D01*
X49657Y55815D01*
X49625Y55819D01*
D02*
G37*
G36*
X41501Y55191D02*
X41217D01*
X41221Y55159D01*
X41256Y55074D01*
X41312Y55002D01*
X41385Y54946D01*
X41470Y54911D01*
X41501Y54907D01*
Y55191D01*
D02*
G37*
G36*
X47294Y55135D02*
X47009D01*
Y54851D01*
X47041Y54855D01*
X47126Y54890D01*
X47199Y54946D01*
X47254Y55019D01*
X47289Y55103D01*
X47294Y55135D01*
D02*
G37*
G36*
X46891D02*
X46606D01*
X46611Y55103D01*
X46646Y55019D01*
X46701Y54946D01*
X46774Y54890D01*
X46859Y54855D01*
X46891Y54851D01*
Y55135D01*
D02*
G37*
G36*
X41904Y55191D02*
X41620D01*
Y54907D01*
X41651Y54911D01*
X41736Y54946D01*
X41809Y55002D01*
X41865Y55074D01*
X41900Y55159D01*
X41904Y55191D01*
D02*
G37*
G36*
X46891Y55538D02*
X46859Y55534D01*
X46774Y55499D01*
X46701Y55443D01*
X46646Y55370D01*
X46611Y55285D01*
X46606Y55253D01*
X46891D01*
Y55538D01*
D02*
G37*
G36*
X49909Y55417D02*
X49625D01*
Y55132D01*
X49657Y55136D01*
X49741Y55171D01*
X49814Y55227D01*
X49870Y55300D01*
X49905Y55385D01*
X49909Y55417D01*
D02*
G37*
G36*
X49507D02*
X49222D01*
X49226Y55385D01*
X49261Y55300D01*
X49317Y55227D01*
X49390Y55171D01*
X49475Y55136D01*
X49507Y55132D01*
Y55417D01*
D02*
G37*
%LPD*%
D10*
X50700Y63800D02*
D03*
Y64430D02*
D03*
X27556Y32995D02*
D03*
Y32365D02*
D03*
X26556Y32415D02*
D03*
Y33045D02*
D03*
X27850Y64690D02*
D03*
Y64060D02*
D03*
X28848Y64690D02*
D03*
Y64060D02*
D03*
X29846Y64690D02*
D03*
Y64060D02*
D03*
X48307Y67244D02*
D03*
Y67874D02*
D03*
X46400Y36591D02*
D03*
Y35961D02*
D03*
X47475Y36000D02*
D03*
Y36630D02*
D03*
X48550Y36591D02*
D03*
Y35961D02*
D03*
X47600Y32400D02*
D03*
Y33030D02*
D03*
X48600Y32400D02*
D03*
Y33030D02*
D03*
X42700Y33115D02*
D03*
Y32485D02*
D03*
X33503Y48736D02*
D03*
Y48106D02*
D03*
X35330Y48736D02*
D03*
Y48106D02*
D03*
X34142Y54713D02*
D03*
Y55343D02*
D03*
X32880Y54713D02*
D03*
Y55343D02*
D03*
X35730Y54713D02*
D03*
Y55343D02*
D03*
X37980Y56090D02*
D03*
Y55460D02*
D03*
X33320Y63012D02*
D03*
Y63642D02*
D03*
X43700Y33115D02*
D03*
Y32485D02*
D03*
D11*
X23650Y48900D02*
D03*
X23020D02*
D03*
X44650Y34900D02*
D03*
X45280D02*
D03*
X46550D02*
D03*
X47180D02*
D03*
X43102Y37547D02*
D03*
X42472D02*
D03*
X46300Y40900D02*
D03*
X45670D02*
D03*
X46300Y41950D02*
D03*
X45670D02*
D03*
X23650Y49900D02*
D03*
X23020D02*
D03*
X37031Y53400D02*
D03*
X37661D02*
D03*
X37031Y51809D02*
D03*
X37661D02*
D03*
X30880Y50340D02*
D03*
X30250D02*
D03*
X30880Y51812D02*
D03*
X30250D02*
D03*
X37031Y50640D02*
D03*
X37661D02*
D03*
X30880Y53190D02*
D03*
X30250D02*
D03*
X30880Y48640D02*
D03*
X30250D02*
D03*
X39055Y57874D02*
D03*
X39685D02*
D03*
X37504D02*
D03*
X38134D02*
D03*
X31861Y65515D02*
D03*
X31232D02*
D03*
X25218Y58000D02*
D03*
X25848D02*
D03*
D12*
X23367Y58183D02*
D03*
Y56215D02*
D03*
D13*
X31384Y34250D02*
D03*
X29416D02*
D03*
D14*
X28819Y42900D02*
D03*
X24881D02*
D03*
D15*
X31500Y38237D02*
D03*
Y40363D02*
D03*
D16*
X32217Y53503D02*
X32530Y53190D01*
X31643Y53500D02*
X31965D01*
X32530Y51640D02*
Y53190D01*
X25427Y64073D02*
X27837D01*
X24850Y64650D02*
X25427Y64073D01*
X21117Y63617D02*
X21550Y64050D01*
X21117Y60831D02*
Y63617D01*
Y60831D02*
X21647Y60300D01*
X21100Y47150D02*
X21118Y47168D01*
X22210Y52940D02*
X22269Y52881D01*
X35430Y52490D02*
Y53200D01*
X36831D01*
X37031Y53400D01*
Y54581D02*
X37100Y54650D01*
X37031Y53400D02*
Y54581D01*
X37100Y54650D02*
Y54900D01*
X32530Y53190D02*
X32580Y53240D01*
X35030D02*
X35430D01*
X33380D02*
Y53640D01*
X32568Y50751D02*
X32580Y50740D01*
X44050Y31200D02*
X45880Y33030D01*
X47600D01*
X48600D01*
X28750Y40200D02*
X29350D01*
X28848Y64060D02*
X29846D01*
X27850D02*
X28848D01*
X43726Y35926D02*
X44650D01*
Y34900D02*
Y35926D01*
X49550Y30850D02*
Y34312D01*
X49862Y34000D01*
X50200D01*
X53324Y39700D02*
X53350D01*
X51750Y65000D02*
X52382D01*
X49076Y67874D02*
X49650Y67300D01*
X21900Y50900D02*
X23600D01*
X21100Y44550D02*
Y47150D01*
X21600Y46650D01*
X32580Y50428D02*
Y50450D01*
X35730Y50640D02*
X35742Y50628D01*
X35430Y50640D02*
Y52490D01*
Y50640D02*
X35730D01*
X27837Y64073D02*
X27850Y64060D01*
X21647Y60300D02*
X21900D01*
X21550Y64050D02*
X24250D01*
X24850Y64650D01*
X48307Y67874D02*
X49076D01*
X43250Y68376D02*
X43693Y68819D01*
X44350Y68169D02*
X47264D01*
X43693Y68819D02*
X49488D01*
X46378Y67000D02*
X46650D01*
X46894Y67244D01*
X48307D01*
X25100Y45950D02*
X25250Y46100D01*
X33566Y66581D02*
Y68153D01*
X24935Y58000D02*
X25218D01*
X24920Y58016D02*
X24935Y58000D01*
X24920Y58016D02*
Y58808D01*
X24714Y59014D02*
X24920Y58808D01*
X49650Y66810D02*
X51460Y65000D01*
X49650Y66810D02*
Y67300D01*
X51460Y65000D02*
X51750D01*
X52382D02*
X53350Y64032D01*
X22210Y52940D02*
Y55187D01*
X21594D02*
X22210D01*
X21124Y55657D02*
X21594Y55187D01*
X27556Y39006D02*
X28750Y40200D01*
X27556Y32995D02*
Y39006D01*
X46378Y60394D02*
Y67000D01*
X40472Y58976D02*
X40945Y59449D01*
X40472Y57598D02*
Y58976D01*
X40945Y59449D02*
X45433D01*
X46378Y60394D01*
X21118Y47168D02*
Y60787D01*
X31198Y56755D02*
X31643Y56311D01*
X28236Y56755D02*
X31198D01*
X30994Y53503D02*
X31643D01*
X32217D01*
X31643Y53500D02*
Y53503D01*
Y56311D01*
X32580Y53240D02*
X33380D01*
X35030D01*
X35430Y53200D02*
Y53240D01*
X28249Y60313D02*
X28276Y60340D01*
X26820Y60313D02*
X28249D01*
X25250Y46100D02*
Y48352D01*
X21600Y46650D02*
X22450D01*
X22210Y55187D02*
X24935Y57913D01*
Y58000D01*
X44650Y35926D02*
X49550D01*
X53350Y39700D02*
Y64032D01*
X43250Y67350D02*
Y68376D01*
D17*
X30880Y53389D02*
X30994Y53503D01*
X31700Y52600D02*
X31900Y52800D01*
X45900Y34250D02*
X46550Y34900D01*
X45280Y34870D02*
X45900Y34250D01*
X47180Y34900D02*
X48250D01*
X44050Y42300D02*
X44750Y41600D01*
X43300D02*
X44750D01*
X33780Y49706D02*
X34380Y49106D01*
X32880Y54140D02*
Y54713D01*
Y54140D02*
X33380Y53640D01*
X35730Y54030D02*
Y54713D01*
X35742Y50628D02*
X37019D01*
X37661Y53400D02*
X38935D01*
X33780Y49706D02*
Y50190D01*
X34148Y53874D02*
Y54713D01*
X50260Y35677D02*
Y36976D01*
X38935Y53400D02*
X39185Y53150D01*
X46350Y31200D02*
Y32000D01*
X46750Y32400D01*
X47600D01*
X48600Y31200D02*
Y32400D01*
X32500Y32200D02*
X33359D01*
X34351Y31208D01*
X32376Y47411D02*
X33071Y48106D01*
X33503D01*
X30500Y52600D02*
X31700D01*
X38140Y50640D02*
X39516Y49264D01*
X36100Y52550D02*
X37344D01*
X37661Y50640D02*
X38140D01*
X37661Y51809D02*
Y52233D01*
X37344Y52550D02*
X37661Y52233D01*
X32773Y49745D02*
X33503Y49015D01*
Y48736D02*
Y49015D01*
X30880Y53190D02*
Y53389D01*
X36242Y51809D02*
X37031D01*
X36063Y51630D02*
X36242Y51809D01*
X25900Y33050D02*
X26551D01*
X25650Y33300D02*
X25900Y33050D01*
X42800Y41100D02*
X43300Y41600D01*
X42472Y37547D02*
Y37972D01*
X42800Y38350D02*
Y41100D01*
X42472Y37972D02*
X42850Y38350D01*
X43450D01*
X43936Y42300D02*
X44050D01*
X42965Y43272D02*
X43936Y42300D01*
X42965Y43272D02*
Y43783D01*
X43752Y43791D02*
Y44579D01*
X32376Y46963D02*
Y47411D01*
X30836Y45423D02*
X32376Y46963D01*
D18*
X35315Y55935D02*
X36332D01*
X34660Y56589D02*
X35315Y55935D01*
X34659Y56589D02*
X34660D01*
X34648Y56600D02*
X34659Y56589D01*
X34576Y56385D02*
X35287Y55673D01*
X36396D01*
X35243Y57206D02*
X36406D01*
X35010Y57439D02*
X35243Y57206D01*
X35176Y56983D02*
X36724D01*
X34925Y57235D02*
X35176Y56983D01*
X35319Y56551D02*
X36003D01*
X34840Y57030D02*
X35319Y56551D01*
X35441Y56140D02*
X36219D01*
X34756Y56825D02*
X35441Y56140D01*
X26850Y58846D02*
Y58850D01*
X40421Y47112D02*
X41121Y46413D01*
X23057Y57873D02*
X23367Y58183D01*
X23057Y57569D02*
Y57873D01*
X21793Y56306D02*
X23057Y57569D01*
X21793Y52331D02*
X22152Y51972D01*
X24576D01*
X25875Y50674D01*
Y48754D02*
Y50674D01*
Y48754D02*
X26330Y48298D01*
X36219Y56140D02*
X36961Y56882D01*
X36724Y56983D02*
X36827Y57087D01*
X36406Y57206D02*
X36500Y57300D01*
X37120Y45830D02*
Y47915D01*
X44600Y43650D02*
X44650Y43600D01*
X46250D01*
X37980Y54640D02*
X38030Y54590D01*
X35600Y53900D02*
X35730Y54030D01*
X37019Y50628D02*
X37031Y50640D01*
X37980Y54640D02*
Y55460D01*
X41250Y51950D02*
X41560D01*
X31844Y50725D02*
X31880Y50690D01*
X33503Y48106D02*
X33508D01*
X32100Y50150D02*
X32580Y50630D01*
X35406Y55382D02*
X35494D01*
X39685Y57665D02*
Y57874D01*
X26700Y58846D02*
X26850D01*
X36500Y57300D02*
Y57650D01*
X26850Y57950D02*
X26950D01*
X36332Y55935D02*
X37074Y56677D01*
X36396Y55673D02*
X37195Y56472D01*
X37074Y56677D02*
X40308D01*
X36961Y56882D02*
X40393D01*
X36827Y57087D02*
X41257D01*
X37195Y56472D02*
X40038D01*
X41257Y57087D02*
X41560Y56784D01*
X40393Y56882D02*
X40858Y56417D01*
X40528Y53210D02*
X40858Y53540D01*
Y56417D01*
X40622Y53750D02*
Y56363D01*
X40308Y56677D02*
X40622Y56363D01*
X40021Y53959D02*
X40369Y54307D01*
Y56141D01*
X40038Y56472D02*
X40369Y56141D01*
X40528Y52820D02*
Y53210D01*
X39862Y52990D02*
X40622Y53750D01*
X39823Y53028D02*
X39862Y52990D01*
X22269Y52881D02*
Y53163D01*
X23367Y56215D02*
X23841Y55741D01*
X24388Y52514D02*
Y52659D01*
Y52514D02*
X26501Y50402D01*
X40456Y52074D02*
X40876Y51653D01*
Y47250D02*
Y51653D01*
Y47250D02*
X41403Y46723D01*
X40421Y47112D02*
Y51327D01*
X37120Y45830D02*
X38650Y44300D01*
X33910Y57650D02*
X35400D01*
X33859Y57439D02*
X35010D01*
X33601Y56385D02*
X34576D01*
X33647Y56600D02*
X34648D01*
X33684Y56825D02*
X34756D01*
X33741Y57030D02*
X34840D01*
X33798Y57235D02*
X34925D01*
X26850Y57950D02*
X26855Y57955D01*
X26560Y53019D02*
X26725D01*
X26630Y52318D02*
X28271Y53959D01*
X29279Y50393D02*
Y51461D01*
X29552Y51735D01*
X27789Y48961D02*
X27848D01*
X29279Y50393D01*
X26501Y50402D02*
X27868D01*
X32057Y57929D02*
X33601Y56385D01*
X32133Y58114D02*
X33647Y56600D01*
X32210Y58299D02*
X33684Y56825D01*
X32287Y58484D02*
X33741Y57030D01*
X26850Y59464D02*
X32096D01*
X33910Y57650D01*
X32850Y59775D02*
X34344D01*
X29759Y62156D02*
X30470D01*
X32850Y59775D01*
X26855Y57955D02*
X27098D01*
X28204Y56018D02*
X28251Y56065D01*
X24388Y52659D02*
X24413D01*
X24568Y55041D02*
X26808D01*
X24330Y54803D02*
X24568Y55041D01*
X24330Y53922D02*
Y54803D01*
X24787Y54599D02*
X26656D01*
X24770Y54616D02*
X24787Y54599D01*
X50700Y60300D02*
X51250Y59750D01*
X51750Y59300D02*
Y59900D01*
X50700Y60950D02*
X51750Y59900D01*
X50700Y60950D02*
Y61050D01*
X41403Y43947D02*
Y46723D01*
Y43947D02*
X41550Y43800D01*
X41900D01*
X41121Y43679D02*
Y46413D01*
Y43679D02*
X41450Y43350D01*
Y43000D02*
Y43350D01*
X39383Y43800D02*
X39721Y44138D01*
X34642Y46308D02*
Y46504D01*
X38350Y43800D02*
X39383D01*
X34642Y46308D02*
X36185Y44765D01*
X38316Y43484D02*
X40294D01*
X35400Y45950D02*
Y46250D01*
X33925Y46625D02*
Y46941D01*
Y46625D02*
X36450Y44100D01*
X37700Y43650D02*
X38350Y43000D01*
X38800D01*
X33051Y46699D02*
Y47232D01*
Y46699D02*
X36600Y43150D01*
X37550D01*
X33508Y46592D02*
X36450Y43650D01*
X37700D01*
X36450Y44100D02*
X37050D01*
X35400Y45950D02*
X36400Y44950D01*
X37200D01*
X38350Y43800D01*
X37035Y44765D02*
X38316Y43484D01*
X36185Y44765D02*
X37035D01*
X26656Y54599D02*
X27546Y55489D01*
X26808Y55041D02*
X27361Y55594D01*
X26725Y53019D02*
X29056Y55350D01*
X28251Y56065D02*
X30767D01*
X28271Y53959D02*
X29783D01*
X29056Y55350D02*
X30756D01*
X32444Y58854D02*
X33859Y57439D01*
X32363Y58669D02*
X33798Y57235D01*
X27098Y57955D02*
X27812Y58669D01*
X32363D01*
X26650Y56250D02*
X26754Y56146D01*
X26850Y58850D02*
X27731D01*
X27735Y58854D01*
X32444D01*
X26754Y56146D02*
X26991Y56383D01*
X26650Y55573D02*
X27176Y56099D01*
X25783Y55482D02*
Y56197D01*
X26991Y56383D02*
Y57144D01*
X27176Y56099D02*
Y57067D01*
X27361Y55594D02*
Y56990D01*
X27546Y55489D02*
Y56914D01*
X27731Y55385D02*
Y56837D01*
X25783Y56197D02*
X26881Y57296D01*
Y57881D01*
X28331Y58484D02*
X32287D01*
X28408Y58299D02*
X32210D01*
X28484Y58114D02*
X32133D01*
X28561Y57929D02*
X32057D01*
X28332Y57438D02*
X30968D01*
X26991Y57144D02*
X28331Y58484D01*
X27176Y57067D02*
X28408Y58299D01*
X27361Y56990D02*
X28484Y58114D01*
X27546Y56914D02*
X28561Y57929D01*
X27731Y56837D02*
X28332Y57438D01*
X50750Y58300D02*
X51250Y58800D01*
Y59722D01*
X31669Y47289D02*
Y47579D01*
X26362Y46291D02*
X30671D01*
X31669Y47289D01*
X33508Y46592D02*
Y48106D01*
X26165Y53819D02*
X27731Y55385D01*
X26881Y57881D02*
X26950Y57950D01*
X39516Y49094D02*
Y49264D01*
D19*
X26001Y61589D02*
X26331Y61919D01*
Y62001D01*
X49461Y41712D02*
Y44665D01*
X26328Y65308D02*
Y67011D01*
X25080Y56582D02*
X25589Y57091D01*
X26328Y65308D02*
X26760Y64876D01*
X27834D01*
X24105Y62001D02*
X26331D01*
X23838Y61734D02*
X24105Y62001D01*
X23838Y61077D02*
Y61734D01*
X49461Y40868D02*
Y41712D01*
X48405Y39811D02*
X49461Y40868D01*
X36229Y45894D02*
Y49414D01*
X36693Y32883D02*
X39502Y35692D01*
X25589Y57091D02*
X26001Y57503D01*
Y61589D01*
X39502Y35692D02*
Y35751D01*
Y40548D01*
X30836Y45423D02*
X33809Y42450D01*
X30831Y45429D02*
X30836Y45423D01*
X26364D02*
X30836D01*
X38901Y35150D02*
X39502Y35751D01*
X37150Y35150D02*
X38901D01*
X36450Y34450D02*
X37150Y35150D01*
X33500Y34450D02*
X36450D01*
X36693Y31200D02*
Y32883D01*
X39402Y40548D02*
X39502D01*
X38750Y41200D02*
X39402Y40548D01*
X36550Y41200D02*
X38750D01*
X33809Y42450D02*
X34559Y41700D01*
X36050D01*
X36550Y41200D01*
D20*
X23031Y62069D02*
X23939Y62977D01*
X45670Y38350D02*
Y40900D01*
Y37530D02*
Y38350D01*
X45500D02*
X45670D01*
X45200Y38650D02*
X45500Y38350D01*
X45670Y37530D02*
X46500Y36700D01*
X45670Y40900D02*
Y41950D01*
X51750Y61750D02*
X52400D01*
X30900Y63950D02*
Y64400D01*
X30450Y64850D02*
X30900Y64400D01*
X21900Y48900D02*
X23020D01*
X52400Y61750D02*
X52642Y61508D01*
X47496Y36700D02*
Y37449D01*
X52642Y39942D02*
Y61508D01*
X51861Y39161D02*
X52642Y39942D01*
X40850Y34300D02*
X43250Y36700D01*
X34200Y36900D02*
X37400D01*
X21900Y47900D02*
X23600D01*
X21900Y49900D02*
X23020D01*
X21900Y59300D02*
X22420D01*
X23031Y59910D01*
Y62069D01*
X31861Y65515D02*
Y65841D01*
X32156Y66135D01*
Y66490D01*
X29846Y64850D02*
X30450D01*
X46500Y36700D02*
X47496D01*
X22269Y52881D02*
X23302Y53915D01*
X49201Y39161D02*
X51861D01*
X47496Y37449D02*
X49209Y39161D01*
X43250Y36700D02*
X46500D01*
X23302Y53915D02*
X26069D01*
X26160Y53824D01*
X33100Y36900D02*
X34200D01*
X26909Y62977D02*
X27186Y63254D01*
X23939Y62977D02*
X26909D01*
X32700Y36500D02*
X33100Y36900D01*
X32700Y35566D02*
Y36500D01*
X31384Y34250D02*
X32700Y35566D01*
X37950Y36350D02*
Y36500D01*
X37400Y36900D02*
X37950Y36350D01*
D21*
X20502Y63852D02*
X21291Y64641D01*
X23441D02*
X23996Y65196D01*
X21291Y64641D02*
X23441D01*
X25550Y32500D02*
X25705Y32345D01*
X24800Y30850D02*
X25148Y30502D01*
X29202D01*
X32202D01*
X29202D02*
X29500Y30800D01*
Y31200D01*
X32202Y30502D02*
X32500Y30800D01*
Y31200D01*
X32202Y30502D02*
X35052D01*
X35351Y30801D02*
Y31208D01*
X35052Y30502D02*
X35351Y30801D01*
X38700Y31200D02*
Y31700D01*
X39150Y32150D01*
X39950D01*
X40950Y33100D02*
X42685D01*
X42700Y33115D01*
X43700D01*
X45000Y30502D02*
Y30850D01*
Y30502D02*
X47000D01*
X45000Y30850D02*
X45350Y31200D01*
X47000Y30502D02*
X47600Y31102D01*
X47000Y30502D02*
X49202D01*
X47600Y31102D02*
Y31200D01*
X49202Y30502D02*
X49550Y30850D01*
Y34312D02*
Y35926D01*
X52059Y38465D02*
X52351Y38756D01*
X52381D01*
X53324Y39700D01*
X49550Y35926D02*
Y37794D01*
X50220Y38465D01*
X52059D01*
X24800Y30850D02*
Y33250D01*
X23500Y34550D02*
X24800Y33250D01*
X21650Y34550D02*
X23500D01*
X21100Y35100D02*
X21650Y34550D01*
X21100Y35100D02*
Y44550D01*
X38180Y30502D02*
X45000D01*
X35052D02*
X35950D01*
X38180D01*
X35950D02*
Y30586D01*
X20502Y34295D02*
X20744Y34053D01*
X25705Y32345D02*
X27556D01*
X20502Y34295D02*
Y63852D01*
X35950Y30586D02*
X36632Y31268D01*
X38180Y30502D02*
X38789Y31111D01*
X39950Y32150D02*
X43726Y35926D01*
D22*
X39621Y55180D02*
Y55808D01*
X39339Y56090D02*
X39621Y55808D01*
X37980Y56090D02*
X39339D01*
X39823Y53028D02*
Y53360D01*
X39392Y53791D02*
X39823Y53360D01*
X39392Y53791D02*
Y54550D01*
X39621Y54778D01*
X40070Y49648D02*
Y50441D01*
X39823Y50687D02*
X40070Y50441D01*
X39823Y50687D02*
Y53028D01*
X34380Y49106D02*
X34960D01*
X35330Y48736D01*
X30880Y51812D02*
X31830D01*
X47606Y36591D02*
X48550D01*
X43700Y32200D02*
Y32485D01*
X43400Y31900D02*
X43700Y32200D01*
X42250Y31900D02*
X43400D01*
X42050Y31700D02*
X42250Y31900D01*
X42050Y31200D02*
Y31700D01*
X43803Y37547D02*
X43900Y37450D01*
X35330Y48106D02*
X35780D01*
X36030Y48356D01*
Y49706D01*
X47496Y36700D02*
X47606Y36591D01*
X36635Y55300D02*
X37424Y56090D01*
X36030Y49706D02*
X36594D01*
X37206Y49094D01*
X39516D02*
X40070Y49648D01*
X37424Y56090D02*
X37980D01*
X39621Y54778D02*
Y55180D01*
X30968Y57438D02*
X32040D01*
X32377Y57101D01*
Y55663D02*
Y57101D01*
Y55663D02*
X32740Y55300D01*
X36635D01*
X37206Y49094D02*
X39516D01*
D23*
X30800Y41550D02*
Y42550D01*
X24881Y42172D02*
Y42900D01*
X24300Y41591D02*
X24881Y42172D01*
X29416Y34250D02*
Y35666D01*
X31550Y37350D02*
Y38100D01*
X29400Y35650D02*
X29416Y35666D01*
X26650Y39900D02*
Y42600D01*
X26950Y42900D01*
X28819D01*
X24881D02*
Y43798D01*
X30800Y42550D02*
Y43434D01*
Y40600D02*
Y41550D01*
Y40600D02*
X31200Y40200D01*
X34150D01*
X34400Y39950D01*
X29894Y44340D02*
X30800Y43434D01*
X24881Y43798D02*
X25424Y44340D01*
X29894D01*
X24300Y41100D02*
Y41591D01*
X23620Y40420D02*
X24300Y41100D01*
X22880Y40420D02*
X23620D01*
D24*
X23600Y50900D02*
X24900D01*
X25250Y50550D01*
Y48100D02*
Y50550D01*
X33542Y50428D02*
X33780Y50190D01*
X32480Y51590D02*
X32530Y51640D01*
X32568Y51678D01*
X33167Y51026D02*
Y52583D01*
Y51026D02*
X34744D01*
Y52603D01*
X33187D02*
X34744D01*
X30880Y48640D02*
Y48750D01*
X32580Y50450D01*
Y50630D01*
Y50740D01*
X34830Y50406D02*
Y50428D01*
X30880Y47830D02*
Y48640D01*
X32580Y50428D02*
X33542D01*
X32568Y50751D02*
Y51678D01*
X33542Y50428D02*
X34830D01*
X25250Y48352D02*
X26933Y46669D01*
X29719D01*
X30880Y47830D01*
D25*
X24400Y47350D02*
Y48250D01*
X23750Y48900D02*
X24400Y48250D01*
X31700Y50150D02*
X32100D01*
X31510Y50340D02*
X31700Y50150D01*
X30880Y50340D02*
X31510D01*
X30250Y48640D02*
Y50340D01*
X33508Y48106D02*
X35330D01*
X30250Y52850D02*
Y53190D01*
Y52850D02*
X30500Y52600D01*
X43102Y37547D02*
X43803D01*
X43900Y37450D02*
X44450D01*
X23650Y48900D02*
Y49900D01*
X22450Y46600D02*
X23650D01*
X24400Y47350D01*
X39826Y57376D02*
X39961Y57241D01*
X30250Y51812D02*
Y52350D01*
X30500Y52600D01*
X39826Y57376D02*
Y57524D01*
X39685Y57665D02*
X39826Y57524D01*
X29949Y48640D02*
X30250D01*
X29436Y48126D02*
X29949Y48640D01*
X29436Y48102D02*
Y48126D01*
X33333Y63642D02*
Y64652D01*
Y63603D02*
Y63642D01*
X30250Y50340D02*
Y50648D01*
D26*
X27254Y49496D02*
X27486Y49728D01*
X27254Y47504D02*
Y49496D01*
X27150Y47400D02*
X27254Y47504D01*
X29846Y64850D02*
Y64946D01*
Y64690D02*
Y64850D01*
X28848Y64690D02*
X29846D01*
Y64946D02*
X29850Y64950D01*
X30880Y51430D02*
Y51812D01*
X41385Y32485D02*
X42700D01*
X41050Y32150D02*
X41385Y32485D01*
X41050Y31200D02*
Y32150D01*
X30633Y51183D02*
X30880Y51430D01*
X27600Y31250D02*
X28300Y31950D01*
Y37150D01*
X32207Y61899D02*
X33320Y63012D01*
X30250Y50648D02*
X30425Y50823D01*
X31747D01*
X30228Y51183D02*
X30633D01*
X27486Y49728D02*
X28274D01*
X29039Y50492D01*
Y52203D01*
X29030Y49085D02*
Y49805D01*
X29519Y50293D01*
Y50474D01*
X30228Y51183D01*
X28300Y37150D02*
X29000Y37850D01*
D27*
X45280Y34870D02*
Y34900D01*
X46300Y41950D02*
Y42400D01*
X46750Y42850D01*
X46300Y40450D02*
Y40900D01*
Y40450D02*
X46750Y40000D01*
X51320Y64430D02*
X51750Y64000D01*
X50700Y64430D02*
X51320D01*
X50700Y63800D02*
X50909Y63591D01*
X50996Y61504D02*
X51750Y60750D01*
X50996Y61504D02*
Y62845D01*
X50909Y62932D02*
X50996Y62845D01*
X50909Y62932D02*
Y63591D01*
X23650Y48900D02*
X23750D01*
X36965Y58413D02*
X37504Y57874D01*
X37794Y58663D02*
X38594Y57863D01*
X33883Y58413D02*
X36965D01*
X34482Y58663D02*
X37794D01*
X29217Y61607D02*
X30688D01*
X33883Y58413D01*
X33875Y59270D02*
X34482Y58663D01*
D28*
X34148Y53874D02*
X34154Y53868D01*
X32770Y49745D02*
X32773D01*
D29*
X36950Y57400D02*
Y57950D01*
Y57400D02*
X37193Y57157D01*
X41073D01*
X26820Y61115D02*
X30847D01*
X33812Y58150D01*
X36750D01*
X36950Y57950D01*
D30*
X25350Y52400D02*
X26270Y51481D01*
X26951D01*
X28459Y52988D01*
X29498D01*
X29903Y52583D01*
X30230D01*
X25350Y52400D02*
Y53013D01*
X26160Y53824D01*
X50261Y59300D02*
X50750D01*
X49665Y58705D02*
X50261Y59300D01*
D31*
X24434Y59731D02*
D03*
D32*
X24915Y59590D02*
D03*
D33*
X29355Y64867D02*
D03*
D34*
X33955Y51815D02*
D03*
D35*
X38600Y57850D02*
D03*
D36*
X39705Y57854D02*
D03*
D37*
X27891Y64875D02*
D03*
D38*
X31147Y66012D02*
D03*
D39*
X45544Y53231D02*
D03*
D40*
X47260Y45360D02*
D03*
D41*
X36081Y39021D02*
D03*
D42*
X24850Y64650D02*
D03*
X23600Y50900D02*
D03*
X36095Y67367D02*
D03*
X34961Y68861D02*
D03*
X41800Y67350D02*
D03*
X30900Y63950D02*
D03*
X23600Y47900D02*
D03*
Y46100D02*
D03*
X42965Y43783D02*
D03*
X40472Y57598D02*
D03*
X29030Y49085D02*
D03*
X48405Y39811D02*
D03*
X21100Y44550D02*
D03*
X31669Y47579D02*
D03*
X39185Y53150D02*
D03*
X45125Y36701D02*
D03*
D43*
X46350Y31200D02*
D03*
X48600D02*
D03*
X39700D02*
D03*
X44050D02*
D03*
X35351Y31208D02*
D03*
X29500Y31200D02*
D03*
X31156Y66490D02*
D03*
X26600Y31250D02*
D03*
D44*
X45350Y31200D02*
D03*
X21900Y49900D02*
D03*
Y48900D02*
D03*
Y47900D02*
D03*
X47600Y31200D02*
D03*
X50750Y59300D02*
D03*
X51750D02*
D03*
X50750Y58300D02*
D03*
X51750D02*
D03*
X50750Y57300D02*
D03*
X51750D02*
D03*
X50750Y56300D02*
D03*
X51750D02*
D03*
X50750Y55300D02*
D03*
X51750D02*
D03*
X50750Y54300D02*
D03*
X51750D02*
D03*
X50750Y53300D02*
D03*
X51750D02*
D03*
X50750Y52300D02*
D03*
X51750D02*
D03*
X50750Y51300D02*
D03*
X51750D02*
D03*
X50750Y50300D02*
D03*
X51750D02*
D03*
X50750Y49300D02*
D03*
X51750D02*
D03*
X50750Y48300D02*
D03*
X51750D02*
D03*
X50750Y47300D02*
D03*
X51750D02*
D03*
X50750Y46300D02*
D03*
X51750D02*
D03*
X50750Y45300D02*
D03*
X51750D02*
D03*
X50750Y44300D02*
D03*
X51750D02*
D03*
X50750Y43300D02*
D03*
X51750D02*
D03*
X50750Y42300D02*
D03*
X51750D02*
D03*
X50750Y41300D02*
D03*
X51750D02*
D03*
X50750Y40300D02*
D03*
X38700Y31200D02*
D03*
X37700D02*
D03*
X36700D02*
D03*
X43050D02*
D03*
X42050D02*
D03*
X41050D02*
D03*
X22450Y44600D02*
D03*
Y45600D02*
D03*
X51750Y62750D02*
D03*
Y61750D02*
D03*
X34351Y31208D02*
D03*
X32500Y32200D02*
D03*
Y31200D02*
D03*
X31500Y32200D02*
D03*
Y31200D02*
D03*
X30500Y32200D02*
D03*
Y31200D02*
D03*
X29500Y32200D02*
D03*
X32156Y66490D02*
D03*
X51750Y65000D02*
D03*
X27600Y31250D02*
D03*
X21900Y58300D02*
D03*
Y59300D02*
D03*
Y60300D02*
D03*
Y61300D02*
D03*
Y62300D02*
D03*
D45*
Y50900D02*
D03*
X51750Y40300D02*
D03*
X22450Y46600D02*
D03*
X51750Y60750D02*
D03*
Y64000D02*
D03*
X21900Y57300D02*
D03*
D46*
X22880Y42389D02*
D03*
Y37889D02*
D03*
X28289Y67070D02*
D03*
D47*
X22880Y40420D02*
D03*
Y35920D02*
D03*
D48*
X26320Y67070D02*
D03*
D49*
X26650Y39900D02*
D03*
Y35963D02*
D03*
X38030Y54590D02*
D03*
D50*
X51850Y32476D02*
D03*
X22450D02*
D03*
X51850Y67450D02*
D03*
X22450D02*
D03*
D51*
X31900Y52800D02*
D03*
X20513Y50900D02*
D03*
X32773Y49745D02*
D03*
X33780Y50190D02*
D03*
X36063Y51630D02*
D03*
X33380Y53640D02*
D03*
X32530Y53190D02*
D03*
X34154Y53868D02*
D03*
X35742Y50628D02*
D03*
X34730Y51040D02*
D03*
X34830Y50406D02*
D03*
X35430Y52490D02*
D03*
X35030Y53240D02*
D03*
X33948Y51043D02*
D03*
X33951Y52583D02*
D03*
X33166Y51809D02*
D03*
X31830Y51812D02*
D03*
X32580Y50740D02*
D03*
X32480Y51590D02*
D03*
X34760Y51929D02*
D03*
X31880Y50690D02*
D03*
X33951Y51809D02*
D03*
X36100Y52550D02*
D03*
X25186Y59486D02*
D03*
X24714D02*
D03*
Y59014D02*
D03*
X25186D02*
D03*
D52*
X26850Y59464D02*
D03*
Y57950D02*
D03*
Y58846D02*
D03*
X29217Y61607D02*
D03*
X27186Y63254D02*
D03*
X26820Y60313D02*
D03*
X48448Y50496D02*
D03*
X47698D02*
D03*
X46948D02*
D03*
X45559D02*
D03*
X44826D02*
D03*
X46248D02*
D03*
X49200D02*
D03*
X47452Y45142D02*
D03*
X46969Y45577D02*
D03*
X46250Y58350D02*
D03*
Y56900D02*
D03*
X46950Y57650D02*
D03*
Y56900D02*
D03*
X46250Y51106D02*
D03*
X46950Y56047D02*
D03*
X46250Y54341D02*
D03*
Y53488D02*
D03*
X21793Y56306D02*
D03*
X25080Y56582D02*
D03*
X23057Y58104D02*
D03*
X26330Y48298D02*
D03*
X40528Y52820D02*
D03*
X40456Y52074D02*
D03*
X36003Y56551D02*
D03*
X27868Y50402D02*
D03*
X40021Y53959D02*
D03*
X23996Y65196D02*
D03*
X20714Y34023D02*
D03*
X45900Y34250D02*
D03*
X48250Y34900D02*
D03*
X45200Y38650D02*
D03*
X44750Y41600D02*
D03*
X46750Y42850D02*
D03*
Y40000D02*
D03*
X44600Y43650D02*
D03*
X46250Y43600D02*
D03*
X33925Y46941D02*
D03*
X35409Y46240D02*
D03*
X43360Y58350D02*
D03*
X44827Y57650D02*
D03*
X44094Y58350D02*
D03*
X45560D02*
D03*
X44827Y51108D02*
D03*
X37100Y54900D02*
D03*
X35600Y53900D02*
D03*
X41560Y57550D02*
D03*
Y58350D02*
D03*
X32207Y61899D02*
D03*
X44827Y56900D02*
D03*
X41560Y56784D02*
D03*
X44827Y58350D02*
D03*
X41560Y55250D02*
D03*
Y56017D02*
D03*
Y51100D02*
D03*
Y52750D02*
D03*
Y53600D02*
D03*
X50260Y36976D02*
D03*
Y35677D02*
D03*
X40294Y43484D02*
D03*
X39721Y44138D02*
D03*
X34642Y46504D02*
D03*
X46950Y55194D02*
D03*
Y54341D02*
D03*
Y52635D02*
D03*
X45560Y57650D02*
D03*
Y56900D02*
D03*
Y51106D02*
D03*
X40421Y51327D02*
D03*
X41900Y43800D02*
D03*
X40850Y34300D02*
D03*
X25550Y32500D02*
D03*
X27789Y48961D02*
D03*
X29552Y51735D02*
D03*
X26630Y52318D02*
D03*
X31550Y37350D02*
D03*
X29400Y35650D02*
D03*
X30800Y41550D02*
D03*
Y42550D02*
D03*
X29000Y37850D02*
D03*
X27150Y47400D02*
D03*
X41560Y51950D02*
D03*
X41550Y33700D02*
D03*
X50200Y34000D02*
D03*
X44450Y37450D02*
D03*
X53350Y39700D02*
D03*
X37750Y40050D02*
D03*
Y39550D02*
D03*
Y39050D02*
D03*
Y38550D02*
D03*
X34400Y38750D02*
D03*
Y39350D02*
D03*
Y39950D02*
D03*
X36500Y57650D02*
D03*
X35400D02*
D03*
X25589Y57091D02*
D03*
X23838Y61734D02*
D03*
Y61077D02*
D03*
X44350Y68169D02*
D03*
X47264D02*
D03*
X49488Y68819D02*
D03*
X46378Y67000D02*
D03*
X25100Y45950D02*
D03*
X33566Y66581D02*
D03*
Y68153D02*
D03*
X46250Y57650D02*
D03*
X46950Y51106D02*
D03*
Y58350D02*
D03*
Y53488D02*
D03*
Y51850D02*
D03*
X47700Y52635D02*
D03*
Y51850D02*
D03*
Y51106D02*
D03*
X39621Y55180D02*
D03*
X36030Y49706D02*
D03*
X49461Y41712D02*
D03*
X25650Y33300D02*
D03*
X25700Y35661D02*
D03*
X38650Y44300D02*
D03*
X36229Y45894D02*
D03*
X37550Y43150D02*
D03*
X37050Y44100D02*
D03*
X37120Y47915D02*
D03*
X37750Y37550D02*
D03*
X34200Y36900D02*
D03*
X36450Y37600D02*
D03*
X35800D02*
D03*
X37750Y38050D02*
D03*
X37100Y37600D02*
D03*
X34400Y38150D02*
D03*
Y37600D02*
D03*
X35200D02*
D03*
X29436Y48126D02*
D03*
X43726Y35926D02*
D03*
X26364Y45423D02*
D03*
X39508Y49101D02*
D03*
X33333Y64652D02*
D03*
X29039Y52178D02*
D03*
X34344Y59775D02*
D03*
X33869Y59264D02*
D03*
X29759Y62156D02*
D03*
X26160Y53824D02*
D03*
X26595Y53030D02*
D03*
X24413Y52659D02*
D03*
X21793Y52331D02*
D03*
X22269Y52881D02*
D03*
X24770Y54616D02*
D03*
X48450Y53641D02*
D03*
X49566Y55476D02*
D03*
X49200Y51106D02*
D03*
X48450Y51850D02*
D03*
Y51106D02*
D03*
X49200Y52869D02*
D03*
X50700Y60950D02*
D03*
X43450Y38350D02*
D03*
X41450Y43000D02*
D03*
X39502Y35751D02*
D03*
Y40548D02*
D03*
X34600Y41700D02*
D03*
X33809Y42450D02*
D03*
X35900Y41700D02*
D03*
X29350Y40200D02*
D03*
X33516Y40194D02*
D03*
X32806Y40213D02*
D03*
X25783Y55482D02*
D03*
X30767Y56065D02*
D03*
X26650Y55573D02*
D03*
X26650Y56250D02*
D03*
X29783Y53959D02*
D03*
X30756Y55350D02*
D03*
X28204Y56018D02*
D03*
X30968Y57438D02*
D03*
X28236Y56755D02*
D03*
Y60340D02*
D03*
X26328Y65308D02*
D03*
X26820Y61115D02*
D03*
X26331Y62001D02*
D03*
X43752Y43791D02*
D03*
X50700Y60300D02*
D03*
X30836Y45423D02*
D03*
X33051Y47232D02*
D03*
X26362Y46291D02*
D03*
X35433Y66142D02*
D03*
Y65354D02*
D03*
Y64567D02*
D03*
Y63780D02*
D03*
X36220D02*
D03*
Y64575D02*
D03*
Y65354D02*
D03*
Y66142D02*
D03*
X40945D02*
D03*
X41732D02*
D03*
X40945Y65354D02*
D03*
X41732D02*
D03*
X40945Y64567D02*
D03*
X41732D02*
D03*
X40945Y63780D02*
D03*
X41732D02*
D03*
X43307Y66142D02*
D03*
Y65354D02*
D03*
Y64567D02*
D03*
Y63780D02*
D03*
X44094D02*
D03*
Y64567D02*
D03*
Y65354D02*
D03*
Y66142D02*
D03*
X48819D02*
D03*
Y65354D02*
D03*
X49606D02*
D03*
X48819Y64567D02*
D03*
X49606D02*
D03*
X48819Y63780D02*
D03*
X49606D02*
D03*
X48819Y62992D02*
D03*
X49606D02*
D03*
Y62205D02*
D03*
X35433Y59449D02*
D03*
X36220D02*
D03*
X37008D02*
D03*
X37795D02*
D03*
X38583D02*
D03*
X39370D02*
D03*
X43307D02*
D03*
X44094D02*
D03*
X44882D02*
D03*
X45669D02*
D03*
X46457D02*
D03*
X33500Y34450D02*
D03*
X36450D02*
D03*
X37250Y35150D02*
D03*
X38800Y43000D02*
D03*
X38900Y41050D02*
D03*
X49200Y43407D02*
D03*
X43250Y67350D02*
D03*
X37950Y36350D02*
D03*
D53*
X52215Y37616D02*
D03*
Y35884D02*
D03*
M02*
