%FSLAX24Y24*%
%MOIN*%
G70*
G01*
G75*
G04 Layer_Color=2752767*
%ADD10C,0.0050*%
%ADD11C,0.0067*%
%ADD12C,0.0100*%
%ADD13C,0.0160*%
%ADD14C,0.0080*%
D10*
X51550Y64800D02*
Y65200D01*
X51950D01*
Y64800D01*
X51550D01*
Y63800D02*
Y64200D01*
X51950D01*
Y63800D01*
X51550D01*
X31956Y66290D02*
Y66690D01*
X32356D01*
Y66290D01*
X31956D01*
X30956D02*
Y66690D01*
X31356D01*
Y66290D01*
X30956D01*
X47400Y31000D02*
Y31400D01*
X47800D01*
Y31000D01*
X47400D01*
X48400D02*
Y31400D01*
X48800D01*
Y31000D01*
X48400D01*
X45150D02*
Y31400D01*
X45550D01*
Y31000D01*
X45150D01*
X46150D02*
Y31400D01*
X46550D01*
Y31000D01*
X46150D01*
X34151Y31008D02*
Y31408D01*
X34551D01*
Y31008D01*
X34151D01*
X35151D02*
Y31408D01*
X35551D01*
Y31008D01*
X35151D01*
X22250Y46400D02*
Y46800D01*
X22650D01*
Y46400D01*
X22250D01*
Y45400D02*
Y45800D01*
X22650D01*
Y45400D01*
X22250D01*
Y44400D02*
Y44800D01*
X22650D01*
Y44400D01*
X22250D01*
X40850Y31000D02*
Y31400D01*
X41250D01*
Y31000D01*
X40850D01*
X41850D02*
Y31400D01*
X42250D01*
Y31000D01*
X41850D01*
X42850D02*
Y31400D01*
X43250D01*
Y31000D01*
X42850D01*
X43850D02*
Y31400D01*
X44250D01*
Y31000D01*
X43850D01*
X29030Y48885D02*
X28830Y49285D01*
X29230D01*
X29030Y48885D01*
X48405Y39611D02*
X48205Y40011D01*
X48605D01*
X48405Y39611D01*
X21100Y44350D02*
X20900Y44750D01*
X21300D01*
X21100Y44350D01*
X36095Y67167D02*
X35895Y67567D01*
X36295D01*
X36095Y67167D01*
X41800Y67150D02*
X41600Y67550D01*
X42000D01*
X41800Y67150D01*
X30900Y63750D02*
X30700Y64150D01*
X31100D01*
X30900Y63750D01*
X34961Y68661D02*
X34761Y69061D01*
X35161D01*
X34961Y68661D01*
X31669Y47379D02*
X31469Y47779D01*
X31869D01*
X31669Y47379D01*
X23600Y45900D02*
X23400Y46300D01*
X23800D01*
X23600Y45900D01*
X39185Y52950D02*
X38985Y53350D01*
X39385D01*
X39185Y52950D01*
X24850Y64450D02*
X24650Y64850D01*
X25050D01*
X24850Y64450D01*
X23600Y50700D02*
X23400Y51100D01*
X23800D01*
X23600Y50700D01*
Y47700D02*
X23400Y48100D01*
X23800D01*
X23600Y47700D01*
X42965Y43583D02*
X42765Y43983D01*
X43165D01*
X42965Y43583D01*
X45125Y36501D02*
X44925Y36901D01*
X45325D01*
X45125Y36501D01*
X36500Y31000D02*
Y31400D01*
X36900D01*
Y31000D01*
X36500D01*
X37500D02*
Y31400D01*
X37900D01*
Y31000D01*
X37500D01*
X38500D02*
Y31400D01*
X38900D01*
Y31000D01*
X38500D01*
X39500D02*
Y31400D01*
X39900D01*
Y31000D01*
X39500D01*
X22880Y35720D02*
X22980Y35820D01*
X23080D01*
X22980Y35920D01*
X23080Y36020D01*
X22980D01*
X22880Y36120D01*
X22780Y36020D01*
X22680D01*
X22780Y35920D01*
X22680Y35820D01*
X22780D01*
X22880Y35720D01*
Y37689D02*
X22980Y37789D01*
X23080D01*
X22980Y37889D01*
X23080Y37989D01*
X22980D01*
X22880Y38089D01*
X22780Y37989D01*
X22680D01*
X22780Y37889D01*
X22680Y37789D01*
X22780D01*
X22880Y37689D01*
X26320Y66870D02*
X26420Y66970D01*
X26520D01*
X26420Y67070D01*
X26520Y67170D01*
X26420D01*
X26320Y67270D01*
X26220Y67170D01*
X26120D01*
X26220Y67070D01*
X26120Y66970D01*
X26220D01*
X26320Y66870D01*
X28289D02*
X28389Y66970D01*
X28489D01*
X28389Y67070D01*
X28489Y67170D01*
X28389D01*
X28289Y67270D01*
X28189Y67170D01*
X28089D01*
X28189Y67070D01*
X28089Y66970D01*
X28189D01*
X28289Y66870D01*
X27400Y31050D02*
Y31450D01*
X27800D01*
Y31050D01*
X27400D01*
X26400D02*
Y31450D01*
X26800D01*
Y31050D01*
X26400D01*
X51550Y60550D02*
Y60950D01*
X51950D01*
Y60550D01*
X51550D01*
Y61550D02*
Y61950D01*
X51950D01*
Y61550D01*
X51550D01*
Y62550D02*
Y62950D01*
X51950D01*
Y62550D01*
X51550D01*
X21700Y47700D02*
Y48100D01*
X22100D01*
Y47700D01*
X21700D01*
Y48700D02*
Y49100D01*
X22100D01*
Y48700D01*
X21700D01*
Y49700D02*
Y50100D01*
X22100D01*
Y49700D01*
X21700D01*
Y50700D02*
Y51100D01*
X22100D01*
Y50700D01*
X21700D01*
Y62100D02*
Y62500D01*
X22100D01*
Y62100D01*
X21700D01*
Y61100D02*
Y61500D01*
X22100D01*
Y61100D01*
X21700D01*
Y60100D02*
Y60500D01*
X22100D01*
Y60100D01*
X21700D01*
Y59100D02*
Y59500D01*
X22100D01*
Y59100D01*
X21700D01*
Y58100D02*
Y58500D01*
X22100D01*
Y58100D01*
X21700D01*
Y57100D02*
Y57500D01*
X22100D01*
Y57100D01*
X21700D01*
X51550Y40100D02*
Y40500D01*
X51950D01*
Y40100D01*
X51550D01*
X50550D02*
Y40500D01*
X50950D01*
Y40100D01*
X50550D01*
X51550Y41100D02*
Y41500D01*
X51950D01*
Y41100D01*
X51550D01*
X50550D02*
Y41500D01*
X50950D01*
Y41100D01*
X50550D01*
X51550Y42100D02*
Y42500D01*
X51950D01*
Y42100D01*
X51550D01*
X50550D02*
Y42500D01*
X50950D01*
Y42100D01*
X50550D01*
X51550Y43100D02*
Y43500D01*
X51950D01*
Y43100D01*
X51550D01*
X50550D02*
Y43500D01*
X50950D01*
Y43100D01*
X50550D01*
X51550Y44100D02*
Y44500D01*
X51950D01*
Y44100D01*
X51550D01*
X50550D02*
Y44500D01*
X50950D01*
Y44100D01*
X50550D01*
X51550Y45100D02*
Y45500D01*
X51950D01*
Y45100D01*
X51550D01*
X50550D02*
Y45500D01*
X50950D01*
Y45100D01*
X50550D01*
X51550Y46100D02*
Y46500D01*
X51950D01*
Y46100D01*
X51550D01*
X50550D02*
Y46500D01*
X50950D01*
Y46100D01*
X50550D01*
X51550Y47100D02*
Y47500D01*
X51950D01*
Y47100D01*
X51550D01*
X50550D02*
Y47500D01*
X50950D01*
Y47100D01*
X50550D01*
X51550Y48100D02*
Y48500D01*
X51950D01*
Y48100D01*
X51550D01*
X50550D02*
Y48500D01*
X50950D01*
Y48100D01*
X50550D01*
X51550Y49100D02*
Y49500D01*
X51950D01*
Y49100D01*
X51550D01*
X50550D02*
Y49500D01*
X50950D01*
Y49100D01*
X50550D01*
X51550Y50100D02*
Y50500D01*
X51950D01*
Y50100D01*
X51550D01*
X50550D02*
Y50500D01*
X50950D01*
Y50100D01*
X50550D01*
X51550Y51100D02*
Y51500D01*
X51950D01*
Y51100D01*
X51550D01*
X50550D02*
Y51500D01*
X50950D01*
Y51100D01*
X50550D01*
X51550Y52100D02*
Y52500D01*
X51950D01*
Y52100D01*
X51550D01*
X50550D02*
Y52500D01*
X50950D01*
Y52100D01*
X50550D01*
X51550Y53100D02*
Y53500D01*
X51950D01*
Y53100D01*
X51550D01*
X50550D02*
Y53500D01*
X50950D01*
Y53100D01*
X50550D01*
X51550Y54100D02*
Y54500D01*
X51950D01*
Y54100D01*
X51550D01*
X50550D02*
Y54500D01*
X50950D01*
Y54100D01*
X50550D01*
X51550Y55100D02*
Y55500D01*
X51950D01*
Y55100D01*
X51550D01*
X50550D02*
Y55500D01*
X50950D01*
Y55100D01*
X50550D01*
X51550Y56100D02*
Y56500D01*
X51950D01*
Y56100D01*
X51550D01*
X50550D02*
Y56500D01*
X50950D01*
Y56100D01*
X50550D01*
X51550Y57100D02*
Y57500D01*
X51950D01*
Y57100D01*
X51550D01*
X50550D02*
Y57500D01*
X50950D01*
Y57100D01*
X50550D01*
X51550Y58100D02*
Y58500D01*
X51950D01*
Y58100D01*
X51550D01*
X50550D02*
Y58500D01*
X50950D01*
Y58100D01*
X50550D01*
X51550Y59100D02*
Y59500D01*
X51950D01*
Y59100D01*
X51550D01*
X50550D02*
Y59500D01*
X50950D01*
Y59100D01*
X50550D01*
X29300Y31000D02*
Y31400D01*
X29700D01*
Y31000D01*
X29300D01*
Y32000D02*
Y32400D01*
X29700D01*
Y32000D01*
X29300D01*
X30300Y31000D02*
Y31400D01*
X30700D01*
Y31000D01*
X30300D01*
Y32000D02*
Y32400D01*
X30700D01*
Y32000D01*
X30300D01*
X31300Y31000D02*
Y31400D01*
X31700D01*
Y31000D01*
X31300D01*
Y32000D02*
Y32400D01*
X31700D01*
Y32000D01*
X31300D01*
X32300Y31000D02*
Y31400D01*
X32700D01*
Y31000D01*
X32300D01*
Y32000D02*
Y32400D01*
X32700D01*
Y32000D01*
X32300D01*
X26450Y35763D02*
X26550Y35963D01*
X26450Y36163D01*
X26650Y36063D01*
X26850Y36163D01*
X26750Y35963D01*
X26850Y35763D01*
X26650Y35863D01*
X26450Y35763D01*
Y39700D02*
X26550Y39900D01*
X26450Y40100D01*
X26650Y40000D01*
X26850Y40100D01*
X26750Y39900D01*
X26850Y39700D01*
X26650Y39800D01*
X26450Y39700D01*
X22880Y40220D02*
X22980Y40320D01*
X23080D01*
X22980Y40420D01*
X23080Y40520D01*
X22980D01*
X22880Y40620D01*
X22780Y40520D01*
X22680D01*
X22780Y40420D01*
X22680Y40320D01*
X22780D01*
X22880Y40220D01*
Y42189D02*
X22980Y42289D01*
X23080D01*
X22980Y42389D01*
X23080Y42489D01*
X22980D01*
X22880Y42589D01*
X22780Y42489D01*
X22680D01*
X22780Y42389D01*
X22680Y42289D01*
X22780D01*
X22880Y42189D01*
X40472Y57398D02*
X40272Y57798D01*
X40672D01*
X40472Y57398D01*
X37950Y36150D02*
X37750Y36550D01*
X38150D01*
X37950Y36150D01*
X43250Y67150D02*
X43050Y67550D01*
X43450D01*
X43250Y67150D01*
X49100Y43307D02*
Y43207D01*
X49300D01*
Y43307D01*
X49400D01*
Y43507D01*
X49300D01*
Y43607D01*
X49100D01*
Y43507D01*
X49000D01*
Y43307D01*
X49100D01*
X38800Y40950D02*
Y40850D01*
X39000D01*
Y40950D01*
X39100D01*
Y41150D01*
X39000D01*
Y41250D01*
X38800D01*
Y41150D01*
X38700D01*
Y40950D01*
X38800D01*
X38700Y42900D02*
Y42800D01*
X38900D01*
Y42900D01*
X39000D01*
Y43100D01*
X38900D01*
Y43200D01*
X38700D01*
Y43100D01*
X38600D01*
Y42900D01*
X38700D01*
X37150Y35050D02*
Y34950D01*
X37350D01*
Y35050D01*
X37450D01*
Y35250D01*
X37350D01*
Y35350D01*
X37150D01*
Y35250D01*
X37050D01*
Y35050D01*
X37150D01*
X36350Y34350D02*
Y34250D01*
X36550D01*
Y34350D01*
X36650D01*
Y34550D01*
X36550D01*
Y34650D01*
X36350D01*
Y34550D01*
X36250D01*
Y34350D01*
X36350D01*
X33400D02*
Y34250D01*
X33600D01*
Y34350D01*
X33700D01*
Y34550D01*
X33600D01*
Y34650D01*
X33400D01*
Y34550D01*
X33300D01*
Y34350D01*
X33400D01*
X46257Y59249D02*
X46357D01*
X46457Y59349D01*
X46557Y59249D01*
X46657D01*
Y59349D01*
X46557Y59449D01*
X46657Y59549D01*
Y59649D01*
X46557D01*
X46457Y59549D01*
X46357Y59649D01*
X46257D01*
Y59549D01*
X46357Y59449D01*
X46257Y59349D01*
Y59249D01*
X45469D02*
X45569D01*
X45669Y59349D01*
X45769Y59249D01*
X45869D01*
Y59349D01*
X45769Y59449D01*
X45869Y59549D01*
Y59649D01*
X45769D01*
X45669Y59549D01*
X45569Y59649D01*
X45469D01*
Y59549D01*
X45569Y59449D01*
X45469Y59349D01*
Y59249D01*
X44682D02*
X44782D01*
X44882Y59349D01*
X44982Y59249D01*
X45082D01*
Y59349D01*
X44982Y59449D01*
X45082Y59549D01*
Y59649D01*
X44982D01*
X44882Y59549D01*
X44782Y59649D01*
X44682D01*
Y59549D01*
X44782Y59449D01*
X44682Y59349D01*
Y59249D01*
X43894D02*
X43994D01*
X44094Y59349D01*
X44194Y59249D01*
X44294D01*
Y59349D01*
X44194Y59449D01*
X44294Y59549D01*
Y59649D01*
X44194D01*
X44094Y59549D01*
X43994Y59649D01*
X43894D01*
Y59549D01*
X43994Y59449D01*
X43894Y59349D01*
Y59249D01*
X43107D02*
X43207D01*
X43307Y59349D01*
X43407Y59249D01*
X43507D01*
Y59349D01*
X43407Y59449D01*
X43507Y59549D01*
Y59649D01*
X43407D01*
X43307Y59549D01*
X43207Y59649D01*
X43107D01*
Y59549D01*
X43207Y59449D01*
X43107Y59349D01*
Y59249D01*
X39170D02*
X39270D01*
X39370Y59349D01*
X39470Y59249D01*
X39570D01*
Y59349D01*
X39470Y59449D01*
X39570Y59549D01*
Y59649D01*
X39470D01*
X39370Y59549D01*
X39270Y59649D01*
X39170D01*
Y59549D01*
X39270Y59449D01*
X39170Y59349D01*
Y59249D01*
X38383D02*
X38483D01*
X38583Y59349D01*
X38683Y59249D01*
X38783D01*
Y59349D01*
X38683Y59449D01*
X38783Y59549D01*
Y59649D01*
X38683D01*
X38583Y59549D01*
X38483Y59649D01*
X38383D01*
Y59549D01*
X38483Y59449D01*
X38383Y59349D01*
Y59249D01*
X37595D02*
X37695D01*
X37795Y59349D01*
X37895Y59249D01*
X37995D01*
Y59349D01*
X37895Y59449D01*
X37995Y59549D01*
Y59649D01*
X37895D01*
X37795Y59549D01*
X37695Y59649D01*
X37595D01*
Y59549D01*
X37695Y59449D01*
X37595Y59349D01*
Y59249D01*
X36808D02*
X36908D01*
X37008Y59349D01*
X37108Y59249D01*
X37208D01*
Y59349D01*
X37108Y59449D01*
X37208Y59549D01*
Y59649D01*
X37108D01*
X37008Y59549D01*
X36908Y59649D01*
X36808D01*
Y59549D01*
X36908Y59449D01*
X36808Y59349D01*
Y59249D01*
X36020D02*
X36120D01*
X36220Y59349D01*
X36320Y59249D01*
X36420D01*
Y59349D01*
X36320Y59449D01*
X36420Y59549D01*
Y59649D01*
X36320D01*
X36220Y59549D01*
X36120Y59649D01*
X36020D01*
Y59549D01*
X36120Y59449D01*
X36020Y59349D01*
Y59249D01*
X35233D02*
X35333D01*
X35433Y59349D01*
X35533Y59249D01*
X35633D01*
Y59349D01*
X35533Y59449D01*
X35633Y59549D01*
Y59649D01*
X35533D01*
X35433Y59549D01*
X35333Y59649D01*
X35233D01*
Y59549D01*
X35333Y59449D01*
X35233Y59349D01*
Y59249D01*
X49406Y62005D02*
X49506D01*
X49606Y62105D01*
X49706Y62005D01*
X49806D01*
Y62105D01*
X49706Y62205D01*
X49806Y62305D01*
Y62405D01*
X49706D01*
X49606Y62305D01*
X49506Y62405D01*
X49406D01*
Y62305D01*
X49506Y62205D01*
X49406Y62105D01*
Y62005D01*
Y62792D02*
X49506D01*
X49606Y62892D01*
X49706Y62792D01*
X49806D01*
Y62892D01*
X49706Y62992D01*
X49806Y63092D01*
Y63192D01*
X49706D01*
X49606Y63092D01*
X49506Y63192D01*
X49406D01*
Y63092D01*
X49506Y62992D01*
X49406Y62892D01*
Y62792D01*
X48619D02*
X48719D01*
X48819Y62892D01*
X48919Y62792D01*
X49019D01*
Y62892D01*
X48919Y62992D01*
X49019Y63092D01*
Y63192D01*
X48919D01*
X48819Y63092D01*
X48719Y63192D01*
X48619D01*
Y63092D01*
X48719Y62992D01*
X48619Y62892D01*
Y62792D01*
X49406Y63580D02*
X49506D01*
X49606Y63680D01*
X49706Y63580D01*
X49806D01*
Y63680D01*
X49706Y63780D01*
X49806Y63880D01*
Y63980D01*
X49706D01*
X49606Y63880D01*
X49506Y63980D01*
X49406D01*
Y63880D01*
X49506Y63780D01*
X49406Y63680D01*
Y63580D01*
X48619D02*
X48719D01*
X48819Y63680D01*
X48919Y63580D01*
X49019D01*
Y63680D01*
X48919Y63780D01*
X49019Y63880D01*
Y63980D01*
X48919D01*
X48819Y63880D01*
X48719Y63980D01*
X48619D01*
Y63880D01*
X48719Y63780D01*
X48619Y63680D01*
Y63580D01*
X49406Y64367D02*
X49506D01*
X49606Y64467D01*
X49706Y64367D01*
X49806D01*
Y64467D01*
X49706Y64567D01*
X49806Y64667D01*
Y64767D01*
X49706D01*
X49606Y64667D01*
X49506Y64767D01*
X49406D01*
Y64667D01*
X49506Y64567D01*
X49406Y64467D01*
Y64367D01*
X48619D02*
X48719D01*
X48819Y64467D01*
X48919Y64367D01*
X49019D01*
Y64467D01*
X48919Y64567D01*
X49019Y64667D01*
Y64767D01*
X48919D01*
X48819Y64667D01*
X48719Y64767D01*
X48619D01*
Y64667D01*
X48719Y64567D01*
X48619Y64467D01*
Y64367D01*
X49406Y65154D02*
X49506D01*
X49606Y65254D01*
X49706Y65154D01*
X49806D01*
Y65254D01*
X49706Y65354D01*
X49806Y65454D01*
Y65554D01*
X49706D01*
X49606Y65454D01*
X49506Y65554D01*
X49406D01*
Y65454D01*
X49506Y65354D01*
X49406Y65254D01*
Y65154D01*
X48619D02*
X48719D01*
X48819Y65254D01*
X48919Y65154D01*
X49019D01*
Y65254D01*
X48919Y65354D01*
X49019Y65454D01*
Y65554D01*
X48919D01*
X48819Y65454D01*
X48719Y65554D01*
X48619D01*
Y65454D01*
X48719Y65354D01*
X48619Y65254D01*
Y65154D01*
Y65942D02*
X48719D01*
X48819Y66042D01*
X48919Y65942D01*
X49019D01*
Y66042D01*
X48919Y66142D01*
X49019Y66242D01*
Y66342D01*
X48919D01*
X48819Y66242D01*
X48719Y66342D01*
X48619D01*
Y66242D01*
X48719Y66142D01*
X48619Y66042D01*
Y65942D01*
X43894D02*
X43994D01*
X44094Y66042D01*
X44194Y65942D01*
X44294D01*
Y66042D01*
X44194Y66142D01*
X44294Y66242D01*
Y66342D01*
X44194D01*
X44094Y66242D01*
X43994Y66342D01*
X43894D01*
Y66242D01*
X43994Y66142D01*
X43894Y66042D01*
Y65942D01*
Y65154D02*
X43994D01*
X44094Y65254D01*
X44194Y65154D01*
X44294D01*
Y65254D01*
X44194Y65354D01*
X44294Y65454D01*
Y65554D01*
X44194D01*
X44094Y65454D01*
X43994Y65554D01*
X43894D01*
Y65454D01*
X43994Y65354D01*
X43894Y65254D01*
Y65154D01*
Y64367D02*
X43994D01*
X44094Y64467D01*
X44194Y64367D01*
X44294D01*
Y64467D01*
X44194Y64567D01*
X44294Y64667D01*
Y64767D01*
X44194D01*
X44094Y64667D01*
X43994Y64767D01*
X43894D01*
Y64667D01*
X43994Y64567D01*
X43894Y64467D01*
Y64367D01*
Y63580D02*
X43994D01*
X44094Y63680D01*
X44194Y63580D01*
X44294D01*
Y63680D01*
X44194Y63780D01*
X44294Y63880D01*
Y63980D01*
X44194D01*
X44094Y63880D01*
X43994Y63980D01*
X43894D01*
Y63880D01*
X43994Y63780D01*
X43894Y63680D01*
Y63580D01*
X43107D02*
X43207D01*
X43307Y63680D01*
X43407Y63580D01*
X43507D01*
Y63680D01*
X43407Y63780D01*
X43507Y63880D01*
Y63980D01*
X43407D01*
X43307Y63880D01*
X43207Y63980D01*
X43107D01*
Y63880D01*
X43207Y63780D01*
X43107Y63680D01*
Y63580D01*
Y64367D02*
X43207D01*
X43307Y64467D01*
X43407Y64367D01*
X43507D01*
Y64467D01*
X43407Y64567D01*
X43507Y64667D01*
Y64767D01*
X43407D01*
X43307Y64667D01*
X43207Y64767D01*
X43107D01*
Y64667D01*
X43207Y64567D01*
X43107Y64467D01*
Y64367D01*
Y65154D02*
X43207D01*
X43307Y65254D01*
X43407Y65154D01*
X43507D01*
Y65254D01*
X43407Y65354D01*
X43507Y65454D01*
Y65554D01*
X43407D01*
X43307Y65454D01*
X43207Y65554D01*
X43107D01*
Y65454D01*
X43207Y65354D01*
X43107Y65254D01*
Y65154D01*
Y65942D02*
X43207D01*
X43307Y66042D01*
X43407Y65942D01*
X43507D01*
Y66042D01*
X43407Y66142D01*
X43507Y66242D01*
Y66342D01*
X43407D01*
X43307Y66242D01*
X43207Y66342D01*
X43107D01*
Y66242D01*
X43207Y66142D01*
X43107Y66042D01*
Y65942D01*
X41532Y63580D02*
X41632D01*
X41732Y63680D01*
X41832Y63580D01*
X41932D01*
Y63680D01*
X41832Y63780D01*
X41932Y63880D01*
Y63980D01*
X41832D01*
X41732Y63880D01*
X41632Y63980D01*
X41532D01*
Y63880D01*
X41632Y63780D01*
X41532Y63680D01*
Y63580D01*
X40745D02*
X40845D01*
X40945Y63680D01*
X41045Y63580D01*
X41145D01*
Y63680D01*
X41045Y63780D01*
X41145Y63880D01*
Y63980D01*
X41045D01*
X40945Y63880D01*
X40845Y63980D01*
X40745D01*
Y63880D01*
X40845Y63780D01*
X40745Y63680D01*
Y63580D01*
X41532Y64367D02*
X41632D01*
X41732Y64467D01*
X41832Y64367D01*
X41932D01*
Y64467D01*
X41832Y64567D01*
X41932Y64667D01*
Y64767D01*
X41832D01*
X41732Y64667D01*
X41632Y64767D01*
X41532D01*
Y64667D01*
X41632Y64567D01*
X41532Y64467D01*
Y64367D01*
X40745D02*
X40845D01*
X40945Y64467D01*
X41045Y64367D01*
X41145D01*
Y64467D01*
X41045Y64567D01*
X41145Y64667D01*
Y64767D01*
X41045D01*
X40945Y64667D01*
X40845Y64767D01*
X40745D01*
Y64667D01*
X40845Y64567D01*
X40745Y64467D01*
Y64367D01*
X41532Y65154D02*
X41632D01*
X41732Y65254D01*
X41832Y65154D01*
X41932D01*
Y65254D01*
X41832Y65354D01*
X41932Y65454D01*
Y65554D01*
X41832D01*
X41732Y65454D01*
X41632Y65554D01*
X41532D01*
Y65454D01*
X41632Y65354D01*
X41532Y65254D01*
Y65154D01*
X40745D02*
X40845D01*
X40945Y65254D01*
X41045Y65154D01*
X41145D01*
Y65254D01*
X41045Y65354D01*
X41145Y65454D01*
Y65554D01*
X41045D01*
X40945Y65454D01*
X40845Y65554D01*
X40745D01*
Y65454D01*
X40845Y65354D01*
X40745Y65254D01*
Y65154D01*
X41532Y65942D02*
X41632D01*
X41732Y66042D01*
X41832Y65942D01*
X41932D01*
Y66042D01*
X41832Y66142D01*
X41932Y66242D01*
Y66342D01*
X41832D01*
X41732Y66242D01*
X41632Y66342D01*
X41532D01*
Y66242D01*
X41632Y66142D01*
X41532Y66042D01*
Y65942D01*
X40745D02*
X40845D01*
X40945Y66042D01*
X41045Y65942D01*
X41145D01*
Y66042D01*
X41045Y66142D01*
X41145Y66242D01*
Y66342D01*
X41045D01*
X40945Y66242D01*
X40845Y66342D01*
X40745D01*
Y66242D01*
X40845Y66142D01*
X40745Y66042D01*
Y65942D01*
X36020D02*
X36120D01*
X36220Y66042D01*
X36320Y65942D01*
X36420D01*
Y66042D01*
X36320Y66142D01*
X36420Y66242D01*
Y66342D01*
X36320D01*
X36220Y66242D01*
X36120Y66342D01*
X36020D01*
Y66242D01*
X36120Y66142D01*
X36020Y66042D01*
Y65942D01*
Y65154D02*
X36120D01*
X36220Y65254D01*
X36320Y65154D01*
X36420D01*
Y65254D01*
X36320Y65354D01*
X36420Y65454D01*
Y65554D01*
X36320D01*
X36220Y65454D01*
X36120Y65554D01*
X36020D01*
Y65454D01*
X36120Y65354D01*
X36020Y65254D01*
Y65154D01*
Y64375D02*
X36120D01*
X36220Y64475D01*
X36320Y64375D01*
X36420D01*
Y64475D01*
X36320Y64575D01*
X36420Y64675D01*
Y64775D01*
X36320D01*
X36220Y64675D01*
X36120Y64775D01*
X36020D01*
Y64675D01*
X36120Y64575D01*
X36020Y64475D01*
Y64375D01*
Y63580D02*
X36120D01*
X36220Y63680D01*
X36320Y63580D01*
X36420D01*
Y63680D01*
X36320Y63780D01*
X36420Y63880D01*
Y63980D01*
X36320D01*
X36220Y63880D01*
X36120Y63980D01*
X36020D01*
Y63880D01*
X36120Y63780D01*
X36020Y63680D01*
Y63580D01*
X35233D02*
X35333D01*
X35433Y63680D01*
X35533Y63580D01*
X35633D01*
Y63680D01*
X35533Y63780D01*
X35633Y63880D01*
Y63980D01*
X35533D01*
X35433Y63880D01*
X35333Y63980D01*
X35233D01*
Y63880D01*
X35333Y63780D01*
X35233Y63680D01*
Y63580D01*
Y64367D02*
X35333D01*
X35433Y64467D01*
X35533Y64367D01*
X35633D01*
Y64467D01*
X35533Y64567D01*
X35633Y64667D01*
Y64767D01*
X35533D01*
X35433Y64667D01*
X35333Y64767D01*
X35233D01*
Y64667D01*
X35333Y64567D01*
X35233Y64467D01*
Y64367D01*
Y65154D02*
X35333D01*
X35433Y65254D01*
X35533Y65154D01*
X35633D01*
Y65254D01*
X35533Y65354D01*
X35633Y65454D01*
Y65554D01*
X35533D01*
X35433Y65454D01*
X35333Y65554D01*
X35233D01*
Y65454D01*
X35333Y65354D01*
X35233Y65254D01*
Y65154D01*
Y65942D02*
X35333D01*
X35433Y66042D01*
X35533Y65942D01*
X35633D01*
Y66042D01*
X35533Y66142D01*
X35633Y66242D01*
Y66342D01*
X35533D01*
X35433Y66242D01*
X35333Y66342D01*
X35233D01*
Y66242D01*
X35333Y66142D01*
X35233Y66042D01*
Y65942D01*
X26362Y46091D02*
X26162Y46491D01*
X26562D01*
X26362Y46091D01*
X33051Y47032D02*
X32851Y47432D01*
X33251D01*
X33051Y47032D01*
X30736Y45323D02*
Y45223D01*
X30936D01*
Y45323D01*
X31036D01*
Y45523D01*
X30936D01*
Y45623D01*
X30736D01*
Y45523D01*
X30636D01*
Y45323D01*
X30736D01*
X50700Y60100D02*
X50500Y60500D01*
X50900D01*
X50700Y60100D01*
X43652Y43691D02*
Y43591D01*
X43852D01*
Y43691D01*
X43952D01*
Y43891D01*
X43852D01*
Y43991D01*
X43652D01*
Y43891D01*
X43552D01*
Y43691D01*
X43652D01*
X26331Y61801D02*
X26131Y62201D01*
X26531D01*
X26331Y61801D01*
X26720Y61015D02*
Y60915D01*
X26920D01*
Y61015D01*
X27020D01*
Y61215D01*
X26920D01*
Y61315D01*
X26720D01*
Y61215D01*
X26620D01*
Y61015D01*
X26720D01*
X26328Y65108D02*
X26128Y65508D01*
X26528D01*
X26328Y65108D01*
X28236Y60140D02*
X28036Y60540D01*
X28436D01*
X28236Y60140D01*
Y56555D02*
X28036Y56955D01*
X28436D01*
X28236Y56555D01*
X30868Y57338D02*
Y57238D01*
X31068D01*
Y57338D01*
X31168D01*
Y57538D01*
X31068D01*
Y57638D01*
X30868D01*
Y57538D01*
X30768D01*
Y57338D01*
X30868D01*
X28204Y55818D02*
X28004Y56218D01*
X28404D01*
X28204Y55818D01*
X30756Y55150D02*
X30556Y55550D01*
X30956D01*
X30756Y55150D01*
X29783Y53759D02*
X29583Y54159D01*
X29983D01*
X29783Y53759D01*
X26650Y56050D02*
X26450Y56450D01*
X26850D01*
X26650Y56050D01*
X26650Y55373D02*
X26450Y55773D01*
X26850D01*
X26650Y55373D01*
X30767Y55865D02*
X30567Y56265D01*
X30967D01*
X30767Y55865D01*
X25683Y55382D02*
Y55282D01*
X25883D01*
Y55382D01*
X25983D01*
Y55582D01*
X25883D01*
Y55682D01*
X25683D01*
Y55582D01*
X25583D01*
Y55382D01*
X25683D01*
X32606Y40013D02*
X32706D01*
X32806Y40113D01*
X32906Y40013D01*
X33006D01*
Y40113D01*
X32906Y40213D01*
X33006Y40313D01*
Y40413D01*
X32906D01*
X32806Y40313D01*
X32706Y40413D01*
X32606D01*
Y40313D01*
X32706Y40213D01*
X32606Y40113D01*
Y40013D01*
X33316Y39994D02*
X33416D01*
X33516Y40094D01*
X33616Y39994D01*
X33716D01*
Y40094D01*
X33616Y40194D01*
X33716Y40294D01*
Y40394D01*
X33616D01*
X33516Y40294D01*
X33416Y40394D01*
X33316D01*
Y40294D01*
X33416Y40194D01*
X33316Y40094D01*
Y39994D01*
X29350Y40000D02*
X29150Y40400D01*
X29550D01*
X29350Y40000D01*
X35800Y41600D02*
Y41500D01*
X36000D01*
Y41600D01*
X36100D01*
Y41800D01*
X36000D01*
Y41900D01*
X35800D01*
Y41800D01*
X35700D01*
Y41600D01*
X35800D01*
X33709Y42350D02*
Y42250D01*
X33909D01*
Y42350D01*
X34009D01*
Y42550D01*
X33909D01*
Y42650D01*
X33709D01*
Y42550D01*
X33609D01*
Y42350D01*
X33709D01*
X34500Y41600D02*
Y41500D01*
X34700D01*
Y41600D01*
X34800D01*
Y41800D01*
X34700D01*
Y41900D01*
X34500D01*
Y41800D01*
X34400D01*
Y41600D01*
X34500D01*
X39402Y40448D02*
Y40348D01*
X39602D01*
Y40448D01*
X39702D01*
Y40648D01*
X39602D01*
Y40748D01*
X39402D01*
Y40648D01*
X39302D01*
Y40448D01*
X39402D01*
Y35651D02*
Y35551D01*
X39602D01*
Y35651D01*
X39702D01*
Y35851D01*
X39602D01*
Y35951D01*
X39402D01*
Y35851D01*
X39302D01*
Y35651D01*
X39402D01*
X41450Y42800D02*
X41250Y43200D01*
X41650D01*
X41450Y42800D01*
X43450Y38150D02*
X43250Y38550D01*
X43650D01*
X43450Y38150D01*
X50700Y60750D02*
X50500Y61150D01*
X50900D01*
X50700Y60750D01*
X49100Y52769D02*
Y52669D01*
X49300D01*
Y52769D01*
X49400D01*
Y52969D01*
X49300D01*
Y53069D01*
X49100D01*
Y52969D01*
X49000D01*
Y52769D01*
X49100D01*
X48250Y50906D02*
X48350D01*
X48450Y51006D01*
X48550Y50906D01*
X48650D01*
Y51006D01*
X48550Y51106D01*
X48650Y51206D01*
Y51306D01*
X48550D01*
X48450Y51206D01*
X48350Y51306D01*
X48250D01*
Y51206D01*
X48350Y51106D01*
X48250Y51006D01*
Y50906D01*
Y51650D02*
X48350D01*
X48450Y51750D01*
X48550Y51650D01*
X48650D01*
Y51750D01*
X48550Y51850D01*
X48650Y51950D01*
Y52050D01*
X48550D01*
X48450Y51950D01*
X48350Y52050D01*
X48250D01*
Y51950D01*
X48350Y51850D01*
X48250Y51750D01*
Y51650D01*
X49000Y50906D02*
X49100D01*
X49200Y51006D01*
X49300Y50906D01*
X49400D01*
Y51006D01*
X49300Y51106D01*
X49400Y51206D01*
Y51306D01*
X49300D01*
X49200Y51206D01*
X49100Y51306D01*
X49000D01*
Y51206D01*
X49100Y51106D01*
X49000Y51006D01*
Y50906D01*
X49466Y55376D02*
Y55276D01*
X49666D01*
Y55376D01*
X49766D01*
Y55576D01*
X49666D01*
Y55676D01*
X49466D01*
Y55576D01*
X49366D01*
Y55376D01*
X49466D01*
X48350Y53541D02*
Y53441D01*
X48550D01*
Y53541D01*
X48650D01*
Y53741D01*
X48550D01*
Y53841D01*
X48350D01*
Y53741D01*
X48250D01*
Y53541D01*
X48350D01*
X24770Y54416D02*
X24570Y54816D01*
X24970D01*
X24770Y54416D01*
X22169Y52782D02*
Y52681D01*
X22369D01*
Y52782D01*
X22469D01*
Y52982D01*
X22369D01*
Y53081D01*
X22169D01*
Y52982D01*
X22069D01*
Y52782D01*
X22169D01*
X21793Y52131D02*
X21593Y52531D01*
X21993D01*
X21793Y52131D01*
X24413Y52459D02*
X24213Y52859D01*
X24613D01*
X24413Y52459D01*
X26595Y52830D02*
X26395Y53230D01*
X26795D01*
X26595Y52830D01*
X26060Y53724D02*
Y53624D01*
X26260D01*
Y53724D01*
X26360D01*
Y53924D01*
X26260D01*
Y54024D01*
X26060D01*
Y53924D01*
X25960D01*
Y53724D01*
X26060D01*
X29759Y61956D02*
X29559Y62356D01*
X29959D01*
X29759Y61956D01*
X33869Y59064D02*
X33669Y59464D01*
X34069D01*
X33869Y59064D01*
X34344Y59575D02*
X34144Y59975D01*
X34544D01*
X34344Y59575D01*
X29039Y51978D02*
X28839Y52378D01*
X29239D01*
X29039Y51978D01*
X33333Y64452D02*
X33133Y64852D01*
X33533D01*
X33333Y64452D01*
X39308Y48901D02*
X39408D01*
X39508Y49001D01*
X39608Y48901D01*
X39708D01*
Y49001D01*
X39608Y49101D01*
X39708Y49201D01*
Y49301D01*
X39608D01*
X39508Y49201D01*
X39408Y49301D01*
X39308D01*
Y49201D01*
X39408Y49101D01*
X39308Y49001D01*
Y48901D01*
X26164Y45223D02*
X26264D01*
X26364Y45323D01*
X26464Y45223D01*
X26564D01*
Y45323D01*
X26464Y45423D01*
X26564Y45523D01*
Y45623D01*
X26464D01*
X26364Y45523D01*
X26264Y45623D01*
X26164D01*
Y45523D01*
X26264Y45423D01*
X26164Y45323D01*
Y45223D01*
X43526Y35726D02*
X43626D01*
X43726Y35826D01*
X43826Y35726D01*
X43926D01*
Y35826D01*
X43826Y35926D01*
X43926Y36026D01*
Y36126D01*
X43826D01*
X43726Y36026D01*
X43626Y36126D01*
X43526D01*
Y36026D01*
X43626Y35926D01*
X43526Y35826D01*
Y35726D01*
X29336Y48026D02*
Y47926D01*
X29536D01*
Y48026D01*
X29636D01*
Y48226D01*
X29536D01*
Y48326D01*
X29336D01*
Y48226D01*
X29236D01*
Y48026D01*
X29336D01*
X35000Y37400D02*
X35100D01*
X35200Y37500D01*
X35300Y37400D01*
X35400D01*
Y37500D01*
X35300Y37600D01*
X35400Y37700D01*
Y37800D01*
X35300D01*
X35200Y37700D01*
X35100Y37800D01*
X35000D01*
Y37700D01*
X35100Y37600D01*
X35000Y37500D01*
Y37400D01*
X34200D02*
X34300D01*
X34400Y37500D01*
X34500Y37400D01*
X34600D01*
Y37500D01*
X34500Y37600D01*
X34600Y37700D01*
Y37800D01*
X34500D01*
X34400Y37700D01*
X34300Y37800D01*
X34200D01*
Y37700D01*
X34300Y37600D01*
X34200Y37500D01*
Y37400D01*
Y37950D02*
X34300D01*
X34400Y38050D01*
X34500Y37950D01*
X34600D01*
Y38050D01*
X34500Y38150D01*
X34600Y38250D01*
Y38350D01*
X34500D01*
X34400Y38250D01*
X34300Y38350D01*
X34200D01*
Y38250D01*
X34300Y38150D01*
X34200Y38050D01*
Y37950D01*
X36900Y37400D02*
X37000D01*
X37100Y37500D01*
X37200Y37400D01*
X37300D01*
Y37500D01*
X37200Y37600D01*
X37300Y37700D01*
Y37800D01*
X37200D01*
X37100Y37700D01*
X37000Y37800D01*
X36900D01*
Y37700D01*
X37000Y37600D01*
X36900Y37500D01*
Y37400D01*
X37550Y37850D02*
X37650D01*
X37750Y37950D01*
X37850Y37850D01*
X37950D01*
Y37950D01*
X37850Y38050D01*
X37950Y38150D01*
Y38250D01*
X37850D01*
X37750Y38150D01*
X37650Y38250D01*
X37550D01*
Y38150D01*
X37650Y38050D01*
X37550Y37950D01*
Y37850D01*
X35600Y37400D02*
X35700D01*
X35800Y37500D01*
X35900Y37400D01*
X36000D01*
Y37500D01*
X35900Y37600D01*
X36000Y37700D01*
Y37800D01*
X35900D01*
X35800Y37700D01*
X35700Y37800D01*
X35600D01*
Y37700D01*
X35700Y37600D01*
X35600Y37500D01*
Y37400D01*
X36250D02*
X36350D01*
X36450Y37500D01*
X36550Y37400D01*
X36650D01*
Y37500D01*
X36550Y37600D01*
X36650Y37700D01*
Y37800D01*
X36550D01*
X36450Y37700D01*
X36350Y37800D01*
X36250D01*
Y37700D01*
X36350Y37600D01*
X36250Y37500D01*
Y37400D01*
X34200Y36700D02*
X34000Y37100D01*
X34400D01*
X34200Y36700D01*
X37550Y37350D02*
X37650D01*
X37750Y37450D01*
X37850Y37350D01*
X37950D01*
Y37450D01*
X37850Y37550D01*
X37950Y37650D01*
Y37750D01*
X37850D01*
X37750Y37650D01*
X37650Y37750D01*
X37550D01*
Y37650D01*
X37650Y37550D01*
X37550Y37450D01*
Y37350D01*
X37120Y47715D02*
X36920Y48115D01*
X37320D01*
X37120Y47715D01*
X37050Y43900D02*
X36850Y44300D01*
X37250D01*
X37050Y43900D01*
X37550Y42950D02*
X37350Y43350D01*
X37750D01*
X37550Y42950D01*
X36129Y45794D02*
Y45694D01*
X36329D01*
Y45794D01*
X36429D01*
Y45994D01*
X36329D01*
Y46094D01*
X36129D01*
Y45994D01*
X36029D01*
Y45794D01*
X36129D01*
X38650Y44100D02*
X38450Y44500D01*
X38850D01*
X38650Y44100D01*
X25700Y35461D02*
X25500Y35861D01*
X25900D01*
X25700Y35461D01*
X25650Y33100D02*
X25450Y33500D01*
X25850D01*
X25650Y33100D01*
X49361Y41612D02*
Y41512D01*
X49561D01*
Y41612D01*
X49661D01*
Y41812D01*
X49561D01*
Y41912D01*
X49361D01*
Y41812D01*
X49261D01*
Y41612D01*
X49361D01*
X35830Y49506D02*
X35930D01*
X36030Y49606D01*
X36130Y49506D01*
X36230D01*
Y49606D01*
X36130Y49706D01*
X36230Y49806D01*
Y49906D01*
X36130D01*
X36030Y49806D01*
X35930Y49906D01*
X35830D01*
Y49806D01*
X35930Y49706D01*
X35830Y49606D01*
Y49506D01*
X39521Y55080D02*
Y54980D01*
X39721D01*
Y55080D01*
X39821D01*
Y55280D01*
X39721D01*
Y55380D01*
X39521D01*
Y55280D01*
X39421D01*
Y55080D01*
X39521D01*
X47500Y50906D02*
X47600D01*
X47700Y51006D01*
X47800Y50906D01*
X47900D01*
Y51006D01*
X47800Y51106D01*
X47900Y51206D01*
Y51306D01*
X47800D01*
X47700Y51206D01*
X47600Y51306D01*
X47500D01*
Y51206D01*
X47600Y51106D01*
X47500Y51006D01*
Y50906D01*
Y51650D02*
X47600D01*
X47700Y51750D01*
X47800Y51650D01*
X47900D01*
Y51750D01*
X47800Y51850D01*
X47900Y51950D01*
Y52050D01*
X47800D01*
X47700Y51950D01*
X47600Y52050D01*
X47500D01*
Y51950D01*
X47600Y51850D01*
X47500Y51750D01*
Y51650D01*
Y52435D02*
X47600D01*
X47700Y52535D01*
X47800Y52435D01*
X47900D01*
Y52535D01*
X47800Y52635D01*
X47900Y52735D01*
Y52835D01*
X47800D01*
X47700Y52735D01*
X47600Y52835D01*
X47500D01*
Y52735D01*
X47600Y52635D01*
X47500Y52535D01*
Y52435D01*
X46750Y51650D02*
X46850D01*
X46950Y51750D01*
X47050Y51650D01*
X47150D01*
Y51750D01*
X47050Y51850D01*
X47150Y51950D01*
Y52050D01*
X47050D01*
X46950Y51950D01*
X46850Y52050D01*
X46750D01*
Y51950D01*
X46850Y51850D01*
X46750Y51750D01*
Y51650D01*
Y53288D02*
X46850D01*
X46950Y53388D01*
X47050Y53288D01*
X47150D01*
Y53388D01*
X47050Y53488D01*
X47150Y53588D01*
Y53688D01*
X47050D01*
X46950Y53588D01*
X46850Y53688D01*
X46750D01*
Y53588D01*
X46850Y53488D01*
X46750Y53388D01*
Y53288D01*
Y58150D02*
X46850D01*
X46950Y58250D01*
X47050Y58150D01*
X47150D01*
Y58250D01*
X47050Y58350D01*
X47150Y58450D01*
Y58550D01*
X47050D01*
X46950Y58450D01*
X46850Y58550D01*
X46750D01*
Y58450D01*
X46850Y58350D01*
X46750Y58250D01*
Y58150D01*
Y50906D02*
X46850D01*
X46950Y51006D01*
X47050Y50906D01*
X47150D01*
Y51006D01*
X47050Y51106D01*
X47150Y51206D01*
Y51306D01*
X47050D01*
X46950Y51206D01*
X46850Y51306D01*
X46750D01*
Y51206D01*
X46850Y51106D01*
X46750Y51006D01*
Y50906D01*
X46050Y57450D02*
X46150D01*
X46250Y57550D01*
X46350Y57450D01*
X46450D01*
Y57550D01*
X46350Y57650D01*
X46450Y57750D01*
Y57850D01*
X46350D01*
X46250Y57750D01*
X46150Y57850D01*
X46050D01*
Y57750D01*
X46150Y57650D01*
X46050Y57550D01*
Y57450D01*
X33466Y68053D02*
Y67953D01*
X33666D01*
Y68053D01*
X33766D01*
Y68253D01*
X33666D01*
Y68353D01*
X33466D01*
Y68253D01*
X33366D01*
Y68053D01*
X33466D01*
Y66481D02*
Y66381D01*
X33666D01*
Y66481D01*
X33766D01*
Y66681D01*
X33666D01*
Y66781D01*
X33466D01*
Y66681D01*
X33366D01*
Y66481D01*
X33466D01*
X25100Y45750D02*
X24900Y46150D01*
X25300D01*
X25100Y45750D01*
X46378Y66800D02*
X46178Y67200D01*
X46578D01*
X46378Y66800D01*
X49488Y68619D02*
X49288Y69019D01*
X49688D01*
X49488Y68619D01*
X47164Y68069D02*
Y67969D01*
X47364D01*
Y68069D01*
X47464D01*
Y68269D01*
X47364D01*
Y68369D01*
X47164D01*
Y68269D01*
X47064D01*
Y68069D01*
X47164D01*
X44250D02*
Y67969D01*
X44450D01*
Y68069D01*
X44550D01*
Y68269D01*
X44450D01*
Y68369D01*
X44250D01*
Y68269D01*
X44150D01*
Y68069D01*
X44250D01*
X23838Y60877D02*
X23638Y61277D01*
X24038D01*
X23838Y60877D01*
Y61534D02*
X23638Y61934D01*
X24038D01*
X23838Y61534D01*
X25589Y56891D02*
X25389Y57291D01*
X25789D01*
X25589Y56891D01*
X35400Y57450D02*
X35200Y57850D01*
X35600D01*
X35400Y57450D01*
X36500D02*
X36300Y57850D01*
X36700D01*
X36500Y57450D01*
X34200Y39750D02*
X34300D01*
X34400Y39850D01*
X34500Y39750D01*
X34600D01*
Y39850D01*
X34500Y39950D01*
X34600Y40050D01*
Y40150D01*
X34500D01*
X34400Y40050D01*
X34300Y40150D01*
X34200D01*
Y40050D01*
X34300Y39950D01*
X34200Y39850D01*
Y39750D01*
Y39150D02*
X34300D01*
X34400Y39250D01*
X34500Y39150D01*
X34600D01*
Y39250D01*
X34500Y39350D01*
X34600Y39450D01*
Y39550D01*
X34500D01*
X34400Y39450D01*
X34300Y39550D01*
X34200D01*
Y39450D01*
X34300Y39350D01*
X34200Y39250D01*
Y39150D01*
Y38550D02*
X34300D01*
X34400Y38650D01*
X34500Y38550D01*
X34600D01*
Y38650D01*
X34500Y38750D01*
X34600Y38850D01*
Y38950D01*
X34500D01*
X34400Y38850D01*
X34300Y38950D01*
X34200D01*
Y38850D01*
X34300Y38750D01*
X34200Y38650D01*
Y38550D01*
X37550Y38350D02*
X37650D01*
X37750Y38450D01*
X37850Y38350D01*
X37950D01*
Y38450D01*
X37850Y38550D01*
X37950Y38650D01*
Y38750D01*
X37850D01*
X37750Y38650D01*
X37650Y38750D01*
X37550D01*
Y38650D01*
X37650Y38550D01*
X37550Y38450D01*
Y38350D01*
Y38850D02*
X37650D01*
X37750Y38950D01*
X37850Y38850D01*
X37950D01*
Y38950D01*
X37850Y39050D01*
X37950Y39150D01*
Y39250D01*
X37850D01*
X37750Y39150D01*
X37650Y39250D01*
X37550D01*
Y39150D01*
X37650Y39050D01*
X37550Y38950D01*
Y38850D01*
Y39350D02*
X37650D01*
X37750Y39450D01*
X37850Y39350D01*
X37950D01*
Y39450D01*
X37850Y39550D01*
X37950Y39650D01*
Y39750D01*
X37850D01*
X37750Y39650D01*
X37650Y39750D01*
X37550D01*
Y39650D01*
X37650Y39550D01*
X37550Y39450D01*
Y39350D01*
Y39850D02*
X37650D01*
X37750Y39950D01*
X37850Y39850D01*
X37950D01*
Y39950D01*
X37850Y40050D01*
X37950Y40150D01*
Y40250D01*
X37850D01*
X37750Y40150D01*
X37650Y40250D01*
X37550D01*
Y40150D01*
X37650Y40050D01*
X37550Y39950D01*
Y39850D01*
X35900Y52550D02*
X36100Y52750D01*
X36300Y52550D01*
X36100Y52350D01*
X35900Y52550D01*
X53250Y39600D02*
Y39500D01*
X53450D01*
Y39600D01*
X53550D01*
Y39800D01*
X53450D01*
Y39900D01*
X53250D01*
Y39800D01*
X53150D01*
Y39600D01*
X53250D01*
X44350Y37350D02*
Y37250D01*
X44550D01*
Y37350D01*
X44650D01*
Y37550D01*
X44550D01*
Y37650D01*
X44350D01*
Y37550D01*
X44250D01*
Y37350D01*
X44350D01*
X50100Y33900D02*
Y33800D01*
X50300D01*
Y33900D01*
X50400D01*
Y34100D01*
X50300D01*
Y34200D01*
X50100D01*
Y34100D01*
X50000D01*
Y33900D01*
X50100D01*
X41450Y33600D02*
Y33500D01*
X41650D01*
Y33600D01*
X41750D01*
Y33800D01*
X41650D01*
Y33900D01*
X41450D01*
Y33800D01*
X41350D01*
Y33600D01*
X41450D01*
X33751Y51809D02*
X33951Y52009D01*
X34151Y51809D01*
X33951Y51609D01*
X33751Y51809D01*
X31680Y50690D02*
X31880Y50890D01*
X32080Y50690D01*
X31880Y50490D01*
X31680Y50690D01*
X41360Y51750D02*
X41460D01*
X41560Y51850D01*
X41660Y51750D01*
X41760D01*
Y51850D01*
X41660Y51950D01*
X41760Y52050D01*
Y52150D01*
X41660D01*
X41560Y52050D01*
X41460Y52150D01*
X41360D01*
Y52050D01*
X41460Y51950D01*
X41360Y51850D01*
Y51750D01*
X27150Y47200D02*
X26950Y47600D01*
X27350D01*
X27150Y47200D01*
X29000Y37650D02*
X28800Y38050D01*
X29200D01*
X29000Y37650D01*
X30800Y42350D02*
X30600Y42750D01*
X31000D01*
X30800Y42350D01*
Y41350D02*
X30600Y41750D01*
X31000D01*
X30800Y41350D01*
X29400Y35450D02*
X29200Y35850D01*
X29600D01*
X29400Y35450D01*
X31550Y37150D02*
X31350Y37550D01*
X31750D01*
X31550Y37150D01*
X26630Y52118D02*
X26430Y52518D01*
X26830D01*
X26630Y52118D01*
X29552Y51535D02*
X29352Y51935D01*
X29752D01*
X29552Y51535D01*
X27789Y48761D02*
X27589Y49161D01*
X27989D01*
X27789Y48761D01*
X25550Y32300D02*
X25350Y32700D01*
X25750D01*
X25550Y32300D01*
X40850Y34100D02*
X40650Y34500D01*
X41050D01*
X40850Y34100D01*
X41900Y43600D02*
X41700Y44000D01*
X42100D01*
X41900Y43600D01*
X40421Y51127D02*
X40221Y51527D01*
X40621D01*
X40421Y51127D01*
X45360Y50906D02*
X45460D01*
X45560Y51006D01*
X45660Y50906D01*
X45760D01*
Y51006D01*
X45660Y51106D01*
X45760Y51206D01*
Y51306D01*
X45660D01*
X45560Y51206D01*
X45460Y51306D01*
X45360D01*
Y51206D01*
X45460Y51106D01*
X45360Y51006D01*
Y50906D01*
Y56700D02*
X45460D01*
X45560Y56800D01*
X45660Y56700D01*
X45760D01*
Y56800D01*
X45660Y56900D01*
X45760Y57000D01*
Y57100D01*
X45660D01*
X45560Y57000D01*
X45460Y57100D01*
X45360D01*
Y57000D01*
X45460Y56900D01*
X45360Y56800D01*
Y56700D01*
Y57450D02*
X45460D01*
X45560Y57550D01*
X45660Y57450D01*
X45760D01*
Y57550D01*
X45660Y57650D01*
X45760Y57750D01*
Y57850D01*
X45660D01*
X45560Y57750D01*
X45460Y57850D01*
X45360D01*
Y57750D01*
X45460Y57650D01*
X45360Y57550D01*
Y57450D01*
X46750Y52435D02*
X46850D01*
X46950Y52535D01*
X47050Y52435D01*
X47150D01*
Y52535D01*
X47050Y52635D01*
X47150Y52735D01*
Y52835D01*
X47050D01*
X46950Y52735D01*
X46850Y52835D01*
X46750D01*
Y52735D01*
X46850Y52635D01*
X46750Y52535D01*
Y52435D01*
Y54141D02*
X46850D01*
X46950Y54241D01*
X47050Y54141D01*
X47150D01*
Y54241D01*
X47050Y54341D01*
X47150Y54441D01*
Y54541D01*
X47050D01*
X46950Y54441D01*
X46850Y54541D01*
X46750D01*
Y54441D01*
X46850Y54341D01*
X46750Y54241D01*
Y54141D01*
Y54994D02*
X46850D01*
X46950Y55094D01*
X47050Y54994D01*
X47150D01*
Y55094D01*
X47050Y55194D01*
X47150Y55294D01*
Y55394D01*
X47050D01*
X46950Y55294D01*
X46850Y55394D01*
X46750D01*
Y55294D01*
X46850Y55194D01*
X46750Y55094D01*
Y54994D01*
X34560Y51929D02*
X34760Y52129D01*
X34960Y51929D01*
X34760Y51729D01*
X34560Y51929D01*
X34642Y46304D02*
X34442Y46704D01*
X34842D01*
X34642Y46304D01*
X39721Y43938D02*
X39521Y44338D01*
X39921D01*
X39721Y43938D01*
X40294Y43284D02*
X40094Y43684D01*
X40494D01*
X40294Y43284D01*
X50260Y35477D02*
X50060Y35877D01*
X50460D01*
X50260Y35477D01*
Y36776D02*
X50060Y37176D01*
X50460D01*
X50260Y36776D01*
X41360Y53400D02*
X41460D01*
X41560Y53500D01*
X41660Y53400D01*
X41760D01*
Y53500D01*
X41660Y53600D01*
X41760Y53700D01*
Y53800D01*
X41660D01*
X41560Y53700D01*
X41460Y53800D01*
X41360D01*
Y53700D01*
X41460Y53600D01*
X41360Y53500D01*
Y53400D01*
Y52550D02*
X41460D01*
X41560Y52650D01*
X41660Y52550D01*
X41760D01*
Y52650D01*
X41660Y52750D01*
X41760Y52850D01*
Y52950D01*
X41660D01*
X41560Y52850D01*
X41460Y52950D01*
X41360D01*
Y52850D01*
X41460Y52750D01*
X41360Y52650D01*
Y52550D01*
Y50900D02*
X41460D01*
X41560Y51000D01*
X41660Y50900D01*
X41760D01*
Y51000D01*
X41660Y51100D01*
X41760Y51200D01*
Y51300D01*
X41660D01*
X41560Y51200D01*
X41460Y51300D01*
X41360D01*
Y51200D01*
X41460Y51100D01*
X41360Y51000D01*
Y50900D01*
X32280Y51590D02*
X32480Y51790D01*
X32680Y51590D01*
X32480Y51390D01*
X32280Y51590D01*
X32380Y50740D02*
X32580Y50940D01*
X32780Y50740D01*
X32580Y50540D01*
X32380Y50740D01*
X31630Y51812D02*
X31830Y52012D01*
X32030Y51812D01*
X31830Y51612D01*
X31630Y51812D01*
X32966Y51809D02*
X33166Y52009D01*
X33366Y51809D01*
X33166Y51609D01*
X32966Y51809D01*
X33751Y52583D02*
X33951Y52783D01*
X34151Y52583D01*
X33951Y52383D01*
X33751Y52583D01*
X33748Y51043D02*
X33948Y51243D01*
X34148Y51043D01*
X33948Y50843D01*
X33748Y51043D01*
X34830Y53240D02*
X35030Y53440D01*
X35230Y53240D01*
X35030Y53040D01*
X34830Y53240D01*
X35230Y52490D02*
X35430Y52690D01*
X35630Y52490D01*
X35430Y52290D01*
X35230Y52490D01*
X34630Y50406D02*
X34830Y50606D01*
X35030Y50406D01*
X34830Y50206D01*
X34630Y50406D01*
X34530Y51040D02*
X34730Y51240D01*
X34930Y51040D01*
X34730Y50840D01*
X34530Y51040D01*
X35542Y50628D02*
X35742Y50828D01*
X35942Y50628D01*
X35742Y50428D01*
X35542Y50628D01*
X33954Y53868D02*
X34154Y54068D01*
X34354Y53868D01*
X34154Y53668D01*
X33954Y53868D01*
X32330Y53190D02*
X32530Y53390D01*
X32730Y53190D01*
X32530Y52990D01*
X32330Y53190D01*
X33180Y53640D02*
X33380Y53840D01*
X33580Y53640D01*
X33380Y53440D01*
X33180Y53640D01*
X41360Y55817D02*
X41460D01*
X41560Y55917D01*
X41660Y55817D01*
X41760D01*
Y55917D01*
X41660Y56017D01*
X41760Y56117D01*
Y56217D01*
X41660D01*
X41560Y56117D01*
X41460Y56217D01*
X41360D01*
Y56117D01*
X41460Y56017D01*
X41360Y55917D01*
Y55817D01*
Y55050D02*
X41460D01*
X41560Y55150D01*
X41660Y55050D01*
X41760D01*
Y55150D01*
X41660Y55250D01*
X41760Y55350D01*
Y55450D01*
X41660D01*
X41560Y55350D01*
X41460Y55450D01*
X41360D01*
Y55350D01*
X41460Y55250D01*
X41360Y55150D01*
Y55050D01*
X44627Y58150D02*
X44727D01*
X44827Y58250D01*
X44927Y58150D01*
X45027D01*
Y58250D01*
X44927Y58350D01*
X45027Y58450D01*
Y58550D01*
X44927D01*
X44827Y58450D01*
X44727Y58550D01*
X44627D01*
Y58450D01*
X44727Y58350D01*
X44627Y58250D01*
Y58150D01*
X41360Y56584D02*
X41460D01*
X41560Y56684D01*
X41660Y56584D01*
X41760D01*
Y56684D01*
X41660Y56784D01*
X41760Y56884D01*
Y56984D01*
X41660D01*
X41560Y56884D01*
X41460Y56984D01*
X41360D01*
Y56884D01*
X41460Y56784D01*
X41360Y56684D01*
Y56584D01*
X44627Y56700D02*
X44727D01*
X44827Y56800D01*
X44927Y56700D01*
X45027D01*
Y56800D01*
X44927Y56900D01*
X45027Y57000D01*
Y57100D01*
X44927D01*
X44827Y57000D01*
X44727Y57100D01*
X44627D01*
Y57000D01*
X44727Y56900D01*
X44627Y56800D01*
Y56700D01*
X32207Y61699D02*
X32007Y62099D01*
X32407D01*
X32207Y61699D01*
X41360Y58150D02*
X41460D01*
X41560Y58250D01*
X41660Y58150D01*
X41760D01*
Y58250D01*
X41660Y58350D01*
X41760Y58450D01*
Y58550D01*
X41660D01*
X41560Y58450D01*
X41460Y58550D01*
X41360D01*
Y58450D01*
X41460Y58350D01*
X41360Y58250D01*
Y58150D01*
Y57350D02*
X41460D01*
X41560Y57450D01*
X41660Y57350D01*
X41760D01*
Y57450D01*
X41660Y57550D01*
X41760Y57650D01*
Y57750D01*
X41660D01*
X41560Y57650D01*
X41460Y57750D01*
X41360D01*
Y57650D01*
X41460Y57550D01*
X41360Y57450D01*
Y57350D01*
X35600Y53700D02*
X35400Y54100D01*
X35800D01*
X35600Y53700D01*
X35863Y51630D02*
X36063Y51830D01*
X36263Y51630D01*
X36063Y51430D01*
X35863Y51630D01*
X37100Y54700D02*
X36900Y55100D01*
X37300D01*
X37100Y54700D01*
X38030Y54390D02*
X37830Y54790D01*
X38230D01*
X38030Y54390D01*
X33580Y50190D02*
X33780Y50390D01*
X33980Y50190D01*
X33780Y49990D01*
X33580Y50190D01*
X44627Y50908D02*
X44727D01*
X44827Y51008D01*
X44927Y50908D01*
X45027D01*
Y51008D01*
X44927Y51108D01*
X45027Y51208D01*
Y51308D01*
X44927D01*
X44827Y51208D01*
X44727Y51308D01*
X44627D01*
Y51208D01*
X44727Y51108D01*
X44627Y51008D01*
Y50908D01*
X45360Y58150D02*
X45460D01*
X45560Y58250D01*
X45660Y58150D01*
X45760D01*
Y58250D01*
X45660Y58350D01*
X45760Y58450D01*
Y58550D01*
X45660D01*
X45560Y58450D01*
X45460Y58550D01*
X45360D01*
Y58450D01*
X45460Y58350D01*
X45360Y58250D01*
Y58150D01*
X43894D02*
X43994D01*
X44094Y58250D01*
X44194Y58150D01*
X44294D01*
Y58250D01*
X44194Y58350D01*
X44294Y58450D01*
Y58550D01*
X44194D01*
X44094Y58450D01*
X43994Y58550D01*
X43894D01*
Y58450D01*
X43994Y58350D01*
X43894Y58250D01*
Y58150D01*
X44627Y57450D02*
X44727D01*
X44827Y57550D01*
X44927Y57450D01*
X45027D01*
Y57550D01*
X44927Y57650D01*
X45027Y57750D01*
Y57850D01*
X44927D01*
X44827Y57750D01*
X44727Y57850D01*
X44627D01*
Y57750D01*
X44727Y57650D01*
X44627Y57550D01*
Y57450D01*
X43160Y58150D02*
X43260D01*
X43360Y58250D01*
X43460Y58150D01*
X43560D01*
Y58250D01*
X43460Y58350D01*
X43560Y58450D01*
Y58550D01*
X43460D01*
X43360Y58450D01*
X43260Y58550D01*
X43160D01*
Y58450D01*
X43260Y58350D01*
X43160Y58250D01*
Y58150D01*
X32573Y49745D02*
X32773Y49945D01*
X32973Y49745D01*
X32773Y49545D01*
X32573Y49745D01*
X35409Y46040D02*
X35209Y46440D01*
X35609D01*
X35409Y46040D01*
X33925Y46741D02*
X33725Y47141D01*
X34125D01*
X33925Y46741D01*
X46250Y43400D02*
X46050Y43800D01*
X46450D01*
X46250Y43400D01*
X44600Y43450D02*
X44400Y43850D01*
X44800D01*
X44600Y43450D01*
X46750Y39800D02*
X46550Y40200D01*
X46950D01*
X46750Y39800D01*
Y42650D02*
X46550Y43050D01*
X46950D01*
X46750Y42650D01*
X44750Y41400D02*
X44550Y41800D01*
X44950D01*
X44750Y41400D01*
X45200Y38450D02*
X45000Y38850D01*
X45400D01*
X45200Y38450D01*
X48250Y34700D02*
X48050Y35100D01*
X48450D01*
X48250Y34700D01*
X45900Y34050D02*
X45700Y34450D01*
X46100D01*
X45900Y34050D01*
X20714Y33823D02*
X20514Y34223D01*
X20914D01*
X20714Y33823D01*
X23996Y64996D02*
X23796Y65396D01*
X24196D01*
X23996Y64996D01*
X40021Y53759D02*
X39821Y54159D01*
X40221D01*
X40021Y53759D01*
X27868Y50202D02*
X27668Y50602D01*
X28068D01*
X27868Y50202D01*
X36003Y56351D02*
X35803Y56751D01*
X36203D01*
X36003Y56351D01*
X40456Y51874D02*
X40256Y52274D01*
X40656D01*
X40456Y51874D01*
X40528Y52620D02*
X40328Y53020D01*
X40728D01*
X40528Y52620D01*
X26330Y48098D02*
X26130Y48498D01*
X26530D01*
X26330Y48098D01*
X23057Y57904D02*
X22857Y58304D01*
X23257D01*
X23057Y57904D01*
X25080Y56382D02*
X24880Y56782D01*
X25280D01*
X25080Y56382D01*
X21793Y56106D02*
X21593Y56506D01*
X21993D01*
X21793Y56106D01*
X46050Y53288D02*
X46150D01*
X46250Y53388D01*
X46350Y53288D01*
X46450D01*
Y53388D01*
X46350Y53488D01*
X46450Y53588D01*
Y53688D01*
X46350D01*
X46250Y53588D01*
X46150Y53688D01*
X46050D01*
Y53588D01*
X46150Y53488D01*
X46050Y53388D01*
Y53288D01*
Y54141D02*
X46150D01*
X46250Y54241D01*
X46350Y54141D01*
X46450D01*
Y54241D01*
X46350Y54341D01*
X46450Y54441D01*
Y54541D01*
X46350D01*
X46250Y54441D01*
X46150Y54541D01*
X46050D01*
Y54441D01*
X46150Y54341D01*
X46050Y54241D01*
Y54141D01*
X46750Y55847D02*
X46850D01*
X46950Y55947D01*
X47050Y55847D01*
X47150D01*
Y55947D01*
X47050Y56047D01*
X47150Y56147D01*
Y56247D01*
X47050D01*
X46950Y56147D01*
X46850Y56247D01*
X46750D01*
Y56147D01*
X46850Y56047D01*
X46750Y55947D01*
Y55847D01*
X46050Y50906D02*
X46150D01*
X46250Y51006D01*
X46350Y50906D01*
X46450D01*
Y51006D01*
X46350Y51106D01*
X46450Y51206D01*
Y51306D01*
X46350D01*
X46250Y51206D01*
X46150Y51306D01*
X46050D01*
Y51206D01*
X46150Y51106D01*
X46050Y51006D01*
Y50906D01*
X46750Y56700D02*
X46850D01*
X46950Y56800D01*
X47050Y56700D01*
X47150D01*
Y56800D01*
X47050Y56900D01*
X47150Y57000D01*
Y57100D01*
X47050D01*
X46950Y57000D01*
X46850Y57100D01*
X46750D01*
Y57000D01*
X46850Y56900D01*
X46750Y56800D01*
Y56700D01*
Y57450D02*
X46850D01*
X46950Y57550D01*
X47050Y57450D01*
X47150D01*
Y57550D01*
X47050Y57650D01*
X47150Y57750D01*
Y57850D01*
X47050D01*
X46950Y57750D01*
X46850Y57850D01*
X46750D01*
Y57750D01*
X46850Y57650D01*
X46750Y57550D01*
Y57450D01*
X46050Y56700D02*
X46150D01*
X46250Y56800D01*
X46350Y56700D01*
X46450D01*
Y56800D01*
X46350Y56900D01*
X46450Y57000D01*
Y57100D01*
X46350D01*
X46250Y57000D01*
X46150Y57100D01*
X46050D01*
Y57000D01*
X46150Y56900D01*
X46050Y56800D01*
Y56700D01*
Y58150D02*
X46150D01*
X46250Y58250D01*
X46350Y58150D01*
X46450D01*
Y58250D01*
X46350Y58350D01*
X46450Y58450D01*
Y58550D01*
X46350D01*
X46250Y58450D01*
X46150Y58550D01*
X46050D01*
Y58450D01*
X46150Y58350D01*
X46050Y58250D01*
Y58150D01*
X20313Y50900D02*
X20513Y51100D01*
X20713Y50900D01*
X20513Y50700D01*
X20313Y50900D01*
X46769Y45377D02*
X46869D01*
X46969Y45477D01*
X47069Y45377D01*
X47169D01*
Y45477D01*
X47069Y45577D01*
X47169Y45677D01*
Y45777D01*
X47069D01*
X46969Y45677D01*
X46869Y45777D01*
X46769D01*
Y45677D01*
X46869Y45577D01*
X46769Y45477D01*
Y45377D01*
X47252Y44942D02*
X47352D01*
X47452Y45042D01*
X47552Y44942D01*
X47652D01*
Y45042D01*
X47552Y45142D01*
X47652Y45242D01*
Y45342D01*
X47552D01*
X47452Y45242D01*
X47352Y45342D01*
X47252D01*
Y45242D01*
X47352Y45142D01*
X47252Y45042D01*
Y44942D01*
X49000Y50296D02*
X49100D01*
X49200Y50396D01*
X49300Y50296D01*
X49400D01*
Y50396D01*
X49300Y50496D01*
X49400Y50596D01*
Y50696D01*
X49300D01*
X49200Y50596D01*
X49100Y50696D01*
X49000D01*
Y50596D01*
X49100Y50496D01*
X49000Y50396D01*
Y50296D01*
X46048D02*
X46148D01*
X46248Y50396D01*
X46348Y50296D01*
X46448D01*
Y50396D01*
X46348Y50496D01*
X46448Y50596D01*
Y50696D01*
X46348D01*
X46248Y50596D01*
X46148Y50696D01*
X46048D01*
Y50596D01*
X46148Y50496D01*
X46048Y50396D01*
Y50296D01*
X44626D02*
X44726D01*
X44826Y50396D01*
X44926Y50296D01*
X45026D01*
Y50396D01*
X44926Y50496D01*
X45026Y50596D01*
Y50696D01*
X44926D01*
X44826Y50596D01*
X44726Y50696D01*
X44626D01*
Y50596D01*
X44726Y50496D01*
X44626Y50396D01*
Y50296D01*
X45359D02*
X45459D01*
X45559Y50396D01*
X45659Y50296D01*
X45759D01*
Y50396D01*
X45659Y50496D01*
X45759Y50596D01*
Y50696D01*
X45659D01*
X45559Y50596D01*
X45459Y50696D01*
X45359D01*
Y50596D01*
X45459Y50496D01*
X45359Y50396D01*
Y50296D01*
X46748D02*
X46848D01*
X46948Y50396D01*
X47048Y50296D01*
X47148D01*
Y50396D01*
X47048Y50496D01*
X47148Y50596D01*
Y50696D01*
X47048D01*
X46948Y50596D01*
X46848Y50696D01*
X46748D01*
Y50596D01*
X46848Y50496D01*
X46748Y50396D01*
Y50296D01*
X47498D02*
X47598D01*
X47698Y50396D01*
X47798Y50296D01*
X47898D01*
Y50396D01*
X47798Y50496D01*
X47898Y50596D01*
Y50696D01*
X47798D01*
X47698Y50596D01*
X47598Y50696D01*
X47498D01*
Y50596D01*
X47598Y50496D01*
X47498Y50396D01*
Y50296D01*
X48248D02*
X48348D01*
X48448Y50396D01*
X48548Y50296D01*
X48648D01*
Y50396D01*
X48548Y50496D01*
X48648Y50596D01*
Y50696D01*
X48548D01*
X48448Y50596D01*
X48348Y50696D01*
X48248D01*
Y50596D01*
X48348Y50496D01*
X48248Y50396D01*
Y50296D01*
X26820Y60113D02*
X26620Y60513D01*
X27020D01*
X26820Y60113D01*
X27186Y63054D02*
X26986Y63454D01*
X27386D01*
X27186Y63054D01*
X29217Y61407D02*
X29017Y61807D01*
X29417D01*
X29217Y61407D01*
X26850Y58646D02*
X26650Y59046D01*
X27050D01*
X26850Y58646D01*
X26750Y57850D02*
Y57750D01*
X26950D01*
Y57850D01*
X27050D01*
Y58050D01*
X26950D01*
Y58150D01*
X26750D01*
Y58050D01*
X26650D01*
Y57850D01*
X26750D01*
X26850Y59264D02*
X26650Y59664D01*
X27050D01*
X26850Y59264D01*
X31700Y52800D02*
X31900Y53000D01*
X32100Y52800D01*
X31900Y52600D01*
X31700Y52800D01*
X52015Y35684D02*
Y36084D01*
X52415D01*
Y35684D01*
X52015D01*
X52095Y35764D02*
Y36004D01*
X52335D01*
Y35764D01*
X52095D01*
X52015Y37416D02*
Y37816D01*
X52415D01*
Y37416D01*
X52015D01*
X52095Y37496D02*
Y37736D01*
X52335D01*
Y37496D01*
X52095D01*
X24986Y59014D02*
X25186Y59214D01*
X25386Y59014D01*
X25186Y58814D01*
X24986Y59014D01*
X24514D02*
X24714Y59214D01*
X24914Y59014D01*
X24714Y58814D01*
X24514Y59014D01*
Y59486D02*
X24714Y59686D01*
X24914Y59486D01*
X24714Y59286D01*
X24514Y59486D01*
X24986D02*
X25186Y59686D01*
X25386Y59486D01*
X25186Y59286D01*
X24986Y59486D01*
X1017Y26020D02*
X1257Y26260D01*
X1497Y26020D01*
X1257Y25780D01*
X1017Y26020D01*
X1257Y24580D02*
X1017Y25060D01*
X1497D01*
X1257Y24580D01*
X1137Y23500D02*
Y23380D01*
X1377D01*
Y23500D01*
X1497D01*
Y23740D01*
X1377D01*
Y23860D01*
X1137D01*
Y23740D01*
X1017D01*
Y23500D01*
X1137D01*
X1017Y22180D02*
X1137D01*
X1257Y22300D01*
X1377Y22180D01*
X1497D01*
Y22300D01*
X1377Y22420D01*
X1497Y22540D01*
Y22660D01*
X1377D01*
X1257Y22540D01*
X1137Y22660D01*
X1017D01*
Y22540D01*
X1137Y22420D01*
X1017Y22300D01*
Y22180D01*
Y20980D02*
X1137Y21220D01*
X1017Y21460D01*
X1257Y21340D01*
X1497Y21460D01*
X1377Y21220D01*
X1497Y20980D01*
X1257Y21100D01*
X1017Y20980D01*
Y19780D02*
Y20260D01*
X1497D01*
Y19780D01*
X1017D01*
Y18580D02*
Y19060D01*
X1497D01*
Y18580D01*
X1017D01*
X1117Y18680D02*
Y18960D01*
X1397D01*
Y18680D01*
X1117D01*
X1257Y17380D02*
X1377Y17500D01*
X1497D01*
X1377Y17620D01*
X1497Y17740D01*
X1377D01*
X1257Y17860D01*
X1137Y17740D01*
X1017D01*
X1137Y17620D01*
X1017Y17500D01*
X1137D01*
X1257Y17380D01*
D11*
X52050Y67450D02*
G03*
X52050Y67450I-200J0D01*
G01*
X22650Y32476D02*
G03*
X22650Y32476I-200J0D01*
G01*
X52050D02*
G03*
X52050Y32476I-200J0D01*
G01*
X22650Y67450D02*
G03*
X22650Y67450I-200J0D01*
G01*
D12*
X1017Y14520D02*
Y13920D01*
X1317D01*
X1417Y14020D01*
Y14420D01*
X1317Y14520D01*
X1017D01*
X1617Y14320D02*
Y13920D01*
Y14120D01*
X1717Y14220D01*
X1817Y14320D01*
X1917D01*
X2217Y13920D02*
X2417D01*
X2317D01*
Y14320D01*
X2217D01*
X2717Y13920D02*
X2917D01*
X2817D01*
Y14520D01*
X2717D01*
X3217Y13920D02*
X3417D01*
X3317D01*
Y14520D01*
X3217D01*
X4316D02*
Y13920D01*
X4616D01*
X4716Y14020D01*
Y14420D01*
X4616Y14520D01*
X4316D01*
X4916Y14320D02*
Y13920D01*
Y14120D01*
X5016Y14220D01*
X5116Y14320D01*
X5216D01*
X5616D02*
X5816D01*
X5916Y14220D01*
Y13920D01*
X5616D01*
X5516Y14020D01*
X5616Y14120D01*
X5916D01*
X6116Y14320D02*
Y14020D01*
X6216Y13920D01*
X6316Y14020D01*
X6416Y13920D01*
X6516Y14020D01*
Y14320D01*
X6716Y13920D02*
X6916D01*
X6816D01*
Y14320D01*
X6716D01*
X7215Y13920D02*
Y14320D01*
X7515D01*
X7615Y14220D01*
Y13920D01*
X8015Y13720D02*
X8115D01*
X8215Y13820D01*
Y14320D01*
X7915D01*
X7815Y14220D01*
Y14020D01*
X7915Y13920D01*
X8215D01*
X8415D02*
Y14020D01*
X8515D01*
Y13920D01*
X8415D01*
X6456Y25720D02*
X6056D01*
X6456Y26120D01*
Y26220D01*
X6356Y26320D01*
X6156D01*
X6056Y26220D01*
X6656Y26320D02*
X7056D01*
Y26220D01*
X6656Y25820D01*
Y25720D01*
X13014D02*
X13214D01*
X13114D01*
Y26320D01*
X13014Y26220D01*
X13514Y25820D02*
X13614Y25720D01*
X13814D01*
X13914Y25820D01*
Y26220D01*
X13814Y26320D01*
X13614D01*
X13514Y26220D01*
Y26120D01*
X13614Y26020D01*
X13914D01*
X14114Y25720D02*
Y25820D01*
X14214D01*
Y25720D01*
X14114D01*
X15014Y26320D02*
X14814Y26220D01*
X14614Y26020D01*
Y25820D01*
X14714Y25720D01*
X14914D01*
X15014Y25820D01*
Y25920D01*
X14914Y26020D01*
X14614D01*
X15214Y26220D02*
X15314Y26320D01*
X15514D01*
X15613Y26220D01*
Y26120D01*
X15514Y26020D01*
X15613Y25920D01*
Y25820D01*
X15514Y25720D01*
X15314D01*
X15214Y25820D01*
Y25920D01*
X15314Y26020D01*
X15214Y26120D01*
Y26220D01*
X15314Y26020D02*
X15514D01*
X16213Y26320D02*
X15813D01*
Y26020D01*
X16013Y26120D01*
X16113D01*
X16213Y26020D01*
Y25820D01*
X16113Y25720D01*
X15913D01*
X15813Y25820D01*
X16413Y25720D02*
Y26120D01*
X16513D01*
X16613Y26020D01*
Y25720D01*
Y26020D01*
X16713Y26120D01*
X16813Y26020D01*
Y25720D01*
X17013D02*
X17213D01*
X17113D01*
Y26120D01*
X17013D01*
X17513Y25720D02*
X17713D01*
X17613D01*
Y26320D01*
X17513D01*
X18812Y25720D02*
X18613Y25920D01*
Y26120D01*
X18812Y26320D01*
X19112Y26220D02*
X19212Y26320D01*
X19412D01*
X19512Y26220D01*
Y25820D01*
X19412Y25720D01*
X19212D01*
X19112Y25820D01*
Y26220D01*
X19712Y25720D02*
Y25820D01*
X19812D01*
Y25720D01*
X19712D01*
X20612Y26320D02*
X20212D01*
Y26020D01*
X20412Y26120D01*
X20512D01*
X20612Y26020D01*
Y25820D01*
X20512Y25720D01*
X20312D01*
X20212Y25820D01*
X20812Y25720D02*
Y26120D01*
X20912D01*
X21012Y26020D01*
Y25720D01*
Y26020D01*
X21112Y26120D01*
X21212Y26020D01*
Y25720D01*
X21412D02*
Y26120D01*
X21512D01*
X21612Y26020D01*
Y25720D01*
Y26020D01*
X21712Y26120D01*
X21811Y26020D01*
Y25720D01*
X22011D02*
X22211Y25920D01*
Y26120D01*
X22011Y26320D01*
X26450Y25720D02*
Y26320D01*
X26750D01*
X26850Y26220D01*
Y26020D01*
X26750Y25920D01*
X26450D01*
X27050Y26320D02*
X27450D01*
X27250D01*
Y25720D01*
X27650Y26320D02*
Y25720D01*
Y26020D01*
X28050D01*
Y26320D01*
Y25720D01*
X31489D02*
Y26320D01*
X31789D01*
X31889Y26220D01*
Y26020D01*
X31789Y25920D01*
X31489D01*
X31689D02*
X31889Y25720D01*
X32189D02*
X32389D01*
X32489Y25820D01*
Y26020D01*
X32389Y26120D01*
X32189D01*
X32089Y26020D01*
Y25820D01*
X32189Y25720D01*
X32689Y26120D02*
Y25820D01*
X32789Y25720D01*
X33089D01*
Y26120D01*
X33289Y25720D02*
Y26120D01*
X33588D01*
X33688Y26020D01*
Y25720D01*
X34288Y26320D02*
Y25720D01*
X33988D01*
X33888Y25820D01*
Y26020D01*
X33988Y26120D01*
X34288D01*
X6056Y24520D02*
X6256D01*
X6156D01*
Y25120D01*
X6056Y25020D01*
X6556D02*
X6656Y25120D01*
X6856D01*
X6956Y25020D01*
Y24620D01*
X6856Y24520D01*
X6656D01*
X6556Y24620D01*
Y25020D01*
X7156Y25120D02*
X7556D01*
Y25020D01*
X7156Y24620D01*
Y24520D01*
X13414D02*
X13014D01*
X13414Y24920D01*
Y25020D01*
X13314Y25120D01*
X13114D01*
X13014Y25020D01*
X13614D02*
X13714Y25120D01*
X13914D01*
X14014Y25020D01*
Y24920D01*
X13914Y24820D01*
X13814D01*
X13914D01*
X14014Y24720D01*
Y24620D01*
X13914Y24520D01*
X13714D01*
X13614Y24620D01*
X14214Y24520D02*
Y24620D01*
X14314D01*
Y24520D01*
X14214D01*
X15114Y25120D02*
X14914Y25020D01*
X14714Y24820D01*
Y24620D01*
X14814Y24520D01*
X15014D01*
X15114Y24620D01*
Y24720D01*
X15014Y24820D01*
X14714D01*
X15713Y24520D02*
X15314D01*
X15713Y24920D01*
Y25020D01*
X15613Y25120D01*
X15414D01*
X15314Y25020D01*
X16313Y24520D02*
X15913D01*
X16313Y24920D01*
Y25020D01*
X16213Y25120D01*
X16013D01*
X15913Y25020D01*
X16513Y24520D02*
Y24920D01*
X16613D01*
X16713Y24820D01*
Y24520D01*
Y24820D01*
X16813Y24920D01*
X16913Y24820D01*
Y24520D01*
X17113D02*
X17313D01*
X17213D01*
Y24920D01*
X17113D01*
X17613Y24520D02*
X17813D01*
X17713D01*
Y25120D01*
X17613D01*
X18912Y24520D02*
X18712Y24720D01*
Y24920D01*
X18912Y25120D01*
X19212Y25020D02*
X19312Y25120D01*
X19512D01*
X19612Y25020D01*
Y24620D01*
X19512Y24520D01*
X19312D01*
X19212Y24620D01*
Y25020D01*
X19812Y24520D02*
Y24620D01*
X19912D01*
Y24520D01*
X19812D01*
X20712Y25120D02*
X20512Y25020D01*
X20312Y24820D01*
Y24620D01*
X20412Y24520D01*
X20612D01*
X20712Y24620D01*
Y24720D01*
X20612Y24820D01*
X20312D01*
X20912Y24520D02*
Y24920D01*
X21012D01*
X21112Y24820D01*
Y24520D01*
Y24820D01*
X21212Y24920D01*
X21312Y24820D01*
Y24520D01*
X21512D02*
Y24920D01*
X21612D01*
X21712Y24820D01*
Y24520D01*
Y24820D01*
X21811Y24920D01*
X21911Y24820D01*
Y24520D01*
X22111D02*
X22311Y24720D01*
Y24920D01*
X22111Y25120D01*
X26450Y24520D02*
Y25120D01*
X26750D01*
X26850Y25020D01*
Y24820D01*
X26750Y24720D01*
X26450D01*
X27050Y25120D02*
X27450D01*
X27250D01*
Y24520D01*
X27650Y25120D02*
Y24520D01*
Y24820D01*
X28050D01*
Y25120D01*
Y24520D01*
X31489D02*
Y25120D01*
X31789D01*
X31889Y25020D01*
Y24820D01*
X31789Y24720D01*
X31489D01*
X31689D02*
X31889Y24520D01*
X32189D02*
X32389D01*
X32489Y24620D01*
Y24820D01*
X32389Y24920D01*
X32189D01*
X32089Y24820D01*
Y24620D01*
X32189Y24520D01*
X32689Y24920D02*
Y24620D01*
X32789Y24520D01*
X33089D01*
Y24920D01*
X33289Y24520D02*
Y24920D01*
X33588D01*
X33688Y24820D01*
Y24520D01*
X34288Y25120D02*
Y24520D01*
X33988D01*
X33888Y24620D01*
Y24820D01*
X33988Y24920D01*
X34288D01*
X6056Y23820D02*
X6156Y23920D01*
X6356D01*
X6456Y23820D01*
Y23720D01*
X6356Y23620D01*
X6256D01*
X6356D01*
X6456Y23520D01*
Y23420D01*
X6356Y23320D01*
X6156D01*
X6056Y23420D01*
X6956Y23320D02*
Y23920D01*
X6656Y23620D01*
X7056D01*
X13414Y23320D02*
X13014D01*
X13414Y23720D01*
Y23820D01*
X13314Y23920D01*
X13114D01*
X13014Y23820D01*
X13614Y23920D02*
X14014D01*
Y23820D01*
X13614Y23420D01*
Y23320D01*
X14214D02*
Y23420D01*
X14314D01*
Y23320D01*
X14214D01*
X15114Y23920D02*
X14714D01*
Y23620D01*
X14914Y23720D01*
X15014D01*
X15114Y23620D01*
Y23420D01*
X15014Y23320D01*
X14814D01*
X14714Y23420D01*
X15713Y23920D02*
X15314D01*
Y23620D01*
X15514Y23720D01*
X15613D01*
X15713Y23620D01*
Y23420D01*
X15613Y23320D01*
X15414D01*
X15314Y23420D01*
X15913D02*
X16013Y23320D01*
X16213D01*
X16313Y23420D01*
Y23820D01*
X16213Y23920D01*
X16013D01*
X15913Y23820D01*
Y23720D01*
X16013Y23620D01*
X16313D01*
X16513Y23320D02*
Y23720D01*
X16613D01*
X16713Y23620D01*
Y23320D01*
Y23620D01*
X16813Y23720D01*
X16913Y23620D01*
Y23320D01*
X17113D02*
X17313D01*
X17213D01*
Y23720D01*
X17113D01*
X17613Y23320D02*
X17813D01*
X17713D01*
Y23920D01*
X17613D01*
X18912Y23320D02*
X18712Y23520D01*
Y23720D01*
X18912Y23920D01*
X19212Y23820D02*
X19312Y23920D01*
X19512D01*
X19612Y23820D01*
Y23420D01*
X19512Y23320D01*
X19312D01*
X19212Y23420D01*
Y23820D01*
X19812Y23320D02*
Y23420D01*
X19912D01*
Y23320D01*
X19812D01*
X20312Y23920D02*
X20712D01*
Y23820D01*
X20312Y23420D01*
Y23320D01*
X20912D02*
Y23720D01*
X21012D01*
X21112Y23620D01*
Y23320D01*
Y23620D01*
X21212Y23720D01*
X21312Y23620D01*
Y23320D01*
X21512D02*
Y23720D01*
X21612D01*
X21712Y23620D01*
Y23320D01*
Y23620D01*
X21811Y23720D01*
X21911Y23620D01*
Y23320D01*
X22111D02*
X22311Y23520D01*
Y23720D01*
X22111Y23920D01*
X26450Y23320D02*
Y23920D01*
X26750D01*
X26850Y23820D01*
Y23620D01*
X26750Y23520D01*
X26450D01*
X27050Y23920D02*
X27450D01*
X27250D01*
Y23320D01*
X27650Y23920D02*
Y23320D01*
Y23620D01*
X28050D01*
Y23920D01*
Y23320D01*
X31489D02*
Y23920D01*
X31789D01*
X31889Y23820D01*
Y23620D01*
X31789Y23520D01*
X31489D01*
X31689D02*
X31889Y23320D01*
X32189D02*
X32389D01*
X32489Y23420D01*
Y23620D01*
X32389Y23720D01*
X32189D01*
X32089Y23620D01*
Y23420D01*
X32189Y23320D01*
X32689Y23720D02*
Y23420D01*
X32789Y23320D01*
X33089D01*
Y23720D01*
X33289Y23320D02*
Y23720D01*
X33588D01*
X33688Y23620D01*
Y23320D01*
X34288Y23920D02*
Y23320D01*
X33988D01*
X33888Y23420D01*
Y23620D01*
X33988Y23720D01*
X34288D01*
X6056Y22120D02*
X6256D01*
X6156D01*
Y22720D01*
X6056Y22620D01*
X6556Y22120D02*
X6756D01*
X6656D01*
Y22720D01*
X6556Y22620D01*
X7456Y22720D02*
X7256Y22620D01*
X7056Y22420D01*
Y22220D01*
X7156Y22120D01*
X7356D01*
X7456Y22220D01*
Y22320D01*
X7356Y22420D01*
X7056D01*
X13414Y22120D02*
X13014D01*
X13414Y22520D01*
Y22620D01*
X13314Y22720D01*
X13114D01*
X13014Y22620D01*
X13614D02*
X13714Y22720D01*
X13914D01*
X14014Y22620D01*
Y22520D01*
X13914Y22420D01*
X14014Y22320D01*
Y22220D01*
X13914Y22120D01*
X13714D01*
X13614Y22220D01*
Y22320D01*
X13714Y22420D01*
X13614Y22520D01*
Y22620D01*
X13714Y22420D02*
X13914D01*
X14214Y22120D02*
Y22520D01*
X14314D01*
X14414Y22420D01*
Y22120D01*
Y22420D01*
X14514Y22520D01*
X14614Y22420D01*
Y22120D01*
X14814D02*
X15014D01*
X14914D01*
Y22520D01*
X14814D01*
X15314Y22120D02*
X15514D01*
X15414D01*
Y22720D01*
X15314D01*
X16613Y22120D02*
X16413Y22320D01*
Y22520D01*
X16613Y22720D01*
X16913Y22620D02*
X17013Y22720D01*
X17213D01*
X17313Y22620D01*
Y22220D01*
X17213Y22120D01*
X17013D01*
X16913Y22220D01*
Y22620D01*
X17513Y22120D02*
Y22220D01*
X17613D01*
Y22120D01*
X17513D01*
X18013Y22720D02*
X18413D01*
Y22620D01*
X18013Y22220D01*
Y22120D01*
X18613D02*
X18812D01*
X18712D01*
Y22720D01*
X18613Y22620D01*
X19112Y22120D02*
X19312D01*
X19212D01*
Y22720D01*
X19112Y22620D01*
X20012Y22120D02*
X19612D01*
X20012Y22520D01*
Y22620D01*
X19912Y22720D01*
X19712D01*
X19612Y22620D01*
X20212Y22120D02*
Y22520D01*
X20312D01*
X20412Y22420D01*
Y22120D01*
Y22420D01*
X20512Y22520D01*
X20612Y22420D01*
Y22120D01*
X20812D02*
Y22520D01*
X20912D01*
X21012Y22420D01*
Y22120D01*
Y22420D01*
X21112Y22520D01*
X21212Y22420D01*
Y22120D01*
X21412D02*
X21612Y22320D01*
Y22520D01*
X21412Y22720D01*
X26450Y22120D02*
Y22720D01*
X26750D01*
X26850Y22620D01*
Y22420D01*
X26750Y22320D01*
X26450D01*
X27050Y22720D02*
X27450D01*
X27250D01*
Y22120D01*
X27650Y22720D02*
Y22120D01*
Y22420D01*
X28050D01*
Y22720D01*
Y22120D01*
X31489D02*
Y22720D01*
X31789D01*
X31889Y22620D01*
Y22420D01*
X31789Y22320D01*
X31489D01*
X31689D02*
X31889Y22120D01*
X32189D02*
X32389D01*
X32489Y22220D01*
Y22420D01*
X32389Y22520D01*
X32189D01*
X32089Y22420D01*
Y22220D01*
X32189Y22120D01*
X32689Y22520D02*
Y22220D01*
X32789Y22120D01*
X33089D01*
Y22520D01*
X33289Y22120D02*
Y22520D01*
X33588D01*
X33688Y22420D01*
Y22120D01*
X34288Y22720D02*
Y22120D01*
X33988D01*
X33888Y22220D01*
Y22420D01*
X33988Y22520D01*
X34288D01*
X6456Y20920D02*
X6056D01*
X6456Y21320D01*
Y21420D01*
X6356Y21520D01*
X6156D01*
X6056Y21420D01*
X13014D02*
X13114Y21520D01*
X13314D01*
X13414Y21420D01*
Y21320D01*
X13314Y21220D01*
X13214D01*
X13314D01*
X13414Y21120D01*
Y21020D01*
X13314Y20920D01*
X13114D01*
X13014Y21020D01*
X13614Y20920D02*
X13814D01*
X13714D01*
Y21520D01*
X13614Y21420D01*
X14114Y20920D02*
Y21020D01*
X14214D01*
Y20920D01*
X14114D01*
X14914D02*
Y21520D01*
X14614Y21220D01*
X15014D01*
X15214Y21020D02*
X15314Y20920D01*
X15514D01*
X15613Y21020D01*
Y21420D01*
X15514Y21520D01*
X15314D01*
X15214Y21420D01*
Y21320D01*
X15314Y21220D01*
X15613D01*
X16213Y21520D02*
X16013Y21420D01*
X15813Y21220D01*
Y21020D01*
X15913Y20920D01*
X16113D01*
X16213Y21020D01*
Y21120D01*
X16113Y21220D01*
X15813D01*
X16413Y20920D02*
Y21320D01*
X16513D01*
X16613Y21220D01*
Y20920D01*
Y21220D01*
X16713Y21320D01*
X16813Y21220D01*
Y20920D01*
X17013D02*
X17213D01*
X17113D01*
Y21320D01*
X17013D01*
X17513Y20920D02*
X17713D01*
X17613D01*
Y21520D01*
X17513D01*
X18812Y20920D02*
X18613Y21120D01*
Y21320D01*
X18812Y21520D01*
X19112Y21420D02*
X19212Y21520D01*
X19412D01*
X19512Y21420D01*
Y21020D01*
X19412Y20920D01*
X19212D01*
X19112Y21020D01*
Y21420D01*
X19712Y20920D02*
Y21020D01*
X19812D01*
Y20920D01*
X19712D01*
X20212Y21420D02*
X20312Y21520D01*
X20512D01*
X20612Y21420D01*
Y21320D01*
X20512Y21220D01*
X20612Y21120D01*
Y21020D01*
X20512Y20920D01*
X20312D01*
X20212Y21020D01*
Y21120D01*
X20312Y21220D01*
X20212Y21320D01*
Y21420D01*
X20312Y21220D02*
X20512D01*
X20812Y20920D02*
Y21320D01*
X20912D01*
X21012Y21220D01*
Y20920D01*
Y21220D01*
X21112Y21320D01*
X21212Y21220D01*
Y20920D01*
X21412D02*
Y21320D01*
X21512D01*
X21612Y21220D01*
Y20920D01*
Y21220D01*
X21712Y21320D01*
X21811Y21220D01*
Y20920D01*
X22011D02*
X22211Y21120D01*
Y21320D01*
X22011Y21520D01*
X26450Y20920D02*
Y21520D01*
X26750D01*
X26850Y21420D01*
Y21220D01*
X26750Y21120D01*
X26450D01*
X27050Y21520D02*
X27450D01*
X27250D01*
Y20920D01*
X27650Y21520D02*
Y20920D01*
Y21220D01*
X28050D01*
Y21520D01*
Y20920D01*
X31489D02*
Y21520D01*
X31789D01*
X31889Y21420D01*
Y21220D01*
X31789Y21120D01*
X31489D01*
X31689D02*
X31889Y20920D01*
X32189D02*
X32389D01*
X32489Y21020D01*
Y21220D01*
X32389Y21320D01*
X32189D01*
X32089Y21220D01*
Y21020D01*
X32189Y20920D01*
X32689Y21320D02*
Y21020D01*
X32789Y20920D01*
X33089D01*
Y21320D01*
X33289Y20920D02*
Y21320D01*
X33588D01*
X33688Y21220D01*
Y20920D01*
X34288Y21520D02*
Y20920D01*
X33988D01*
X33888Y21020D01*
Y21220D01*
X33988Y21320D01*
X34288D01*
X6056Y20220D02*
X6156Y20320D01*
X6356D01*
X6456Y20220D01*
Y20120D01*
X6356Y20020D01*
X6456Y19920D01*
Y19820D01*
X6356Y19720D01*
X6156D01*
X6056Y19820D01*
Y19920D01*
X6156Y20020D01*
X6056Y20120D01*
Y20220D01*
X6156Y20020D02*
X6356D01*
X6956Y19720D02*
Y20320D01*
X6656Y20020D01*
X7056D01*
X13014Y20220D02*
X13114Y20320D01*
X13314D01*
X13414Y20220D01*
Y20120D01*
X13314Y20020D01*
X13214D01*
X13314D01*
X13414Y19920D01*
Y19820D01*
X13314Y19720D01*
X13114D01*
X13014Y19820D01*
X14014Y20320D02*
X13614D01*
Y20020D01*
X13814Y20120D01*
X13914D01*
X14014Y20020D01*
Y19820D01*
X13914Y19720D01*
X13714D01*
X13614Y19820D01*
X14214Y19720D02*
Y19820D01*
X14314D01*
Y19720D01*
X14214D01*
X15014D02*
Y20320D01*
X14714Y20020D01*
X15114D01*
X15314Y20220D02*
X15414Y20320D01*
X15613D01*
X15713Y20220D01*
Y20120D01*
X15613Y20020D01*
X15514D01*
X15613D01*
X15713Y19920D01*
Y19820D01*
X15613Y19720D01*
X15414D01*
X15314Y19820D01*
X15913Y20220D02*
X16013Y20320D01*
X16213D01*
X16313Y20220D01*
Y20120D01*
X16213Y20020D01*
X16113D01*
X16213D01*
X16313Y19920D01*
Y19820D01*
X16213Y19720D01*
X16013D01*
X15913Y19820D01*
X16513Y19720D02*
Y20120D01*
X16613D01*
X16713Y20020D01*
Y19720D01*
Y20020D01*
X16813Y20120D01*
X16913Y20020D01*
Y19720D01*
X17113D02*
X17313D01*
X17213D01*
Y20120D01*
X17113D01*
X17613Y19720D02*
X17813D01*
X17713D01*
Y20320D01*
X17613D01*
X18912Y19720D02*
X18712Y19920D01*
Y20120D01*
X18912Y20320D01*
X19212Y20220D02*
X19312Y20320D01*
X19512D01*
X19612Y20220D01*
Y19820D01*
X19512Y19720D01*
X19312D01*
X19212Y19820D01*
Y20220D01*
X19812Y19720D02*
Y19820D01*
X19912D01*
Y19720D01*
X19812D01*
X20312Y19820D02*
X20412Y19720D01*
X20612D01*
X20712Y19820D01*
Y20220D01*
X20612Y20320D01*
X20412D01*
X20312Y20220D01*
Y20120D01*
X20412Y20020D01*
X20712D01*
X20912Y19720D02*
Y20120D01*
X21012D01*
X21112Y20020D01*
Y19720D01*
Y20020D01*
X21212Y20120D01*
X21312Y20020D01*
Y19720D01*
X21512D02*
Y20120D01*
X21612D01*
X21712Y20020D01*
Y19720D01*
Y20020D01*
X21811Y20120D01*
X21911Y20020D01*
Y19720D01*
X22111D02*
X22311Y19920D01*
Y20120D01*
X22111Y20320D01*
X26450Y19720D02*
Y20320D01*
X26750D01*
X26850Y20220D01*
Y20020D01*
X26750Y19920D01*
X26450D01*
X27050Y20320D02*
X27450D01*
X27250D01*
Y19720D01*
X27650Y20320D02*
Y19720D01*
Y20020D01*
X28050D01*
Y20320D01*
Y19720D01*
X31489D02*
Y20320D01*
X31789D01*
X31889Y20220D01*
Y20020D01*
X31789Y19920D01*
X31489D01*
X31689D02*
X31889Y19720D01*
X32189D02*
X32389D01*
X32489Y19820D01*
Y20020D01*
X32389Y20120D01*
X32189D01*
X32089Y20020D01*
Y19820D01*
X32189Y19720D01*
X32689Y20120D02*
Y19820D01*
X32789Y19720D01*
X33089D01*
Y20120D01*
X33289Y19720D02*
Y20120D01*
X33588D01*
X33688Y20020D01*
Y19720D01*
X34288Y20320D02*
Y19720D01*
X33988D01*
X33888Y19820D01*
Y20020D01*
X33988Y20120D01*
X34288D01*
X6456Y18520D02*
X6056D01*
X6456Y18920D01*
Y19020D01*
X6356Y19120D01*
X6156D01*
X6056Y19020D01*
X13014D02*
X13114Y19120D01*
X13314D01*
X13414Y19020D01*
Y18920D01*
X13314Y18820D01*
X13214D01*
X13314D01*
X13414Y18720D01*
Y18620D01*
X13314Y18520D01*
X13114D01*
X13014Y18620D01*
X13614D02*
X13714Y18520D01*
X13914D01*
X14014Y18620D01*
Y19020D01*
X13914Y19120D01*
X13714D01*
X13614Y19020D01*
Y18920D01*
X13714Y18820D01*
X14014D01*
X14214Y18520D02*
Y18620D01*
X14314D01*
Y18520D01*
X14214D01*
X14714Y19020D02*
X14814Y19120D01*
X15014D01*
X15114Y19020D01*
Y18920D01*
X15014Y18820D01*
X14914D01*
X15014D01*
X15114Y18720D01*
Y18620D01*
X15014Y18520D01*
X14814D01*
X14714Y18620D01*
X15314Y19120D02*
X15713D01*
Y19020D01*
X15314Y18620D01*
Y18520D01*
X15913D02*
Y18920D01*
X16013D01*
X16113Y18820D01*
Y18520D01*
Y18820D01*
X16213Y18920D01*
X16313Y18820D01*
Y18520D01*
X16513D02*
X16713D01*
X16613D01*
Y18920D01*
X16513D01*
X17013Y18520D02*
X17213D01*
X17113D01*
Y19120D01*
X17013D01*
X18313Y18520D02*
X18113Y18720D01*
Y18920D01*
X18313Y19120D01*
X18613Y18520D02*
X18812D01*
X18712D01*
Y19120D01*
X18613Y19020D01*
X19112Y18520D02*
Y18920D01*
X19212D01*
X19312Y18820D01*
Y18520D01*
Y18820D01*
X19412Y18920D01*
X19512Y18820D01*
Y18520D01*
X19712D02*
Y18920D01*
X19812D01*
X19912Y18820D01*
Y18520D01*
Y18820D01*
X20012Y18920D01*
X20112Y18820D01*
Y18520D01*
X20312D02*
X20512Y18720D01*
Y18920D01*
X20312Y19120D01*
X26450Y18520D02*
Y19120D01*
X26750D01*
X26850Y19020D01*
Y18820D01*
X26750Y18720D01*
X26450D01*
X27050Y19120D02*
X27450D01*
X27250D01*
Y18520D01*
X27650Y19120D02*
Y18520D01*
Y18820D01*
X28050D01*
Y19120D01*
Y18520D01*
X31489D02*
Y19120D01*
X31789D01*
X31889Y19020D01*
Y18820D01*
X31789Y18720D01*
X31489D01*
X31689D02*
X31889Y18520D01*
X32189D02*
X32389D01*
X32489Y18620D01*
Y18820D01*
X32389Y18920D01*
X32189D01*
X32089Y18820D01*
Y18620D01*
X32189Y18520D01*
X32689Y18920D02*
Y18620D01*
X32789Y18520D01*
X33089D01*
Y18920D01*
X33289Y18520D02*
Y18920D01*
X33588D01*
X33688Y18820D01*
Y18520D01*
X34288Y19120D02*
Y18520D01*
X33988D01*
X33888Y18620D01*
Y18820D01*
X33988Y18920D01*
X34288D01*
X6456Y17920D02*
X6256Y17820D01*
X6056Y17620D01*
Y17420D01*
X6156Y17320D01*
X6356D01*
X6456Y17420D01*
Y17520D01*
X6356Y17620D01*
X6056D01*
X13414Y17920D02*
X13014D01*
Y17620D01*
X13214Y17720D01*
X13314D01*
X13414Y17620D01*
Y17420D01*
X13314Y17320D01*
X13114D01*
X13014Y17420D01*
X14014Y17920D02*
X13614D01*
Y17620D01*
X13814Y17720D01*
X13914D01*
X14014Y17620D01*
Y17420D01*
X13914Y17320D01*
X13714D01*
X13614Y17420D01*
X14214Y17320D02*
Y17420D01*
X14314D01*
Y17320D01*
X14214D01*
X14714D02*
X14914D01*
X14814D01*
Y17920D01*
X14714Y17820D01*
X15214Y17320D02*
X15414D01*
X15314D01*
Y17920D01*
X15214Y17820D01*
X15713D02*
X15813Y17920D01*
X16013D01*
X16113Y17820D01*
Y17720D01*
X16013Y17620D01*
X16113Y17520D01*
Y17420D01*
X16013Y17320D01*
X15813D01*
X15713Y17420D01*
Y17520D01*
X15813Y17620D01*
X15713Y17720D01*
Y17820D01*
X15813Y17620D02*
X16013D01*
X16313Y17320D02*
Y17720D01*
X16413D01*
X16513Y17620D01*
Y17320D01*
Y17620D01*
X16613Y17720D01*
X16713Y17620D01*
Y17320D01*
X16913D02*
X17113D01*
X17013D01*
Y17720D01*
X16913D01*
X17413Y17320D02*
X17613D01*
X17513D01*
Y17920D01*
X17413D01*
X18712Y17320D02*
X18513Y17520D01*
Y17720D01*
X18712Y17920D01*
X19012Y17320D02*
X19212D01*
X19112D01*
Y17920D01*
X19012Y17820D01*
X19512Y17320D02*
Y17420D01*
X19612D01*
Y17320D01*
X19512D01*
X20312D02*
Y17920D01*
X20012Y17620D01*
X20412D01*
X20612Y17320D02*
Y17720D01*
X20712D01*
X20812Y17620D01*
Y17320D01*
Y17620D01*
X20912Y17720D01*
X21012Y17620D01*
Y17320D01*
X21212D02*
Y17720D01*
X21312D01*
X21412Y17620D01*
Y17320D01*
Y17620D01*
X21512Y17720D01*
X21612Y17620D01*
Y17320D01*
X21811D02*
X22011Y17520D01*
Y17720D01*
X21811Y17920D01*
X26450Y17320D02*
Y17920D01*
X26750D01*
X26850Y17820D01*
Y17620D01*
X26750Y17520D01*
X26450D01*
X27050Y17920D02*
X27450D01*
X27250D01*
Y17320D01*
X27650Y17920D02*
Y17320D01*
Y17620D01*
X28050D01*
Y17920D01*
Y17320D01*
X31489D02*
Y17920D01*
X31789D01*
X31889Y17820D01*
Y17620D01*
X31789Y17520D01*
X31489D01*
X31689D02*
X31889Y17320D01*
X32189D02*
X32389D01*
X32489Y17420D01*
Y17620D01*
X32389Y17720D01*
X32189D01*
X32089Y17620D01*
Y17420D01*
X32189Y17320D01*
X32689Y17720D02*
Y17420D01*
X32789Y17320D01*
X33089D01*
Y17720D01*
X33289Y17320D02*
Y17720D01*
X33588D01*
X33688Y17620D01*
Y17320D01*
X34288Y17920D02*
Y17320D01*
X33988D01*
X33888Y17420D01*
Y17620D01*
X33988Y17720D01*
X34288D01*
X6356Y16120D02*
Y16720D01*
X6056Y16420D01*
X6456D01*
X13014Y16120D02*
X13214D01*
X13114D01*
Y16720D01*
X13014Y16620D01*
X13914Y16720D02*
X13714Y16620D01*
X13514Y16420D01*
Y16220D01*
X13614Y16120D01*
X13814D01*
X13914Y16220D01*
Y16320D01*
X13814Y16420D01*
X13514D01*
X14514Y16720D02*
X14114D01*
Y16420D01*
X14314Y16520D01*
X14414D01*
X14514Y16420D01*
Y16220D01*
X14414Y16120D01*
X14214D01*
X14114Y16220D01*
X14714Y16120D02*
Y16220D01*
X14814D01*
Y16120D01*
X14714D01*
X15214Y16620D02*
X15314Y16720D01*
X15514D01*
X15613Y16620D01*
Y16520D01*
X15514Y16420D01*
X15414D01*
X15514D01*
X15613Y16320D01*
Y16220D01*
X15514Y16120D01*
X15314D01*
X15214Y16220D01*
X16213Y16720D02*
X15813D01*
Y16420D01*
X16013Y16520D01*
X16113D01*
X16213Y16420D01*
Y16220D01*
X16113Y16120D01*
X15913D01*
X15813Y16220D01*
X16713Y16120D02*
Y16720D01*
X16413Y16420D01*
X16813D01*
X17013Y16120D02*
Y16520D01*
X17113D01*
X17213Y16420D01*
Y16120D01*
Y16420D01*
X17313Y16520D01*
X17413Y16420D01*
Y16120D01*
X17613D02*
X17813D01*
X17713D01*
Y16520D01*
X17613D01*
X18113Y16120D02*
X18313D01*
X18213D01*
Y16720D01*
X18113D01*
X19412Y16120D02*
X19212Y16320D01*
Y16520D01*
X19412Y16720D01*
X20012Y16120D02*
Y16720D01*
X19712Y16420D01*
X20112D01*
X20312Y16120D02*
Y16220D01*
X20412D01*
Y16120D01*
X20312D01*
X21212D02*
X20812D01*
X21212Y16520D01*
Y16620D01*
X21112Y16720D01*
X20912D01*
X20812Y16620D01*
X21412Y16120D02*
Y16520D01*
X21512D01*
X21612Y16420D01*
Y16120D01*
Y16420D01*
X21712Y16520D01*
X21811Y16420D01*
Y16120D01*
X22011D02*
Y16520D01*
X22111D01*
X22211Y16420D01*
Y16120D01*
Y16420D01*
X22311Y16520D01*
X22411Y16420D01*
Y16120D01*
X22611D02*
X22811Y16320D01*
Y16520D01*
X22611Y16720D01*
X26450Y16120D02*
Y16720D01*
X26750D01*
X26850Y16620D01*
Y16420D01*
X26750Y16320D01*
X26450D01*
X27050Y16720D02*
X27450D01*
X27250D01*
Y16120D01*
X27650Y16720D02*
Y16120D01*
Y16420D01*
X28050D01*
Y16720D01*
Y16120D01*
X31489D02*
Y16720D01*
X31789D01*
X31889Y16620D01*
Y16420D01*
X31789Y16320D01*
X31489D01*
X31689D02*
X31889Y16120D01*
X32189D02*
X32389D01*
X32489Y16220D01*
Y16420D01*
X32389Y16520D01*
X32189D01*
X32089Y16420D01*
Y16220D01*
X32189Y16120D01*
X32689Y16520D02*
Y16220D01*
X32789Y16120D01*
X33089D01*
Y16520D01*
X33289Y16120D02*
Y16520D01*
X33588D01*
X33688Y16420D01*
Y16120D01*
X34288Y16720D02*
Y16120D01*
X33988D01*
X33888Y16220D01*
Y16420D01*
X33988Y16520D01*
X34288D01*
X6056Y15420D02*
X6156Y15520D01*
X6356D01*
X6456Y15420D01*
Y15320D01*
X6356Y15220D01*
X6256D01*
X6356D01*
X6456Y15120D01*
Y15020D01*
X6356Y14920D01*
X6156D01*
X6056Y15020D01*
X6656Y15420D02*
X6756Y15520D01*
X6956D01*
X7056Y15420D01*
Y15320D01*
X6956Y15220D01*
X7056Y15120D01*
Y15020D01*
X6956Y14920D01*
X6756D01*
X6656Y15020D01*
Y15120D01*
X6756Y15220D01*
X6656Y15320D01*
Y15420D01*
X6756Y15220D02*
X6956D01*
X7656Y14920D02*
X7256D01*
X7656Y15320D01*
Y15420D01*
X7556Y15520D01*
X7356D01*
X7256Y15420D01*
X8736Y15520D02*
X9136D01*
X8936D01*
Y14920D01*
X9435D02*
X9635D01*
X9735Y15020D01*
Y15220D01*
X9635Y15320D01*
X9435D01*
X9335Y15220D01*
Y15020D01*
X9435Y14920D01*
X10035Y15420D02*
Y15320D01*
X9935D01*
X10135D01*
X10035D01*
Y15020D01*
X10135Y14920D01*
X10535Y15320D02*
X10735D01*
X10835Y15220D01*
Y14920D01*
X10535D01*
X10435Y15020D01*
X10535Y15120D01*
X10835D01*
X11035Y14920D02*
X11235D01*
X11135D01*
Y15520D01*
X11035D01*
D13*
X1497Y27760D02*
X1377Y27880D01*
X1137D01*
X1017Y27760D01*
Y27640D01*
X1137Y27520D01*
X1377D01*
X1497Y27400D01*
Y27280D01*
X1377Y27160D01*
X1137D01*
X1017Y27280D01*
X1737Y27640D02*
Y27280D01*
X1857Y27160D01*
X2217D01*
Y27040D01*
X2097Y26920D01*
X1977D01*
X2217Y27160D02*
Y27640D01*
X2457Y27160D02*
Y27640D01*
X2577D01*
X2697Y27520D01*
Y27160D01*
Y27520D01*
X2817Y27640D01*
X2937Y27520D01*
Y27160D01*
X3177Y27880D02*
Y27160D01*
X3537D01*
X3657Y27280D01*
Y27400D01*
Y27520D01*
X3537Y27640D01*
X3177D01*
X4016Y27160D02*
X4256D01*
X4376Y27280D01*
Y27520D01*
X4256Y27640D01*
X4016D01*
X3896Y27520D01*
Y27280D01*
X4016Y27160D01*
X4616D02*
X4856D01*
X4736D01*
Y27880D01*
X4616D01*
X6056D02*
Y27160D01*
Y27520D01*
X6536D01*
Y27880D01*
Y27160D01*
X6776D02*
X7016D01*
X6896D01*
Y27640D01*
X6776D01*
X7496Y27760D02*
Y27640D01*
X7376D01*
X7616D01*
X7496D01*
Y27280D01*
X7616Y27160D01*
X9175Y27760D02*
X9055Y27880D01*
X8815D01*
X8695Y27760D01*
Y27280D01*
X8815Y27160D01*
X9055D01*
X9175Y27280D01*
X9535Y27160D02*
X9775D01*
X9895Y27280D01*
Y27520D01*
X9775Y27640D01*
X9535D01*
X9415Y27520D01*
Y27280D01*
X9535Y27160D01*
X10135Y27640D02*
Y27280D01*
X10255Y27160D01*
X10615D01*
Y27640D01*
X10855Y27160D02*
Y27640D01*
X11215D01*
X11334Y27520D01*
Y27160D01*
X11694Y27760D02*
Y27640D01*
X11574D01*
X11814D01*
X11694D01*
Y27280D01*
X11814Y27160D01*
X13494Y27880D02*
X13014D01*
Y27520D01*
X13254D01*
X13014D01*
Y27160D01*
X13734D02*
X13974D01*
X13854D01*
Y27640D01*
X13734D01*
X14334Y27160D02*
Y27640D01*
X14694D01*
X14814Y27520D01*
Y27160D01*
X15054D02*
X15294D01*
X15174D01*
Y27640D01*
X15054D01*
X15653Y27160D02*
X16013D01*
X16133Y27280D01*
X16013Y27400D01*
X15773D01*
X15653Y27520D01*
X15773Y27640D01*
X16133D01*
X16373Y27880D02*
Y27160D01*
Y27520D01*
X16493Y27640D01*
X16733D01*
X16853Y27520D01*
Y27160D01*
X17453D02*
X17213D01*
X17093Y27280D01*
Y27520D01*
X17213Y27640D01*
X17453D01*
X17573Y27520D01*
Y27400D01*
X17093D01*
X18293Y27880D02*
Y27160D01*
X17933D01*
X17813Y27280D01*
Y27520D01*
X17933Y27640D01*
X18293D01*
X19252Y27880D02*
Y27160D01*
Y27520D01*
X19732D01*
Y27880D01*
Y27160D01*
X20092D02*
X20332D01*
X20452Y27280D01*
Y27520D01*
X20332Y27640D01*
X20092D01*
X19972Y27520D01*
Y27280D01*
X20092Y27160D01*
X20692D02*
X20932D01*
X20812D01*
Y27880D01*
X20692D01*
X21652Y27160D02*
X21412D01*
X21292Y27280D01*
Y27520D01*
X21412Y27640D01*
X21652D01*
X21771Y27520D01*
Y27400D01*
X21292D01*
X23211Y27760D02*
X23091Y27880D01*
X22851D01*
X22731Y27760D01*
Y27640D01*
X22851Y27520D01*
X23091D01*
X23211Y27400D01*
Y27280D01*
X23091Y27160D01*
X22851D01*
X22731Y27280D01*
X23451Y27160D02*
X23691D01*
X23571D01*
Y27640D01*
X23451D01*
X24051D02*
X24531D01*
X24051Y27160D01*
X24531D01*
X25130D02*
X24890D01*
X24771Y27280D01*
Y27520D01*
X24890Y27640D01*
X25130D01*
X25250Y27520D01*
Y27400D01*
X24771D01*
X26450Y27160D02*
Y27880D01*
X26810D01*
X26930Y27760D01*
Y27520D01*
X26810Y27400D01*
X26450D01*
X27170Y27160D02*
X27410D01*
X27290D01*
Y27880D01*
X27170D01*
X27890Y27640D02*
X28130D01*
X28250Y27520D01*
Y27160D01*
X27890D01*
X27770Y27280D01*
X27890Y27400D01*
X28250D01*
X28610Y27760D02*
Y27640D01*
X28490D01*
X28730D01*
X28610D01*
Y27280D01*
X28730Y27160D01*
X29449D02*
X29209D01*
X29090Y27280D01*
Y27520D01*
X29209Y27640D01*
X29449D01*
X29569Y27520D01*
Y27400D01*
X29090D01*
X30289Y27880D02*
Y27160D01*
X29929D01*
X29809Y27280D01*
Y27520D01*
X29929Y27640D01*
X30289D01*
X31489Y27880D02*
Y27160D01*
Y27520D01*
X31969D01*
Y27880D01*
Y27160D01*
X32329D02*
X32569D01*
X32689Y27280D01*
Y27520D01*
X32569Y27640D01*
X32329D01*
X32209Y27520D01*
Y27280D01*
X32329Y27160D01*
X32929D02*
X33169D01*
X33049D01*
Y27880D01*
X32929D01*
X33888Y27160D02*
X33648D01*
X33528Y27280D01*
Y27520D01*
X33648Y27640D01*
X33888D01*
X34008Y27520D01*
Y27400D01*
X33528D01*
X34968Y27880D02*
X35448D01*
X35208D01*
Y27160D01*
X35688Y27640D02*
Y27280D01*
X35808Y27160D01*
X36168D01*
Y27040D01*
X36048Y26920D01*
X35928D01*
X36168Y27160D02*
Y27640D01*
X36408Y26920D02*
Y27640D01*
X36767D01*
X36887Y27520D01*
Y27280D01*
X36767Y27160D01*
X36408D01*
X37487D02*
X37247D01*
X37127Y27280D01*
Y27520D01*
X37247Y27640D01*
X37487D01*
X37607Y27520D01*
Y27400D01*
X37127D01*
X137Y28240D02*
X38807D01*
X137Y26620D02*
X38807D01*
X137Y28240D02*
Y14620D01*
X38807Y28240D02*
Y14620D01*
X5616Y28240D02*
Y14620D01*
X12574Y28240D02*
Y14620D01*
X26010Y28240D02*
Y14620D01*
X31049Y28240D02*
Y14620D01*
X137Y15820D02*
X38807D01*
X137Y14620D02*
X38807D01*
D14*
X1497Y16420D02*
G03*
X1497Y16420I-240J0D01*
G01*
M02*
