%FSLAX24Y24*%
%MOIN*%
G70*
G01*
G75*
G04 Layer_Color=32896*
%ADD10C,0.0100*%
%ADD11C,0.0010*%
%ADD12C,0.0218*%
D10*
X51094Y63406D02*
Y64784D01*
X50306D02*
X51094D01*
X50306Y63406D02*
Y64784D01*
Y63406D02*
X51094D01*
Y63485D01*
X27163Y32011D02*
Y33389D01*
Y32011D02*
X27950D01*
Y33389D01*
X27163D02*
X27950D01*
X27163Y33310D02*
Y33389D01*
X26950Y32021D02*
Y33399D01*
X26163D02*
X26950D01*
X26163Y32021D02*
Y33399D01*
Y32021D02*
X26950D01*
Y32100D01*
X22666Y49294D02*
X24044D01*
X22666Y48506D02*
Y49294D01*
Y48506D02*
X24044D01*
Y49294D01*
X23965D02*
X24044D01*
X27456Y63706D02*
Y65084D01*
Y63706D02*
X28244D01*
Y65084D01*
X27456D02*
X28244D01*
X27456Y65005D02*
Y65084D01*
X28454Y63706D02*
Y65084D01*
Y63706D02*
X29242D01*
Y65084D01*
X28454D02*
X29242D01*
X28454Y65005D02*
Y65084D01*
X29452Y63706D02*
Y65084D01*
Y63706D02*
X30240D01*
Y65084D01*
X29452D02*
X30240D01*
X29452Y65005D02*
Y65084D01*
X48701Y66850D02*
Y68228D01*
X47913D02*
X48701D01*
X47913Y66850D02*
Y68228D01*
Y66850D02*
X48701D01*
Y66929D01*
X46006Y35606D02*
Y36984D01*
Y35606D02*
X46794D01*
Y36984D01*
X46006D02*
X46794D01*
X46006Y36906D02*
Y36984D01*
X47869Y35606D02*
Y36984D01*
X47081D02*
X47869D01*
X47081Y35606D02*
Y36984D01*
Y35606D02*
X47869D01*
Y35685D01*
X48156Y35606D02*
Y36984D01*
Y35606D02*
X48944D01*
Y36984D01*
X48156D02*
X48944D01*
X48156Y36906D02*
Y36984D01*
X44256Y34506D02*
X45634D01*
Y35294D01*
X44256D02*
X45634D01*
X44256Y34506D02*
Y35294D01*
Y34506D02*
X44335D01*
X46156D02*
X47534D01*
Y35294D01*
X46156D02*
X47534D01*
X46156Y34506D02*
Y35294D01*
Y34506D02*
X46235D01*
X42118Y37941D02*
X43496D01*
X42118Y37154D02*
Y37941D01*
Y37154D02*
X43496D01*
Y37941D01*
X43417D02*
X43496D01*
X47994Y32006D02*
Y33384D01*
X47206D02*
X47994D01*
X47206Y32006D02*
Y33384D01*
Y32006D02*
X47994D01*
Y32085D01*
X48994Y32006D02*
Y33384D01*
X48206D02*
X48994D01*
X48206Y32006D02*
Y33384D01*
Y32006D02*
X48994D01*
Y32085D01*
X45316Y41294D02*
X46694D01*
X45316Y40506D02*
Y41294D01*
Y40506D02*
X46694D01*
Y41294D01*
X46615D02*
X46694D01*
X45316Y42344D02*
X46694D01*
X45316Y41556D02*
Y42344D01*
Y41556D02*
X46694D01*
Y42344D01*
X46615D02*
X46694D01*
X42306Y32131D02*
Y33509D01*
Y32131D02*
X43094D01*
Y33509D01*
X42306D02*
X43094D01*
X42306Y33430D02*
Y33509D01*
X22666Y50294D02*
X24044D01*
X22666Y49506D02*
Y50294D01*
Y49506D02*
X24044D01*
Y50294D01*
X23965D02*
X24044D01*
X36637Y53006D02*
X38015D01*
Y53794D01*
X36637D02*
X38015D01*
X36637Y53006D02*
Y53794D01*
Y53006D02*
X36716D01*
X36637Y51416D02*
X38015D01*
Y52203D01*
X36637D02*
X38015D01*
X36637Y51416D02*
Y52203D01*
Y51416D02*
X36716D01*
X33109Y47752D02*
Y49130D01*
Y47752D02*
X33896D01*
Y49130D01*
X33109D02*
X33896D01*
X33109Y49051D02*
Y49130D01*
X29896Y50733D02*
X31274D01*
X29896Y49946D02*
Y50733D01*
Y49946D02*
X31274D01*
Y50733D01*
X31195D02*
X31274D01*
X29896Y52205D02*
X31274D01*
X29896Y51418D02*
Y52205D01*
Y51418D02*
X31274D01*
Y52205D01*
X31195D02*
X31274D01*
X36637Y50246D02*
X38015D01*
Y51033D01*
X36637D02*
X38015D01*
X36637Y50246D02*
Y51033D01*
Y50246D02*
X36716D01*
X34937Y47752D02*
Y49130D01*
Y47752D02*
X35724D01*
Y49130D01*
X34937D02*
X35724D01*
X34937Y49051D02*
Y49130D01*
X34535Y54319D02*
Y55697D01*
X33748D02*
X34535D01*
X33748Y54319D02*
Y55697D01*
Y54319D02*
X34535D01*
Y54398D01*
X29896Y53583D02*
X31274D01*
X29896Y52796D02*
Y53583D01*
Y52796D02*
X31274D01*
Y53583D01*
X31195D02*
X31274D01*
X33274Y54319D02*
Y55697D01*
X32487D02*
X33274D01*
X32487Y54319D02*
Y55697D01*
Y54319D02*
X33274D01*
Y54398D01*
X36124Y54319D02*
Y55697D01*
X35337D02*
X36124D01*
X35337Y54319D02*
Y55697D01*
Y54319D02*
X36124D01*
Y54398D01*
X29896Y49033D02*
X31274D01*
X29896Y48246D02*
Y49033D01*
Y48246D02*
X31274D01*
Y49033D01*
X31195D02*
X31274D01*
X38661Y57480D02*
X40039D01*
Y58268D01*
X38661D02*
X40039D01*
X38661Y57480D02*
Y58268D01*
Y57480D02*
X38740D01*
X37110D02*
X38488D01*
Y58268D01*
X37110D02*
X38488D01*
X37110Y57480D02*
Y58268D01*
Y57480D02*
X37189D01*
X37587Y55105D02*
Y56483D01*
Y55105D02*
X38374D01*
Y56483D01*
X37587D02*
X38374D01*
X37587Y56404D02*
Y56483D01*
X30877Y65908D02*
X32255D01*
X30877Y65121D02*
Y65908D01*
Y65121D02*
X32255D01*
Y65908D01*
X32176D02*
X32255D01*
X33714Y62618D02*
Y63996D01*
X32927D02*
X33714D01*
X32927Y62618D02*
Y63996D01*
Y62618D02*
X33714D01*
Y62697D01*
X43306Y32131D02*
Y33509D01*
Y32131D02*
X44094D01*
Y33509D01*
X43306D02*
X44094D01*
X43306Y33430D02*
Y33509D01*
X22725Y57199D02*
X24000D01*
X23363Y56959D02*
Y57439D01*
Y56959D02*
X23367Y56955D01*
X30640Y34246D02*
X30644Y34250D01*
X30160Y34246D02*
X30640D01*
X30400Y33608D02*
Y34884D01*
X24960Y43746D02*
X28740D01*
X24960Y42054D02*
X28740D01*
X24824Y57606D02*
X26202D01*
Y58394D01*
X24824D02*
X26202D01*
X24824Y57606D02*
Y58394D01*
Y57606D02*
X24903D01*
X32287Y38080D02*
Y40522D01*
X30717Y38067D02*
Y40516D01*
X32400Y41150D02*
Y41750D01*
X32100D01*
X32000Y41650D01*
Y41450D01*
X32100Y41350D01*
X32400D01*
X32200D02*
X32000Y41150D01*
X31800Y41250D02*
X31700Y41150D01*
X31500D01*
X31400Y41250D01*
Y41650D01*
X31500Y41750D01*
X31700D01*
X31800Y41650D01*
Y41550D01*
X31700Y41450D01*
X31400D01*
X51000Y63100D02*
X50400D01*
Y62800D01*
X50500Y62700D01*
X50700D01*
X50800Y62800D01*
Y63100D01*
Y62900D02*
X51000Y62700D01*
Y62500D02*
Y62300D01*
Y62400D01*
X50400D01*
X50500Y62500D01*
X51000Y61700D02*
X50400D01*
X50700Y62000D01*
Y61600D01*
X36080Y48456D02*
X35980Y48556D01*
Y48756D01*
X36080Y48856D01*
X36480D01*
X36580Y48756D01*
Y48556D01*
X36480Y48456D01*
X36580Y48256D02*
Y48056D01*
Y48156D01*
X35980D01*
X36080Y48256D01*
X38895Y50850D02*
X38995Y50950D01*
X39195D01*
X39295Y50850D01*
Y50450D01*
X39195Y50350D01*
X38995D01*
X38895Y50450D01*
X38295Y50350D02*
X38695D01*
X38295Y50750D01*
Y50850D01*
X38395Y50950D01*
X38595D01*
X38695Y50850D01*
X31200Y54200D02*
X31300Y54100D01*
Y53900D01*
X31200Y53800D01*
X30800D01*
X30700Y53900D01*
Y54100D01*
X30800Y54200D01*
X31200Y54400D02*
X31300Y54500D01*
Y54700D01*
X31200Y54800D01*
X31100D01*
X31000Y54700D01*
Y54600D01*
Y54700D01*
X30900Y54800D01*
X30800D01*
X30700Y54700D01*
Y54500D01*
X30800Y54400D01*
X31750Y55181D02*
X31650Y55281D01*
Y55481D01*
X31750Y55581D01*
X32150D01*
X32250Y55481D01*
Y55281D01*
X32150Y55181D01*
X32250Y54682D02*
X31650D01*
X31950Y54981D01*
Y54582D01*
X29150Y50500D02*
X29250Y50600D01*
X29450D01*
X29550Y50500D01*
Y50100D01*
X29450Y50000D01*
X29250D01*
X29150Y50100D01*
X28550Y50600D02*
X28950D01*
Y50300D01*
X28750Y50400D01*
X28650D01*
X28550Y50300D01*
Y50100D01*
X28650Y50000D01*
X28850D01*
X28950Y50100D01*
X30686Y47923D02*
X30786Y48023D01*
X30986D01*
X31086Y47923D01*
Y47523D01*
X30986Y47423D01*
X30786D01*
X30686Y47523D01*
X30087Y48023D02*
X30286Y47923D01*
X30486Y47723D01*
Y47523D01*
X30386Y47423D01*
X30187D01*
X30087Y47523D01*
Y47623D01*
X30187Y47723D01*
X30486D01*
X35000Y56500D02*
X35100Y56600D01*
X35300D01*
X35400Y56500D01*
Y56100D01*
X35300Y56000D01*
X35100D01*
X35000Y56100D01*
X34800Y56600D02*
X34400D01*
Y56500D01*
X34800Y56100D01*
Y56000D01*
X34230Y48506D02*
X34130Y48606D01*
Y48806D01*
X34230Y48906D01*
X34630D01*
X34730Y48806D01*
Y48606D01*
X34630Y48506D01*
X34230Y48306D02*
X34130Y48206D01*
Y48006D01*
X34230Y47906D01*
X34330D01*
X34430Y48006D01*
X34530Y47906D01*
X34630D01*
X34730Y48006D01*
Y48206D01*
X34630Y48306D01*
X34530D01*
X34430Y48206D01*
X34330Y48306D01*
X34230D01*
X34430Y48206D02*
Y48006D01*
X38853Y52008D02*
X38953Y52108D01*
X39153D01*
X39253Y52008D01*
Y51608D01*
X39153Y51508D01*
X38953D01*
X38853Y51608D01*
X38653D02*
X38553Y51508D01*
X38353D01*
X38253Y51608D01*
Y52008D01*
X38353Y52108D01*
X38553D01*
X38653Y52008D01*
Y51908D01*
X38553Y51808D01*
X38253D01*
X33550Y56500D02*
X33650Y56600D01*
X33850D01*
X33950Y56500D01*
Y56100D01*
X33850Y56000D01*
X33650D01*
X33550Y56100D01*
X33350Y56000D02*
X33150D01*
X33250D01*
Y56600D01*
X33350Y56500D01*
X32850D02*
X32750Y56600D01*
X32550D01*
X32450Y56500D01*
Y56100D01*
X32550Y56000D01*
X32750D01*
X32850Y56100D01*
Y56500D01*
X28250Y51674D02*
X28350Y51774D01*
X28550D01*
X28650Y51674D01*
Y51274D01*
X28550Y51174D01*
X28350D01*
X28250Y51274D01*
X28050Y51174D02*
X27850D01*
X27950D01*
Y51774D01*
X28050Y51674D01*
X27550Y51174D02*
X27350D01*
X27450D01*
Y51774D01*
X27550Y51674D01*
X39700Y59000D02*
X39800Y59100D01*
X40000D01*
X40100Y59000D01*
Y58600D01*
X40000Y58500D01*
X39800D01*
X39700Y58600D01*
X39500Y58500D02*
X39300D01*
X39400D01*
Y59100D01*
X39500Y59000D01*
X38600Y58500D02*
X39000D01*
X38600Y58900D01*
Y59000D01*
X38700Y59100D01*
X38900D01*
X39000Y59000D01*
X28953Y63353D02*
X29053Y63453D01*
X29253D01*
X29353Y63353D01*
Y62953D01*
X29253Y62853D01*
X29053D01*
X28953Y62953D01*
X28753Y62853D02*
X28553D01*
X28653D01*
Y63453D01*
X28753Y63353D01*
X27853Y63453D02*
X28053Y63353D01*
X28253Y63153D01*
Y62953D01*
X28153Y62853D01*
X27953D01*
X27853Y62953D01*
Y63053D01*
X27953Y63153D01*
X28253D01*
X28194Y65858D02*
X28294Y65958D01*
X28494D01*
X28594Y65858D01*
Y65458D01*
X28494Y65358D01*
X28294D01*
X28194Y65458D01*
X27994Y65358D02*
X27794D01*
X27894D01*
Y65958D01*
X27994Y65858D01*
X27494Y65958D02*
X27094D01*
Y65858D01*
X27494Y65458D01*
Y65358D01*
X30245Y65822D02*
X30345Y65922D01*
X30545D01*
X30645Y65822D01*
Y65422D01*
X30545Y65322D01*
X30345D01*
X30245Y65422D01*
X30045Y65322D02*
X29846D01*
X29945D01*
Y65922D01*
X30045Y65822D01*
X29546D02*
X29446Y65922D01*
X29246D01*
X29146Y65822D01*
Y65722D01*
X29246Y65622D01*
X29146Y65522D01*
Y65422D01*
X29246Y65322D01*
X29446D01*
X29546Y65422D01*
Y65522D01*
X29446Y65622D01*
X29546Y65722D01*
Y65822D01*
X29446Y65622D02*
X29246D01*
X48600Y68950D02*
X48700Y69050D01*
X48900D01*
X49000Y68950D01*
Y68550D01*
X48900Y68450D01*
X48700D01*
X48600Y68550D01*
X48400Y68450D02*
X48200D01*
X48300D01*
Y69050D01*
X48400Y68950D01*
X47900Y68550D02*
X47800Y68450D01*
X47600D01*
X47500Y68550D01*
Y68950D01*
X47600Y69050D01*
X47800D01*
X47900Y68950D01*
Y68850D01*
X47800Y68750D01*
X47500D01*
X48700Y37700D02*
X48800Y37600D01*
Y37400D01*
X48700Y37300D01*
X48300D01*
X48200Y37400D01*
Y37600D01*
X48300Y37700D01*
X48200Y38300D02*
Y37900D01*
X48600Y38300D01*
X48700D01*
X48800Y38200D01*
Y38000D01*
X48700Y37900D01*
Y38500D02*
X48800Y38600D01*
Y38800D01*
X48700Y38899D01*
X48300D01*
X48200Y38800D01*
Y38600D01*
X48300Y38500D01*
X48700D01*
X47650Y37700D02*
X47750Y37600D01*
Y37400D01*
X47650Y37300D01*
X47250D01*
X47150Y37400D01*
Y37600D01*
X47250Y37700D01*
X47150Y38300D02*
Y37900D01*
X47550Y38300D01*
X47650D01*
X47750Y38200D01*
Y38000D01*
X47650Y37900D01*
X47150Y38500D02*
Y38700D01*
Y38600D01*
X47750D01*
X47650Y38500D01*
X46650Y37700D02*
X46750Y37600D01*
Y37400D01*
X46650Y37300D01*
X46250D01*
X46150Y37400D01*
Y37600D01*
X46250Y37700D01*
X46150Y38300D02*
Y37900D01*
X46550Y38300D01*
X46650D01*
X46750Y38200D01*
Y38000D01*
X46650Y37900D01*
X46150Y38899D02*
Y38500D01*
X46550Y38899D01*
X46650D01*
X46750Y38800D01*
Y38600D01*
X46650Y38500D01*
X43152Y36797D02*
X43252Y36897D01*
X43452D01*
X43552Y36797D01*
Y36397D01*
X43452Y36297D01*
X43252D01*
X43152Y36397D01*
X42553Y36297D02*
X42953D01*
X42553Y36697D01*
Y36797D01*
X42653Y36897D01*
X42853D01*
X42953Y36797D01*
X42353D02*
X42253Y36897D01*
X42053D01*
X41953Y36797D01*
Y36697D01*
X42053Y36597D01*
X42153D01*
X42053D01*
X41953Y36497D01*
Y36397D01*
X42053Y36297D01*
X42253D01*
X42353Y36397D01*
X27331Y57200D02*
X27431Y57300D01*
X27631D01*
X27731Y57200D01*
Y56800D01*
X27631Y56700D01*
X27431D01*
X27331Y56800D01*
X26731Y56700D02*
X27131D01*
X26731Y57100D01*
Y57200D01*
X26831Y57300D01*
X27031D01*
X27131Y57200D01*
X26132Y57300D02*
X26531D01*
Y57000D01*
X26332Y57100D01*
X26232D01*
X26132Y57000D01*
Y56800D01*
X26232Y56700D01*
X26432D01*
X26531Y56800D01*
X37550Y54000D02*
Y54600D01*
X37250D01*
X37150Y54500D01*
Y54300D01*
X37250Y54200D01*
X37550D01*
X37350D02*
X37150Y54000D01*
X36550D02*
X36950D01*
X36550Y54400D01*
Y54500D01*
X36650Y54600D01*
X36850D01*
X36950Y54500D01*
X25300Y49650D02*
Y50250D01*
X25000D01*
X24900Y50150D01*
Y49950D01*
X25000Y49850D01*
X25300D01*
X25100D02*
X24900Y49650D01*
X24700Y50150D02*
X24600Y50250D01*
X24400D01*
X24300Y50150D01*
Y50050D01*
X24400Y49950D01*
X24500D01*
X24400D01*
X24300Y49850D01*
Y49750D01*
X24400Y49650D01*
X24600D01*
X24700Y49750D01*
X25300Y48600D02*
Y49200D01*
X25000D01*
X24900Y49100D01*
Y48900D01*
X25000Y48800D01*
X25300D01*
X25100D02*
X24900Y48600D01*
X24400D02*
Y49200D01*
X24700Y48900D01*
X24300D01*
X38150Y58500D02*
Y59100D01*
X37850D01*
X37750Y59000D01*
Y58800D01*
X37850Y58700D01*
X38150D01*
X37950D02*
X37750Y58500D01*
X37150Y59100D02*
X37350Y59000D01*
X37550Y58800D01*
Y58600D01*
X37450Y58500D01*
X37250D01*
X37150Y58600D01*
Y58700D01*
X37250Y58800D01*
X37550D01*
X39700Y55850D02*
Y56450D01*
X39400D01*
X39300Y56350D01*
Y56150D01*
X39400Y56050D01*
X39700D01*
X39500D02*
X39300Y55850D01*
X39100Y56450D02*
X38700D01*
Y56350D01*
X39100Y55950D01*
Y55850D01*
X26806Y34595D02*
X26206D01*
Y34295D01*
X26306Y34195D01*
X26506D01*
X26606Y34295D01*
Y34595D01*
Y34395D02*
X26806Y34195D01*
X26306Y33995D02*
X26206Y33895D01*
Y33695D01*
X26306Y33595D01*
X26406D01*
X26506Y33695D01*
X26606Y33595D01*
X26706D01*
X26806Y33695D01*
Y33895D01*
X26706Y33995D01*
X26606D01*
X26506Y33895D01*
X26406Y33995D01*
X26306D01*
X26506Y33895D02*
Y33695D01*
X29600Y44330D02*
Y44930D01*
X29300D01*
X29200Y44830D01*
Y44630D01*
X29300Y44530D01*
X29600D01*
X29400D02*
X29200Y44330D01*
X29000D02*
X28800D01*
X28900D01*
Y44930D01*
X29000Y44830D01*
X28500D02*
X28400Y44930D01*
X28200D01*
X28100Y44830D01*
Y44430D01*
X28200Y44330D01*
X28400D01*
X28500Y44430D01*
Y44830D01*
X31350Y35400D02*
Y36000D01*
X31050D01*
X30950Y35900D01*
Y35700D01*
X31050Y35600D01*
X31350D01*
X31150D02*
X30950Y35400D01*
X30750D02*
X30550D01*
X30650D01*
Y36000D01*
X30750Y35900D01*
X30250Y35400D02*
X30050D01*
X30150D01*
Y36000D01*
X30250Y35900D01*
X33958Y65218D02*
Y65818D01*
X33658D01*
X33558Y65718D01*
Y65518D01*
X33658Y65418D01*
X33958D01*
X33758D02*
X33558Y65218D01*
X33358D02*
X33158D01*
X33258D01*
Y65818D01*
X33358Y65718D01*
X32858D02*
X32758Y65818D01*
X32558D01*
X32458Y65718D01*
Y65618D01*
X32558Y65518D01*
X32658D01*
X32558D01*
X32458Y65418D01*
Y65318D01*
X32558Y65218D01*
X32758D01*
X32858Y65318D01*
X32500Y62750D02*
Y63350D01*
X32200D01*
X32100Y63250D01*
Y63050D01*
X32200Y62950D01*
X32500D01*
X32300D02*
X32100Y62750D01*
X31900D02*
X31700D01*
X31800D01*
Y63350D01*
X31900Y63250D01*
X31000Y63350D02*
X31400D01*
Y63050D01*
X31200Y63150D01*
X31100D01*
X31000Y63050D01*
Y62850D01*
X31100Y62750D01*
X31300D01*
X31400Y62850D01*
X24050Y54650D02*
Y55250D01*
X23750D01*
X23650Y55150D01*
Y54950D01*
X23750Y54850D01*
X24050D01*
X23850D02*
X23650Y54650D01*
X23450D02*
X23250D01*
X23350D01*
Y55250D01*
X23450Y55150D01*
X22550Y55250D02*
X22750Y55150D01*
X22950Y54950D01*
Y54750D01*
X22850Y54650D01*
X22650D01*
X22550Y54750D01*
Y54850D01*
X22650Y54950D01*
X22950D01*
X49800Y33450D02*
X49200D01*
Y33150D01*
X49300Y33050D01*
X49500D01*
X49600Y33150D01*
Y33450D01*
Y33250D02*
X49800Y33050D01*
Y32850D02*
Y32650D01*
Y32750D01*
X49200D01*
X49300Y32850D01*
X49700Y32350D02*
X49800Y32250D01*
Y32050D01*
X49700Y31950D01*
X49300D01*
X49200Y32050D01*
Y32250D01*
X49300Y32350D01*
X49400D01*
X49500Y32250D01*
Y31950D01*
X46950Y33450D02*
X46350D01*
Y33150D01*
X46450Y33050D01*
X46650D01*
X46750Y33150D01*
Y33450D01*
Y33250D02*
X46950Y33050D01*
Y32450D02*
Y32850D01*
X46550Y32450D01*
X46450D01*
X46350Y32550D01*
Y32750D01*
X46450Y32850D01*
Y32250D02*
X46350Y32150D01*
Y31950D01*
X46450Y31851D01*
X46850D01*
X46950Y31950D01*
Y32150D01*
X46850Y32250D01*
X46450D01*
X48600Y41650D02*
Y42250D01*
X48300D01*
X48200Y42150D01*
Y41950D01*
X48300Y41850D01*
X48600D01*
X48400D02*
X48200Y41650D01*
X47600D02*
X48000D01*
X47600Y42050D01*
Y42150D01*
X47700Y42250D01*
X47900D01*
X48000Y42150D01*
X47100Y41650D02*
Y42250D01*
X47400Y41950D01*
X47001D01*
X48600Y40600D02*
Y41200D01*
X48300D01*
X48200Y41100D01*
Y40900D01*
X48300Y40800D01*
X48600D01*
X48400D02*
X48200Y40600D01*
X47600D02*
X48000D01*
X47600Y41000D01*
Y41100D01*
X47700Y41200D01*
X47900D01*
X48000Y41100D01*
X47001Y41200D02*
X47400D01*
Y40900D01*
X47200Y41000D01*
X47100D01*
X47001Y40900D01*
Y40700D01*
X47100Y40600D01*
X47300D01*
X47400Y40700D01*
X48050Y33650D02*
Y34249D01*
X47750D01*
X47650Y34149D01*
Y33950D01*
X47750Y33850D01*
X48050D01*
X47850D02*
X47650Y33650D01*
X47050D02*
X47450D01*
X47050Y34049D01*
Y34149D01*
X47150Y34249D01*
X47350D01*
X47450Y34149D01*
X46450Y34249D02*
X46650Y34149D01*
X46850Y33950D01*
Y33750D01*
X46750Y33650D01*
X46550D01*
X46450Y33750D01*
Y33850D01*
X46550Y33950D01*
X46850D01*
X45777Y35560D02*
Y36160D01*
X45477D01*
X45377Y36060D01*
Y35860D01*
X45477Y35760D01*
X45777D01*
X45577D02*
X45377Y35560D01*
X44777D02*
X45177D01*
X44777Y35960D01*
Y36060D01*
X44877Y36160D01*
X45077D01*
X45177Y36060D01*
X44577Y36160D02*
X44177D01*
Y36060D01*
X44577Y35660D01*
Y35560D01*
X27856Y35195D02*
X27256D01*
Y34895D01*
X27356Y34795D01*
X27556D01*
X27656Y34895D01*
Y35195D01*
Y34995D02*
X27856Y34795D01*
Y34195D02*
Y34595D01*
X27456Y34195D01*
X27356D01*
X27256Y34295D01*
Y34495D01*
X27356Y34595D01*
Y33995D02*
X27256Y33895D01*
Y33695D01*
X27356Y33595D01*
X27456D01*
X27556Y33695D01*
X27656Y33595D01*
X27756D01*
X27856Y33695D01*
Y33895D01*
X27756Y33995D01*
X27656D01*
X27556Y33895D01*
X27456Y33995D01*
X27356D01*
X27556Y33895D02*
Y33695D01*
X43000Y35315D02*
X42400D01*
Y35015D01*
X42500Y34915D01*
X42700D01*
X42800Y35015D01*
Y35315D01*
Y35115D02*
X43000Y34915D01*
Y34315D02*
Y34715D01*
X42600Y34315D01*
X42500D01*
X42400Y34415D01*
Y34615D01*
X42500Y34715D01*
X42900Y34115D02*
X43000Y34015D01*
Y33815D01*
X42900Y33715D01*
X42500D01*
X42400Y33815D01*
Y34015D01*
X42500Y34115D01*
X42600D01*
X42700Y34015D01*
Y33715D01*
X44000Y35315D02*
X43400D01*
Y35015D01*
X43500Y34915D01*
X43700D01*
X43800Y35015D01*
Y35315D01*
Y35115D02*
X44000Y34915D01*
X43500Y34715D02*
X43400Y34615D01*
Y34415D01*
X43500Y34315D01*
X43600D01*
X43700Y34415D01*
Y34515D01*
Y34415D01*
X43800Y34315D01*
X43900D01*
X44000Y34415D01*
Y34615D01*
X43900Y34715D01*
X43500Y34115D02*
X43400Y34015D01*
Y33815D01*
X43500Y33715D01*
X43900D01*
X44000Y33815D01*
Y34015D01*
X43900Y34115D01*
X43500D01*
D11*
X35061Y61200D02*
X45061D01*
X35061Y62720D02*
X45931D01*
X35061Y62710D02*
X45931D01*
X35061Y62700D02*
X45931D01*
X35061Y62690D02*
X45931D01*
X35061Y62680D02*
X45931D01*
X35061Y62670D02*
X45931D01*
X35061Y62660D02*
X45931D01*
X35061Y62650D02*
X45931D01*
X35061Y62640D02*
X45931D01*
X35061Y62630D02*
X45931D01*
X35061Y62620D02*
X45931D01*
X35061Y62610D02*
X45931D01*
X35061Y62600D02*
X45931D01*
X35061Y62590D02*
X45931D01*
X35061Y62580D02*
X45931D01*
X35061Y62570D02*
X45931D01*
X35061Y62560D02*
X45931D01*
X35061Y62550D02*
X45931D01*
X35061Y62540D02*
X45931D01*
X35061Y62530D02*
X45931D01*
X35061Y62520D02*
X45931D01*
X35061Y62510D02*
X45931D01*
X35061Y62500D02*
X45931D01*
X35061Y62490D02*
X45931D01*
X35061Y62480D02*
X45931D01*
X35061Y62470D02*
X45931D01*
X35061Y62460D02*
X45931D01*
X35061Y62450D02*
X45931D01*
X35061Y62440D02*
X45931D01*
X35061Y62430D02*
X45931D01*
X35061Y62420D02*
X45931D01*
X35061Y62410D02*
X45931D01*
X35061Y62400D02*
X45931D01*
X35061Y62390D02*
X45931D01*
X35061Y62380D02*
X45931D01*
X35061Y62370D02*
X45931D01*
X35061Y62360D02*
X45931D01*
X35061Y62350D02*
X45931D01*
X35061Y62340D02*
X45931D01*
X35061Y62330D02*
X45931D01*
X35061Y62320D02*
X45931D01*
X35061Y62310D02*
X45931D01*
X35061Y62300D02*
X45931D01*
X35061Y62290D02*
X45931D01*
X35061Y62280D02*
X45931D01*
X35061Y62270D02*
X45931D01*
X35061Y62260D02*
X45111D01*
X35061Y62250D02*
X45051D01*
X35061Y62240D02*
X45021D01*
X35061Y62230D02*
X45001D01*
X35061Y62220D02*
X44981D01*
X35061Y62210D02*
X44961D01*
X35061Y62200D02*
X44951D01*
X35061Y62190D02*
X44941D01*
X35061Y62180D02*
X44931D01*
X35061Y62170D02*
X44921D01*
X35061Y62160D02*
X44911D01*
X35061Y62150D02*
X44901D01*
X35061Y62140D02*
X44901D01*
X35061Y62130D02*
X44891D01*
X37791Y61980D02*
X39851D01*
X37791Y61970D02*
X39851D01*
X37791Y61960D02*
X39851D01*
X37791Y61950D02*
X39851D01*
X37791Y61940D02*
X39851D01*
X37791Y61930D02*
X39851D01*
X37791Y61920D02*
X39851D01*
X37791Y61910D02*
X39851D01*
X37791Y61900D02*
X39851D01*
X37791Y61890D02*
X39851D01*
X37791Y61880D02*
X39851D01*
X37791Y61870D02*
X39851D01*
X37791Y61860D02*
X39851D01*
X37791Y61850D02*
X39851D01*
X37791Y61840D02*
X39851D01*
X37791Y61830D02*
X39851D01*
X37791Y61820D02*
X39851D01*
X37791Y61810D02*
X39851D01*
X37791Y61800D02*
X39851D01*
X37791Y61790D02*
X39851D01*
X37791Y61780D02*
X39851D01*
X37791Y61770D02*
X39851D01*
X37791Y61760D02*
X39851D01*
X37791Y61600D02*
X39851D01*
X37791Y61590D02*
X39851D01*
X37791Y61580D02*
X39851D01*
X37791Y61570D02*
X39851D01*
X37791Y61560D02*
X39851D01*
X37791Y61550D02*
X39851D01*
X37791Y61540D02*
X39851D01*
X37791Y61530D02*
X39851D01*
X37791Y61520D02*
X39851D01*
X37791Y61510D02*
X39851D01*
X37791Y61500D02*
X39851D01*
X37791Y61490D02*
X39851D01*
X37791Y61480D02*
X39851D01*
X37791Y61470D02*
X39851D01*
X37791Y61460D02*
X39851D01*
X37791Y61450D02*
X39851D01*
X37791Y61440D02*
X39851D01*
X37791Y61430D02*
X39851D01*
X37791Y61420D02*
X39851D01*
X37791Y61410D02*
X39851D01*
X35061Y61230D02*
X44981D01*
X35061Y61220D02*
X45001D01*
X35061Y61210D02*
X45031D01*
X35061Y61190D02*
X45101D01*
X35061Y61180D02*
X45181D01*
X35061Y61170D02*
X45931D01*
X35061Y61160D02*
X45931D01*
X35061Y61150D02*
X45931D01*
X35061Y61140D02*
X45931D01*
X35061Y61130D02*
X45931D01*
X35061Y61120D02*
X45931D01*
X35061Y61110D02*
X45931D01*
X35061Y61100D02*
X45931D01*
X35061Y61090D02*
X45931D01*
X35061Y61080D02*
X45931D01*
X35061Y61070D02*
X45931D01*
X35061Y61060D02*
X45931D01*
X35061Y61050D02*
X45931D01*
X35061Y61040D02*
X45931D01*
X35061Y61030D02*
X45931D01*
X35061Y61020D02*
X45931D01*
X35061Y61010D02*
X45931D01*
X35061Y61000D02*
X45931D01*
X35061Y60990D02*
X45931D01*
X35061Y60980D02*
X45931D01*
X35061Y60970D02*
X45931D01*
X35061Y60960D02*
X45931D01*
X35061Y60950D02*
X45931D01*
X35061Y60940D02*
X45931D01*
X35061Y60930D02*
X45931D01*
X35061Y60920D02*
X45931D01*
X35061Y60910D02*
X45931D01*
X35061Y60900D02*
X45931D01*
X35061Y60890D02*
X45931D01*
X35061Y60880D02*
X45931D01*
X35061Y60870D02*
X45931D01*
X35061Y60860D02*
X45931D01*
X35061Y60850D02*
X45931D01*
X35061Y60840D02*
X45931D01*
X35061Y60830D02*
X45931D01*
X35061Y60820D02*
X45931D01*
X35061Y60810D02*
X45931D01*
X35061Y60800D02*
X45931D01*
X35061Y60790D02*
X45931D01*
X35061Y60780D02*
X45931D01*
X35061Y60770D02*
X47801D01*
X37791Y62000D02*
X38411D01*
X37791Y62120D02*
X38411D01*
X37791Y62110D02*
X38411D01*
X37791Y62100D02*
X38411D01*
X37791Y62090D02*
X38411D01*
X37791Y62080D02*
X38411D01*
X37791Y62070D02*
X38411D01*
X37791Y62060D02*
X38411D01*
X37791Y62050D02*
X38411D01*
X37791Y62040D02*
X38411D01*
X37791Y62030D02*
X38411D01*
X37791Y62020D02*
X38411D01*
X37791Y62010D02*
X38411D01*
X37791Y61990D02*
X38411D01*
X37791Y61750D02*
X39021D01*
X37791Y61740D02*
X39021D01*
X33381D02*
X37361D01*
X33381Y61730D02*
X35061D01*
X33381Y61720D02*
X35061D01*
X33381Y61710D02*
X35061D01*
X33381Y61700D02*
X35061D01*
X33381Y61690D02*
X35061D01*
X33381Y61680D02*
X35061D01*
X37791Y61670D02*
X39021D01*
X37791Y61660D02*
X39021D01*
X37791Y61650D02*
X39021D01*
X37791Y61640D02*
X39021D01*
X37791Y61630D02*
X39021D01*
X37791Y61620D02*
X39021D01*
X37791Y61610D02*
X39021D01*
X37791Y61400D02*
X38411D01*
X37791Y61390D02*
X38411D01*
X37791Y61380D02*
X38411D01*
X37791Y61370D02*
X38411D01*
X37791Y61360D02*
X38411D01*
X37791Y61350D02*
X38411D01*
X37791Y61340D02*
X38411D01*
X37791Y61330D02*
X38411D01*
X37791Y61320D02*
X38411D01*
X37791Y61310D02*
X38411D01*
X37791Y61300D02*
X38411D01*
X37791Y61290D02*
X38411D01*
X37791Y61280D02*
X38411D01*
X37791Y61270D02*
X38411D01*
X37791Y61260D02*
X38411D01*
X37791Y61250D02*
X38411D01*
X37791Y61240D02*
X38411D01*
X40281Y62120D02*
X41681D01*
X40281Y62110D02*
X41581D01*
X40281Y62100D02*
X41511D01*
X40281Y62090D02*
X41451D01*
X44321Y61910D02*
X45061D01*
X44321Y61900D02*
X45161D01*
X44321Y61890D02*
X45261D01*
X44321Y61880D02*
X45901D01*
X44321Y61870D02*
X45841D01*
X44321Y61860D02*
X45801D01*
X41451D02*
X42711D01*
X44321Y61850D02*
X45771D01*
X41441D02*
X42711D01*
X44321Y61840D02*
X45741D01*
X41421D02*
X42711D01*
X44321Y61830D02*
X45721D01*
X41411D02*
X42711D01*
X44321Y61820D02*
X45711D01*
X41401D02*
X42711D01*
X44321Y61810D02*
X45691D01*
X41391D02*
X42711D01*
X44321Y61800D02*
X45681D01*
X41391D02*
X42711D01*
X44321Y61790D02*
X45671D01*
X41381D02*
X42711D01*
X44321Y61780D02*
X45661D01*
X41371D02*
X42711D01*
X44321Y61770D02*
X45651D01*
X41371D02*
X42711D01*
X44321Y61760D02*
X45641D01*
X41361D02*
X42711D01*
X44321Y61750D02*
X45641D01*
X41361D02*
X42711D01*
X47181Y61740D02*
X49481D01*
X44321D02*
X45631D01*
X41361D02*
X42711D01*
X47801Y61730D02*
X49481D01*
X47801Y61720D02*
X49481D01*
X47801Y61710D02*
X49481D01*
X47801Y61700D02*
X49481D01*
X47801Y61690D02*
X49481D01*
X47801Y61680D02*
X49481D01*
X44321Y61670D02*
X45641D01*
X41351D02*
X42711D01*
X44321Y61660D02*
X45641D01*
X41351D02*
X42711D01*
X44321Y61650D02*
X45651D01*
X41361D02*
X42711D01*
X44321Y61640D02*
X45651D01*
X41361D02*
X42711D01*
X44321Y61630D02*
X45661D01*
X41361D02*
X42711D01*
X44321Y61620D02*
X45671D01*
X41371D02*
X42711D01*
X44321Y61610D02*
X45681D01*
X41371D02*
X42711D01*
X44321Y61600D02*
X45331D01*
X41381D02*
X42711D01*
X44321Y61590D02*
X45231D01*
X41381D02*
X42711D01*
X44321Y61580D02*
X45141D01*
X41391D02*
X42711D01*
X44321Y61570D02*
X45051D01*
X41401D02*
X42711D01*
X41411Y61560D02*
X42711D01*
X41411Y61550D02*
X42711D01*
X41421Y61540D02*
X42711D01*
X41431Y61530D02*
X42711D01*
X41441Y61520D02*
X42711D01*
X41451Y61510D02*
X42711D01*
X40281Y61260D02*
X41491D01*
X40281Y61250D02*
X41561D01*
X40281Y61240D02*
X41661D01*
X35061Y62000D02*
X37371D01*
X40281D02*
X41161D01*
X43141D02*
X43891D01*
X47181D02*
X47801D01*
X45991D02*
X46681D01*
X45361D02*
X45931D01*
X46991Y61200D02*
X47801D01*
X35061Y62120D02*
X37371D01*
X35061Y62110D02*
X37371D01*
X35061Y62100D02*
X37371D01*
X35061Y62090D02*
X37371D01*
X35061Y62080D02*
X37371D01*
X35061Y62070D02*
X37371D01*
X35061Y62060D02*
X37371D01*
X35061Y62050D02*
X37371D01*
X35061Y62040D02*
X37371D01*
X35061Y62030D02*
X37371D01*
X35061Y62020D02*
X37371D01*
X35061Y62010D02*
X37371D01*
X35061Y61990D02*
X37371D01*
X35061Y61980D02*
X37371D01*
X35061Y61970D02*
X37371D01*
X35061Y61960D02*
X37371D01*
X35061Y61950D02*
X37371D01*
X35061Y61940D02*
X37371D01*
X35061Y61930D02*
X37371D01*
X35061Y61920D02*
X37371D01*
X35061Y61910D02*
X37371D01*
X35061Y61900D02*
X37371D01*
X35061Y61890D02*
X37371D01*
X35061Y61880D02*
X37371D01*
X35061Y61870D02*
X37371D01*
X35061Y61860D02*
X37371D01*
X35061Y61850D02*
X37371D01*
X35061Y61840D02*
X37371D01*
X35061Y61830D02*
X37371D01*
X35061Y61820D02*
X37371D01*
X35061Y61810D02*
X37371D01*
X35061Y61800D02*
X37371D01*
X35061Y61790D02*
X37371D01*
X35061Y61780D02*
X37371D01*
X35061Y61770D02*
X37371D01*
X35061Y61760D02*
X37371D01*
X35061Y61750D02*
X37371D01*
X35061Y61670D02*
X37371D01*
X35061Y61660D02*
X37371D01*
X35061Y61650D02*
X37371D01*
X35061Y61640D02*
X37371D01*
X35061Y61630D02*
X37371D01*
X35061Y61620D02*
X37371D01*
X35061Y61610D02*
X37371D01*
X35061Y61600D02*
X37371D01*
X35061Y61590D02*
X37371D01*
X35061Y61580D02*
X37371D01*
X35061Y61570D02*
X37371D01*
X35061Y61560D02*
X37371D01*
X35061Y61550D02*
X37371D01*
X35061Y61540D02*
X37371D01*
X35061Y61530D02*
X37371D01*
X35061Y61520D02*
X37371D01*
X35061Y61510D02*
X37371D01*
X35061Y61500D02*
X37371D01*
X35061Y61490D02*
X37371D01*
X35061Y61480D02*
X37371D01*
X35061Y61470D02*
X37371D01*
X35061Y61460D02*
X37371D01*
X35061Y61450D02*
X37371D01*
X35061Y61440D02*
X37371D01*
X35061Y61430D02*
X37371D01*
X35061Y61420D02*
X37371D01*
X35061Y61410D02*
X37371D01*
X35061Y61400D02*
X37371D01*
X35061Y61390D02*
X37371D01*
X35061Y61380D02*
X37371D01*
X35061Y61370D02*
X37371D01*
X35061Y61360D02*
X37371D01*
X35061Y61350D02*
X37371D01*
X35061Y61340D02*
X37371D01*
X35061Y61330D02*
X37371D01*
X35061Y61320D02*
X37371D01*
X35061Y61310D02*
X37371D01*
X35061Y61300D02*
X37371D01*
X35061Y61290D02*
X37371D01*
X35061Y61280D02*
X37371D01*
X35061Y61270D02*
X37371D01*
X35061Y61260D02*
X37371D01*
X35061Y61250D02*
X37371D01*
X35061Y61240D02*
X37371D01*
X40281Y62080D02*
X41411D01*
X40281Y62070D02*
X41361D01*
X40281Y62060D02*
X41331D01*
X40281Y62050D02*
X41291D01*
X40281Y62040D02*
X41261D01*
X40281Y62030D02*
X41231D01*
X40281Y62020D02*
X41211D01*
X40281Y62010D02*
X41181D01*
X40281Y61990D02*
X41141D01*
X40281Y61980D02*
X41121D01*
X40281Y61970D02*
X41101D01*
X40281Y61960D02*
X41091D01*
X40281Y61950D02*
X41071D01*
X40281Y61940D02*
X41061D01*
X40281Y61930D02*
X41051D01*
X40281Y61440D02*
X41051D01*
X40281Y61430D02*
X41061D01*
X40281Y61420D02*
X41081D01*
X40281Y61410D02*
X41091D01*
X40281Y61400D02*
X41101D01*
X40281Y61390D02*
X41121D01*
X40281Y61380D02*
X41131D01*
X40281Y61370D02*
X41151D01*
X40281Y61360D02*
X41171D01*
X40281Y61350D02*
X41191D01*
X40281Y61340D02*
X41211D01*
X40281Y61330D02*
X41231D01*
X40281Y61320D02*
X41261D01*
X40281Y61310D02*
X41281D01*
X40281Y61300D02*
X41311D01*
X40281Y61290D02*
X41351D01*
X40281Y61280D02*
X41391D01*
X40281Y61270D02*
X41431D01*
X43141Y62120D02*
X43891D01*
X43141Y62110D02*
X43891D01*
X43141Y62100D02*
X43891D01*
X43141Y62090D02*
X43891D01*
X43141Y62080D02*
X43891D01*
X43141Y62070D02*
X43891D01*
X43141Y62060D02*
X43891D01*
X43141Y62050D02*
X43891D01*
X43141Y62040D02*
X43891D01*
X43141Y62030D02*
X43891D01*
X43141Y62020D02*
X43891D01*
X43141Y62010D02*
X43891D01*
X43141Y61990D02*
X43891D01*
X43141Y61980D02*
X43891D01*
X43141Y61970D02*
X43891D01*
X43141Y61960D02*
X43891D01*
X43141Y61950D02*
X43891D01*
X41771D02*
X42711D01*
X43141Y61940D02*
X43891D01*
X41681D02*
X42711D01*
X43141Y61930D02*
X43891D01*
X41631D02*
X42711D01*
X43141Y61920D02*
X43891D01*
X41591D02*
X42711D01*
X43141Y61910D02*
X43891D01*
X41561D02*
X42711D01*
X43141Y61900D02*
X43891D01*
X41531D02*
X42711D01*
X43141Y61890D02*
X43891D01*
X41501D02*
X42711D01*
X43141Y61880D02*
X43891D01*
X41481D02*
X42711D01*
X43141Y61870D02*
X43891D01*
X41471D02*
X42711D01*
X43141Y61860D02*
X43891D01*
X43141Y61850D02*
X43891D01*
X43141Y61840D02*
X43891D01*
X43141Y61830D02*
X43891D01*
X43141Y61820D02*
X43891D01*
X43141Y61810D02*
X43891D01*
X43141Y61800D02*
X43891D01*
X43141Y61790D02*
X43891D01*
X43141Y61780D02*
X43891D01*
X43141Y61770D02*
X43891D01*
X43141Y61760D02*
X43891D01*
X43141Y61750D02*
X43891D01*
X43141Y61740D02*
X43891D01*
X43141Y61670D02*
X43891D01*
X43141Y61660D02*
X43891D01*
X43141Y61650D02*
X43891D01*
X43141Y61640D02*
X43891D01*
X43141Y61630D02*
X43891D01*
X43141Y61620D02*
X43891D01*
X43141Y61610D02*
X43891D01*
X43141Y61600D02*
X43891D01*
X43141Y61590D02*
X43891D01*
X43141Y61580D02*
X43891D01*
X43141Y61570D02*
X43891D01*
X43141Y61560D02*
X43891D01*
X43141Y61550D02*
X43891D01*
X43141Y61540D02*
X43891D01*
X43141Y61530D02*
X43891D01*
X43141Y61520D02*
X43891D01*
X43141Y61510D02*
X43891D01*
X43141Y61500D02*
X43891D01*
X41471D02*
X42711D01*
X43141Y61490D02*
X43891D01*
X41481D02*
X42711D01*
X43141Y61480D02*
X43891D01*
X41491D02*
X42711D01*
X43141Y61470D02*
X43891D01*
X41511D02*
X42711D01*
X43141Y61460D02*
X43891D01*
X41531D02*
X42711D01*
X43141Y61450D02*
X43891D01*
X41551D02*
X42711D01*
X43141Y61440D02*
X43891D01*
X41571D02*
X42711D01*
X43141Y61430D02*
X43891D01*
X41601D02*
X42711D01*
X43141Y61420D02*
X43891D01*
X41631D02*
X42711D01*
X43141Y61410D02*
X43891D01*
X41681D02*
X42711D01*
X43141Y61400D02*
X43891D01*
X41751D02*
X42711D01*
X43141Y61390D02*
X43891D01*
X43141Y61380D02*
X43891D01*
X43141Y61370D02*
X43891D01*
X43141Y61360D02*
X43891D01*
X43141Y61350D02*
X43891D01*
X43141Y61340D02*
X43891D01*
X43141Y61330D02*
X43891D01*
X43141Y61320D02*
X43891D01*
X43141Y61310D02*
X43891D01*
X43141Y61300D02*
X43891D01*
X43141Y61290D02*
X43891D01*
X43141Y61280D02*
X43891D01*
X43141Y61270D02*
X43891D01*
X43141Y61260D02*
X43891D01*
X43141Y61250D02*
X43891D01*
X43141Y61240D02*
X43891D01*
X45991Y62720D02*
X47801D01*
X45991Y62710D02*
X47801D01*
X45991Y62700D02*
X47801D01*
X45991Y62690D02*
X47801D01*
X45991Y62680D02*
X47801D01*
X45991Y62670D02*
X47801D01*
X45991Y62660D02*
X47801D01*
X45991Y62650D02*
X47801D01*
X45991Y62640D02*
X47801D01*
X45991Y62630D02*
X47801D01*
X45991Y62620D02*
X47801D01*
X45991Y62610D02*
X47801D01*
X45991Y62600D02*
X47801D01*
X45991Y62590D02*
X47801D01*
X45991Y62580D02*
X47801D01*
X45991Y62570D02*
X47801D01*
X45991Y62560D02*
X47801D01*
X45991Y62550D02*
X47801D01*
X45991Y62540D02*
X47801D01*
X45991Y62530D02*
X47801D01*
X45991Y62520D02*
X47801D01*
X45991Y62510D02*
X47801D01*
X45991Y62500D02*
X47801D01*
X45991Y62490D02*
X47801D01*
X45991Y62480D02*
X47801D01*
X45991Y62470D02*
X47801D01*
X45991Y62460D02*
X47801D01*
X45991Y62450D02*
X47801D01*
X45991Y62440D02*
X47801D01*
X45991Y62430D02*
X47801D01*
X45991Y62420D02*
X47801D01*
X45991Y62410D02*
X47801D01*
X45991Y62400D02*
X47801D01*
X45991Y62390D02*
X47801D01*
X45991Y62380D02*
X47801D01*
X45991Y62370D02*
X47801D01*
X45991Y62360D02*
X47801D01*
X45991Y62350D02*
X47801D01*
X45991Y62340D02*
X47801D01*
X45991Y62330D02*
X47801D01*
X45991Y62320D02*
X47801D01*
X45991Y62310D02*
X47801D01*
X45991Y62300D02*
X47801D01*
X45991Y62290D02*
X47801D01*
X45991Y62280D02*
X47801D01*
X45991Y62270D02*
X47801D01*
X46961Y62260D02*
X47801D01*
X47011Y62250D02*
X47801D01*
X47051Y62240D02*
X47801D01*
X47071Y62230D02*
X47801D01*
X47091Y62220D02*
X47801D01*
X47101Y62210D02*
X47801D01*
X47121Y62200D02*
X47801D01*
X47131Y62190D02*
X47801D01*
X47141Y62180D02*
X47801D01*
X47141Y62170D02*
X47801D01*
X47151Y62160D02*
X47801D01*
X47161Y62150D02*
X47801D01*
X47161Y62140D02*
X47801D01*
X47161Y62130D02*
X47801D01*
X47171Y62120D02*
X47801D01*
X47171Y62110D02*
X47801D01*
X47171Y62100D02*
X47801D01*
X47171Y62090D02*
X47801D01*
X45991D02*
X46681D01*
X45361D02*
X45931D01*
X47171Y62080D02*
X47801D01*
X45991D02*
X46681D01*
X45361D02*
X45931D01*
X47181Y62070D02*
X47801D01*
X45991D02*
X46681D01*
X45361D02*
X45931D01*
X47181Y62060D02*
X47801D01*
X45991D02*
X46681D01*
X45361D02*
X45931D01*
X47181Y62050D02*
X47801D01*
X45991D02*
X46681D01*
X45361D02*
X45931D01*
X47181Y62040D02*
X47801D01*
X45991D02*
X46681D01*
X45361D02*
X45931D01*
X47181Y62030D02*
X47801D01*
X45991D02*
X46681D01*
X45361D02*
X45931D01*
X47181Y62020D02*
X47801D01*
X45991D02*
X46681D01*
X45361D02*
X45931D01*
X47181Y62010D02*
X47801D01*
X45991D02*
X46681D01*
X45361D02*
X45931D01*
X47181Y61990D02*
X47801D01*
X45991D02*
X46681D01*
X45361D02*
X45931D01*
X47181Y61980D02*
X47801D01*
X45991D02*
X46681D01*
X45361D02*
X45931D01*
X47181Y61970D02*
X47801D01*
X45991D02*
X46681D01*
X45361D02*
X45931D01*
X47181Y61960D02*
X47801D01*
X45991D02*
X46681D01*
X45361D02*
X45931D01*
X47181Y61950D02*
X47801D01*
X45991D02*
X46681D01*
X45361D02*
X45931D01*
X47181Y61940D02*
X47801D01*
X45991D02*
X46681D01*
X45361D02*
X45931D01*
X47181Y61930D02*
X47801D01*
X45991D02*
X46681D01*
X45361D02*
X45931D01*
X47181Y61920D02*
X47801D01*
X45991D02*
X46681D01*
X45361D02*
X45931D01*
X47181Y61910D02*
X47801D01*
X45991D02*
X46681D01*
X45361D02*
X45931D01*
X47181Y61900D02*
X47801D01*
X45991D02*
X46681D01*
X45361D02*
X45931D01*
X47181Y61890D02*
X47801D01*
X45991D02*
X46681D01*
X45361D02*
X45931D01*
X47181Y61880D02*
X47801D01*
X46011D02*
X46681D01*
X47181Y61870D02*
X47801D01*
X46081D02*
X46681D01*
X47181Y61860D02*
X47801D01*
X46121D02*
X46681D01*
X47181Y61850D02*
X47801D01*
X46151D02*
X46681D01*
X47181Y61840D02*
X47801D01*
X46171D02*
X46681D01*
X47181Y61830D02*
X47801D01*
X46191D02*
X46681D01*
X47181Y61820D02*
X47801D01*
X46211D02*
X46681D01*
X47181Y61810D02*
X47801D01*
X46221D02*
X46681D01*
X47181Y61800D02*
X47801D01*
X46241D02*
X46681D01*
X47181Y61790D02*
X47801D01*
X46251D02*
X46681D01*
X45831D02*
X46081D01*
X47181Y61780D02*
X47801D01*
X46261D02*
X46681D01*
X45811D02*
X46101D01*
X47181Y61770D02*
X47801D01*
X46271D02*
X46681D01*
X45801D02*
X46121D01*
X47181Y61760D02*
X47801D01*
X46271D02*
X46681D01*
X45781D02*
X46131D01*
X47181Y61750D02*
X47801D01*
X46281D02*
X46681D01*
X45781D02*
X46141D01*
X46281Y61740D02*
X46681D01*
X45771D02*
X46151D01*
X45761Y61730D02*
X46151D01*
X45761Y61720D02*
X46151D01*
X45761Y61710D02*
X46161D01*
X45761Y61700D02*
X46161D01*
X45761Y61690D02*
X46151D01*
X45771Y61680D02*
X46151D01*
X47181Y61670D02*
X47801D01*
X46281D02*
X46681D01*
X45771D02*
X46151D01*
X47181Y61660D02*
X47801D01*
X46281D02*
X46681D01*
X45781D02*
X46141D01*
X47181Y61650D02*
X47801D01*
X46271D02*
X46681D01*
X45791D02*
X46131D01*
X47181Y61640D02*
X47801D01*
X46261D02*
X46681D01*
X45801D02*
X46121D01*
X47181Y61630D02*
X47801D01*
X46251D02*
X46681D01*
X45821D02*
X46101D01*
X47181Y61620D02*
X47801D01*
X46241D02*
X46681D01*
X45841D02*
X46081D01*
X47181Y61610D02*
X47801D01*
X46231D02*
X46681D01*
X47181Y61600D02*
X47801D01*
X46221D02*
X46681D01*
X47181Y61590D02*
X47801D01*
X46201D02*
X46681D01*
X47181Y61580D02*
X47801D01*
X46191D02*
X46681D01*
X47181Y61570D02*
X47801D01*
X46171D02*
X46681D01*
X47181Y61560D02*
X47801D01*
X46141D02*
X46681D01*
X47181Y61550D02*
X47801D01*
X46111D02*
X46681D01*
X47181Y61540D02*
X47801D01*
X46061D02*
X46681D01*
X45381D02*
X45851D01*
X47181Y61530D02*
X47801D01*
X45991D02*
X46681D01*
X45381D02*
X45931D01*
X47181Y61520D02*
X47801D01*
X45991D02*
X46681D01*
X45381D02*
X45931D01*
X47181Y61510D02*
X47801D01*
X45991D02*
X46681D01*
X45381D02*
X45931D01*
X47181Y61500D02*
X47801D01*
X45991D02*
X46681D01*
X45381D02*
X45931D01*
X47181Y61490D02*
X47801D01*
X45991D02*
X46681D01*
X45381D02*
X45931D01*
X47181Y61480D02*
X47801D01*
X45991D02*
X46681D01*
X45381D02*
X45931D01*
X47181Y61470D02*
X47801D01*
X45991D02*
X46681D01*
X45381D02*
X45931D01*
X47181Y61460D02*
X47801D01*
X45991D02*
X46681D01*
X45381D02*
X45931D01*
X47181Y61450D02*
X47801D01*
X45991D02*
X46681D01*
X45381D02*
X45931D01*
X47181Y61440D02*
X47801D01*
X45991D02*
X46681D01*
X45381D02*
X45931D01*
X47181Y61430D02*
X47801D01*
X45991D02*
X46681D01*
X45381D02*
X45931D01*
X47181Y61420D02*
X47801D01*
X45991D02*
X46681D01*
X45381D02*
X45931D01*
X47181Y61410D02*
X47801D01*
X45991D02*
X46681D01*
X45381D02*
X45931D01*
X47181Y61400D02*
X47801D01*
X45991D02*
X46681D01*
X45381D02*
X45931D01*
X47181Y61390D02*
X47801D01*
X45991D02*
X46681D01*
X45381D02*
X45931D01*
X47181Y61380D02*
X47801D01*
X45991D02*
X46681D01*
X45381D02*
X45931D01*
X47171Y61370D02*
X47801D01*
X47171Y61360D02*
X47801D01*
X47171Y61350D02*
X47801D01*
X47171Y61340D02*
X47801D01*
X47161Y61330D02*
X47801D01*
X47161Y61320D02*
X47801D01*
X47151Y61310D02*
X47801D01*
X47141Y61300D02*
X47801D01*
X47141Y61290D02*
X47801D01*
X47131Y61280D02*
X47801D01*
X47121Y61270D02*
X47801D01*
X47111Y61260D02*
X47801D01*
X47091Y61250D02*
X47801D01*
X47081Y61240D02*
X47801D01*
X47061Y61230D02*
X47801D01*
X47041Y61220D02*
X47801D01*
X47021Y61210D02*
X47801D01*
X46941Y61190D02*
X47801D01*
X46871Y61180D02*
X47801D01*
X45991Y61170D02*
X47801D01*
X45991Y61160D02*
X47801D01*
X45991Y61150D02*
X47801D01*
X45991Y61140D02*
X47801D01*
X45991Y61130D02*
X47801D01*
X45991Y61120D02*
X47801D01*
X45991Y61110D02*
X47801D01*
X45991Y61100D02*
X47801D01*
X45991Y61090D02*
X47801D01*
X45991Y61080D02*
X47801D01*
X45991Y61070D02*
X47801D01*
X45991Y61060D02*
X47801D01*
X45991Y61050D02*
X47801D01*
X45991Y61040D02*
X47801D01*
X45991Y61030D02*
X47801D01*
X45991Y61020D02*
X47801D01*
X45991Y61010D02*
X47801D01*
X45991Y61000D02*
X47801D01*
X45991Y60990D02*
X47801D01*
X45991Y60980D02*
X47801D01*
X45991Y60970D02*
X47801D01*
X45991Y60960D02*
X47801D01*
X45991Y60950D02*
X47801D01*
X45991Y60940D02*
X47801D01*
X45991Y60930D02*
X47801D01*
X45991Y60920D02*
X47801D01*
X45991Y60910D02*
X47801D01*
X45991Y60900D02*
X47801D01*
X45991Y60890D02*
X47801D01*
X45991Y60880D02*
X47801D01*
X45991Y60870D02*
X47801D01*
X45991Y60860D02*
X47801D01*
X45991Y60850D02*
X47801D01*
X45991Y60840D02*
X47801D01*
X45991Y60830D02*
X47801D01*
X45991Y60820D02*
X47801D01*
X45991Y60810D02*
X47801D01*
X45991Y60800D02*
X47801D01*
X45991Y60790D02*
X47801D01*
X45991Y60780D02*
X47801D01*
X44321Y62000D02*
X44861D01*
X45921Y63600D02*
X45991D01*
X45921Y62800D02*
X45991D01*
X45921Y60400D02*
X45991D01*
X40281Y61920D02*
X41031D01*
X40281Y61910D02*
X41021D01*
X40281Y61900D02*
X41011D01*
X40281Y61890D02*
X41001D01*
X40281Y61880D02*
X40991D01*
X40281Y61870D02*
X40991D01*
X40281Y61860D02*
X40981D01*
X40281Y61850D02*
X40971D01*
X40281Y61840D02*
X40961D01*
X40281Y61830D02*
X40961D01*
X40281Y61820D02*
X40951D01*
X40281Y61810D02*
X40951D01*
X40281Y61800D02*
X40941D01*
X40281Y61790D02*
X40941D01*
X40281Y61780D02*
X40941D01*
X40281Y61770D02*
X40931D01*
X40281Y61760D02*
X40931D01*
X40281Y61750D02*
X40931D01*
X40291Y61740D02*
X40931D01*
X40281Y61670D02*
X40921D01*
X40281Y61660D02*
X40931D01*
X40281Y61650D02*
X40931D01*
X40281Y61640D02*
X40931D01*
X40281Y61630D02*
X40931D01*
X40281Y61620D02*
X40931D01*
X40281Y61610D02*
X40941D01*
X40281Y61600D02*
X40941D01*
X40281Y61590D02*
X40941D01*
X40281Y61580D02*
X40951D01*
X40281Y61570D02*
X40951D01*
X40281Y61560D02*
X40961D01*
X40281Y61550D02*
X40961D01*
X40281Y61540D02*
X40971D01*
X40281Y61530D02*
X40981D01*
X40281Y61520D02*
X40981D01*
X40281Y61510D02*
X40991D01*
X40281Y61500D02*
X41001D01*
X40281Y61490D02*
X41001D01*
X40281Y61480D02*
X41011D01*
X40281Y61470D02*
X41021D01*
X40281Y61460D02*
X41031D01*
X40281Y61450D02*
X41041D01*
X44321Y62120D02*
X44891D01*
X44321Y62110D02*
X44881D01*
X44321Y62100D02*
X44881D01*
X44321Y62090D02*
X44881D01*
X44321Y62080D02*
X44871D01*
X44321Y62070D02*
X44871D01*
X44321Y62060D02*
X44871D01*
X44321Y62050D02*
X44871D01*
X44321Y62040D02*
X44871D01*
X44321Y62030D02*
X44861D01*
X44321Y62020D02*
X44861D01*
X44321Y62010D02*
X44861D01*
X44321Y61990D02*
X44861D01*
X44321Y61980D02*
X44861D01*
X44321Y61970D02*
X44861D01*
X44321Y61960D02*
X44871D01*
X44321Y61950D02*
X44871D01*
X44321Y61940D02*
X44871D01*
X44321Y61930D02*
X44871D01*
X44321Y61920D02*
X44961D01*
X44321Y61560D02*
X44961D01*
X44321Y61550D02*
X44871D01*
X44321Y61540D02*
X44861D01*
X44321Y61530D02*
X44861D01*
X44321Y61520D02*
X44861D01*
X44321Y61510D02*
X44861D01*
X44321Y61500D02*
X44861D01*
X44321Y61490D02*
X44861D01*
X44321Y61480D02*
X44861D01*
X44321Y61470D02*
X44861D01*
X44321Y61460D02*
X44861D01*
X44321Y61450D02*
X44861D01*
X44321Y61440D02*
X44861D01*
X44321Y61430D02*
X44861D01*
X44321Y61420D02*
X44861D01*
X44321Y61410D02*
X44861D01*
X44321Y61400D02*
X44861D01*
X44321Y61390D02*
X44861D01*
X44321Y61380D02*
X44861D01*
X44321Y61370D02*
X44861D01*
X44321Y61360D02*
X44871D01*
X44321Y61350D02*
X44871D01*
X44321Y61340D02*
X44871D01*
X44321Y61330D02*
X44881D01*
X44321Y61320D02*
X44881D01*
X44321Y61310D02*
X44891D01*
X44321Y61300D02*
X44891D01*
X44321Y61290D02*
X44901D01*
X44321Y61280D02*
X44911D01*
X44321Y61270D02*
X44921D01*
X44321Y61260D02*
X44931D01*
X44321Y61250D02*
X44941D01*
X44321Y61240D02*
X44961D01*
X45381Y61600D02*
X45701D01*
X45381Y61590D02*
X45711D01*
X45381Y61580D02*
X45731D01*
X45381Y61570D02*
X45751D01*
X45381Y61560D02*
X45781D01*
X45381Y61550D02*
X45811D01*
X45921Y63790D02*
X45991D01*
X45921Y63780D02*
X45991D01*
X45921Y63770D02*
X45991D01*
X45921Y63760D02*
X45991D01*
X45921Y63750D02*
X45991D01*
X45921Y63740D02*
X45991D01*
X45921Y63730D02*
X45991D01*
X45921Y63720D02*
X45991D01*
X45921Y63710D02*
X45991D01*
X45921Y63700D02*
X45991D01*
X45921Y63690D02*
X45991D01*
X45921Y63680D02*
X45991D01*
X45921Y63670D02*
X45991D01*
X45921Y63660D02*
X45991D01*
X45921Y63650D02*
X45991D01*
X45921Y63640D02*
X45991D01*
X45921Y63630D02*
X45991D01*
X45921Y63620D02*
X45991D01*
X45921Y63610D02*
X45991D01*
X45921Y63590D02*
X45991D01*
X45921Y63580D02*
X45991D01*
X45921Y63570D02*
X45991D01*
X45921Y63560D02*
X45991D01*
X45921Y63550D02*
X45991D01*
X45921Y63540D02*
X45991D01*
X45921Y63530D02*
X45991D01*
X45921Y63520D02*
X45991D01*
X45921Y63510D02*
X45991D01*
X45921Y63500D02*
X45991D01*
X45921Y63490D02*
X45991D01*
X45921Y63480D02*
X45991D01*
X45921Y63470D02*
X45991D01*
X45921Y63460D02*
X45991D01*
X45921Y63450D02*
X45991D01*
X45921Y63440D02*
X45991D01*
X45921Y63430D02*
X45991D01*
X45921Y63420D02*
X45991D01*
X45921Y63410D02*
X45991D01*
X45921Y63400D02*
X45991D01*
X45921Y63390D02*
X45991D01*
X45921Y63380D02*
X45991D01*
X45921Y63370D02*
X45991D01*
X45921Y63360D02*
X45991D01*
X45921Y63350D02*
X45991D01*
X45921Y63340D02*
X45991D01*
X45921Y63330D02*
X45991D01*
X45921Y63320D02*
X45991D01*
X45921Y63310D02*
X45991D01*
X45921Y63300D02*
X45991D01*
X45921Y63290D02*
X45991D01*
X45921Y63280D02*
X45991D01*
X45921Y63270D02*
X45991D01*
X45921Y63260D02*
X45991D01*
X45921Y63250D02*
X45991D01*
X45921Y63240D02*
X45991D01*
X45921Y63230D02*
X45991D01*
X45921Y63220D02*
X45991D01*
X45921Y63210D02*
X45991D01*
X45921Y63200D02*
X45991D01*
X45921Y63190D02*
X45991D01*
X45921Y63180D02*
X45991D01*
X45921Y63170D02*
X45991D01*
X45921Y63160D02*
X45991D01*
X45921Y63150D02*
X45991D01*
X45921Y63140D02*
X45991D01*
X45921Y63130D02*
X45991D01*
X45921Y63120D02*
X45991D01*
X45921Y63110D02*
X45991D01*
X45921Y63100D02*
X45991D01*
X45921Y63090D02*
X45991D01*
X45921Y63080D02*
X45991D01*
X45921Y63070D02*
X45991D01*
X45921Y63060D02*
X45991D01*
X45921Y63050D02*
X45991D01*
X45921Y63040D02*
X45991D01*
X45921Y63030D02*
X45991D01*
X45921Y63020D02*
X45991D01*
X45921Y63010D02*
X45991D01*
X45921Y63000D02*
X45991D01*
X45921Y62990D02*
X45991D01*
X45921Y62980D02*
X45991D01*
X45921Y62970D02*
X45991D01*
X45921Y62960D02*
X45991D01*
X45921Y62950D02*
X45991D01*
X45921Y62940D02*
X45991D01*
X45921Y62930D02*
X45991D01*
X45921Y62920D02*
X45991D01*
X45921Y62910D02*
X45991D01*
X45921Y62900D02*
X45991D01*
X45921Y62890D02*
X45991D01*
X45921Y62880D02*
X45991D01*
X45921Y62870D02*
X45991D01*
X45921Y62860D02*
X45991D01*
X45921Y62850D02*
X45991D01*
X45921Y62840D02*
X45991D01*
X45921Y62830D02*
X45991D01*
X45921Y62820D02*
X45991D01*
X45921Y62810D02*
X45991D01*
X45921Y62790D02*
X45991D01*
X45921Y62780D02*
X45991D01*
X45921Y62770D02*
X45991D01*
X45921Y62760D02*
X45991D01*
X45921Y62750D02*
X45991D01*
X45921Y62740D02*
X45991D01*
X45921Y62730D02*
X45991D01*
X45911Y61810D02*
X46011D01*
X45861Y61800D02*
X46061D01*
X45871Y61610D02*
X46051D01*
X45941Y61600D02*
X45981D01*
X45921Y60760D02*
X45991D01*
X45921Y60750D02*
X45991D01*
X45921Y60740D02*
X45991D01*
X45921Y60730D02*
X45991D01*
X45921Y60720D02*
X45991D01*
X45921Y60710D02*
X45991D01*
X45921Y60700D02*
X45991D01*
X45921Y60690D02*
X45991D01*
X45921Y60680D02*
X45991D01*
X45921Y60670D02*
X45991D01*
X45921Y60660D02*
X45991D01*
X45921Y60650D02*
X45991D01*
X45921Y60640D02*
X45991D01*
X45921Y60630D02*
X45991D01*
X45921Y60620D02*
X45991D01*
X45921Y60610D02*
X45991D01*
X45921Y60600D02*
X45991D01*
X45921Y60590D02*
X45991D01*
X45921Y60580D02*
X45991D01*
X45921Y60570D02*
X45991D01*
X45921Y60560D02*
X45991D01*
X45921Y60550D02*
X45991D01*
X45921Y60540D02*
X45991D01*
X45921Y60530D02*
X45991D01*
X45921Y60520D02*
X45991D01*
X45921Y60510D02*
X45991D01*
X45921Y60500D02*
X45991D01*
X45921Y60490D02*
X45991D01*
X45921Y60480D02*
X45991D01*
X45921Y60470D02*
X45991D01*
X45921Y60460D02*
X45991D01*
X45921Y60450D02*
X45991D01*
X45921Y60440D02*
X45991D01*
X45921Y60430D02*
X45991D01*
X45921Y60420D02*
X45991D01*
X45921Y60410D02*
X45991D01*
X45921Y60390D02*
X45991D01*
X45921Y60380D02*
X45991D01*
X45921Y60370D02*
X45991D01*
X45921Y60360D02*
X45991D01*
X45921Y60350D02*
X45991D01*
X45921Y60340D02*
X45991D01*
X45921Y60330D02*
X45991D01*
X45921Y60320D02*
X45991D01*
X45921Y60310D02*
X45991D01*
X45921Y60300D02*
X45991D01*
X45921Y60290D02*
X45991D01*
X45921Y60280D02*
X45991D01*
X45921Y60270D02*
X45991D01*
X45921Y60260D02*
X45991D01*
X45921Y60250D02*
X45991D01*
X45921Y60240D02*
X45991D01*
X45921Y60230D02*
X45991D01*
X45921Y60220D02*
X45991D01*
X45921Y60210D02*
X45991D01*
X45921Y60200D02*
X45991D01*
X45921Y60190D02*
X45991D01*
X45921Y60180D02*
X45991D01*
X45921Y60170D02*
X45991D01*
X45921Y60160D02*
X45991D01*
X45921Y60150D02*
X45991D01*
X45921Y60140D02*
X45991D01*
X45921Y60130D02*
X45991D01*
X45921Y60120D02*
X45991D01*
X45921Y60110D02*
X45991D01*
X45921Y60100D02*
X45991D01*
X45921Y60090D02*
X45991D01*
X45921Y60080D02*
X45991D01*
X45921Y60070D02*
X45991D01*
X45921Y60060D02*
X45991D01*
X45921Y60050D02*
X45991D01*
X45921Y60040D02*
X45991D01*
X45921Y60030D02*
X45991D01*
X45921Y60020D02*
X45991D01*
X45921Y60010D02*
X45991D01*
X45921Y60000D02*
X45991D01*
X45921Y59990D02*
X45991D01*
X45921Y59980D02*
X45991D01*
X45921Y59970D02*
X45991D01*
X45921Y59960D02*
X45991D01*
X45921Y59950D02*
X45991D01*
X45921Y59940D02*
X45991D01*
X45921Y59930D02*
X45991D01*
X45921Y59920D02*
X45991D01*
X45921Y59910D02*
X45991D01*
X45921Y59900D02*
X45991D01*
X45921Y59890D02*
X45991D01*
X45921Y59880D02*
X45991D01*
X45921Y59870D02*
X45991D01*
X45921Y59860D02*
X45991D01*
X45921Y59850D02*
X45991D01*
X45921Y59840D02*
X45991D01*
X45921Y59830D02*
X45991D01*
X45921Y59820D02*
X45991D01*
X45921Y59810D02*
X45991D01*
X45921Y59800D02*
X45991D01*
X45921Y59790D02*
X45991D01*
X45921Y59780D02*
X45991D01*
X45921Y59770D02*
X45991D01*
X45921Y59760D02*
X45991D01*
X45921Y59750D02*
X45991D01*
X45921Y59740D02*
X45991D01*
X45921Y59730D02*
X45991D01*
X45921Y59720D02*
X45991D01*
X45921Y59710D02*
X45991D01*
X45921Y59700D02*
X45991D01*
D12*
X48350Y47550D02*
Y48543D01*
X47853D01*
X47688Y48378D01*
Y48047D01*
X47853Y47881D01*
X48350D01*
X47357Y47550D02*
Y48543D01*
X46860D01*
X46694Y48378D01*
Y48047D01*
X46860Y47881D01*
X47357D01*
X47025D02*
X46694Y47550D01*
X45867Y48543D02*
X46198D01*
X46363Y48378D01*
Y47716D01*
X46198Y47550D01*
X45867D01*
X45701Y47716D01*
Y48378D01*
X45867Y48543D01*
X45370D02*
Y48378D01*
X45039Y48047D01*
X44708Y48378D01*
Y48543D01*
X45039Y48047D02*
Y47550D01*
X43714Y48543D02*
X44376D01*
Y47550D01*
X43714D01*
X44376Y48047D02*
X44045D01*
X42721Y48378D02*
X42886Y48543D01*
X43218D01*
X43383Y48378D01*
Y47716D01*
X43218Y47550D01*
X42886D01*
X42721Y47716D01*
X42390Y48543D02*
X41727D01*
X42059D01*
Y47550D01*
X40900Y48543D02*
X41231D01*
X41396Y48378D01*
Y47716D01*
X41231Y47550D01*
X40900D01*
X40734Y47716D01*
Y48378D01*
X40900Y48543D01*
X45988Y49728D02*
X46153Y49893D01*
X46484D01*
X46650Y49728D01*
Y49066D01*
X46484Y48900D01*
X46153D01*
X45988Y49066D01*
X45657Y49893D02*
X45325D01*
X45491D01*
Y48900D01*
X45657D01*
X45325D01*
X44829Y49893D02*
Y48900D01*
X44332D01*
X44167Y49066D01*
Y49728D01*
X44332Y49893D01*
X44829D01*
X43173D02*
X43835D01*
Y48900D01*
X43173D01*
X43835Y49397D02*
X43504D01*
X42842Y49893D02*
X42511D01*
X42676D01*
Y48900D01*
X42842D01*
X42511D01*
X49735Y46150D02*
Y47143D01*
X49404Y46812D01*
X49073Y47143D01*
Y46150D01*
X48079Y47143D02*
X48742D01*
Y46150D01*
X48079D01*
X48742Y46647D02*
X48410D01*
X47748Y47143D02*
X47086D01*
X47417D01*
Y46150D01*
X46258Y47143D02*
X46589D01*
X46755Y46978D01*
Y46316D01*
X46589Y46150D01*
X46258D01*
X46093Y46316D01*
Y46978D01*
X46258Y47143D01*
X45761D02*
Y46150D01*
X45265D01*
X45099Y46316D01*
Y46978D01*
X45265Y47143D01*
X45761D01*
X44271D02*
X44602D01*
X44768Y46978D01*
Y46316D01*
X44602Y46150D01*
X44271D01*
X44106Y46316D01*
Y46978D01*
X44271Y47143D01*
X43775D02*
Y46150D01*
X43112D01*
X42285Y47143D02*
X42616D01*
X42781Y46978D01*
Y46316D01*
X42616Y46150D01*
X42285D01*
X42119Y46316D01*
Y46978D01*
X42285Y47143D01*
X41126Y46978D02*
X41291Y47143D01*
X41622D01*
X41788Y46978D01*
Y46316D01*
X41622Y46150D01*
X41291D01*
X41126Y46316D01*
Y46647D01*
X41457D01*
X40795Y47143D02*
X40463D01*
X40629D01*
Y46150D01*
X40795D01*
X40463D01*
X39967D02*
Y46812D01*
X39636Y47143D01*
X39304Y46812D01*
Y46150D01*
Y46647D01*
X39967D01*
M02*
