%FSLAX24Y24*%
%MOIN*%
G70*
G01*
G75*
G04 Layer_Color=8388736*
%ADD10C,0.0787*%
%ADD11R,0.0512X0.0709*%
%ADD12R,0.0709X0.0512*%
%ADD13R,0.0709X0.0866*%
%ADD14R,0.2362X0.2441*%
%ADD15R,0.0827X0.1457*%
%ADD16R,0.1146X0.1496*%
%ADD17R,0.0886X0.0453*%
%ADD18R,0.1575X0.1004*%
%ADD19R,0.1772X0.1004*%
%ADD20R,0.1083X0.0394*%
%ADD21R,0.0335X0.0886*%
%ADD22R,0.0551X0.0512*%
%ADD23R,0.0795X0.0898*%
%ADD24R,0.1024X0.2402*%
%ADD25R,0.2480X0.2638*%
%ADD26R,0.0827X0.1378*%
%ADD27O,0.0295X0.0906*%
%ADD28O,0.0906X0.0295*%
%ADD29C,0.0591*%
%ADD30R,0.0787X0.0787*%
%ADD31C,0.0787*%
%ADD32R,0.0787X0.0787*%
%ADD33C,0.0945*%
%ADD34R,0.0945X0.0945*%
%ADD35R,0.0945X0.0945*%
%ADD36C,0.0709*%
%ADD37C,0.3346*%
%ADD38C,0.0630*%
%ADD39C,0.0697*%
D10*
X26328Y65308D02*
X26331Y62001D01*
D11*
X46709Y41980D02*
D03*
X47339D02*
D03*
X24200Y45100D02*
D03*
X23570D02*
D03*
X34850Y32350D02*
D03*
X34220D02*
D03*
X23907Y63910D02*
D03*
X23277D02*
D03*
X23907Y62960D02*
D03*
X23277D02*
D03*
X46709Y40909D02*
D03*
X47339D02*
D03*
D12*
X45110Y52100D02*
D03*
Y52730D02*
D03*
Y55850D02*
D03*
Y55220D02*
D03*
X39750Y32400D02*
D03*
Y33030D02*
D03*
X38700Y32400D02*
D03*
Y33030D02*
D03*
D13*
X37650Y67371D02*
D03*
X39450D02*
D03*
X45478D02*
D03*
X47278D02*
D03*
D14*
X38550Y64829D02*
D03*
X46378D02*
D03*
D15*
X23550Y54850D02*
D03*
Y52881D02*
D03*
D16*
X24950Y59250D02*
D03*
D17*
X23840Y58480D02*
D03*
Y58980D02*
D03*
X26045Y58480D02*
D03*
Y58980D02*
D03*
Y59480D02*
D03*
Y59980D02*
D03*
X23840D02*
D03*
Y59480D02*
D03*
D18*
X51289Y38689D02*
D03*
Y34811D02*
D03*
D19*
X52963Y38689D02*
D03*
Y34811D02*
D03*
D20*
X51299Y37380D02*
D03*
Y37065D02*
D03*
Y36120D02*
D03*
Y36435D02*
D03*
Y36750D02*
D03*
D21*
X45613Y42750D02*
D03*
X45357D02*
D03*
X45101D02*
D03*
X44846D02*
D03*
X44590D02*
D03*
X44334D02*
D03*
X44078D02*
D03*
X42287D02*
D03*
X42542D02*
D03*
X42798D02*
D03*
X43054D02*
D03*
X43310D02*
D03*
X43566D02*
D03*
X43822D02*
D03*
X44078Y39972D02*
D03*
X44334D02*
D03*
X44590D02*
D03*
X44846D02*
D03*
X45101D02*
D03*
X45357D02*
D03*
X45614D02*
D03*
X42287D02*
D03*
X42542D02*
D03*
X42798D02*
D03*
X43054D02*
D03*
X43310D02*
D03*
X43566D02*
D03*
X43822D02*
D03*
D22*
X33176Y65326D02*
D03*
X33924D02*
D03*
X33550Y66074D02*
D03*
D23*
X33325Y36900D02*
D03*
X33325Y37900D02*
D03*
X33325Y38900D02*
D03*
X29775Y36900D02*
D03*
X29775Y37900D02*
D03*
X29775Y38900D02*
D03*
D24*
X43300Y52080D02*
D03*
Y55820D02*
D03*
D25*
X36100Y39400D02*
D03*
D26*
X35200Y36378D02*
D03*
X37000Y36353D02*
D03*
D27*
X36313Y54781D02*
D03*
X31589D02*
D03*
X31785D02*
D03*
X31982D02*
D03*
X32179D02*
D03*
X32376D02*
D03*
X32573D02*
D03*
X32770D02*
D03*
X32966D02*
D03*
X33163D02*
D03*
X33360D02*
D03*
X33557D02*
D03*
X33754D02*
D03*
X33951D02*
D03*
X34148D02*
D03*
X34344D02*
D03*
X34541D02*
D03*
X34738D02*
D03*
X34935D02*
D03*
X35132D02*
D03*
X35329D02*
D03*
X35526D02*
D03*
X35722D02*
D03*
X35919D02*
D03*
X36116D02*
D03*
X36313Y48836D02*
D03*
X36116D02*
D03*
X35919D02*
D03*
X35722D02*
D03*
X35526D02*
D03*
X35329D02*
D03*
X35132D02*
D03*
X34935D02*
D03*
X34738D02*
D03*
X34541D02*
D03*
X34344D02*
D03*
X34148D02*
D03*
X33951D02*
D03*
X33754D02*
D03*
X33557D02*
D03*
X33360D02*
D03*
X33163D02*
D03*
X32966D02*
D03*
X32770D02*
D03*
X32573D02*
D03*
X32376D02*
D03*
X32179D02*
D03*
X31982D02*
D03*
X31785D02*
D03*
X31589D02*
D03*
D28*
X30978Y49447D02*
D03*
Y49644D02*
D03*
Y49840D02*
D03*
Y50037D02*
D03*
Y50234D02*
D03*
Y50431D02*
D03*
Y50628D02*
D03*
Y50825D02*
D03*
Y51022D02*
D03*
Y51218D02*
D03*
Y51415D02*
D03*
Y51612D02*
D03*
Y51809D02*
D03*
Y52006D02*
D03*
Y52203D02*
D03*
Y52399D02*
D03*
Y52596D02*
D03*
Y52793D02*
D03*
Y52990D02*
D03*
Y53187D02*
D03*
Y53384D02*
D03*
Y53581D02*
D03*
Y53777D02*
D03*
Y53974D02*
D03*
Y54171D02*
D03*
X36923D02*
D03*
Y53974D02*
D03*
Y53777D02*
D03*
Y53581D02*
D03*
Y53384D02*
D03*
Y53187D02*
D03*
Y52990D02*
D03*
Y52793D02*
D03*
Y52596D02*
D03*
Y52399D02*
D03*
Y52203D02*
D03*
Y52006D02*
D03*
Y51809D02*
D03*
Y51612D02*
D03*
Y51415D02*
D03*
Y51218D02*
D03*
Y51022D02*
D03*
Y50825D02*
D03*
Y50628D02*
D03*
Y50431D02*
D03*
Y50234D02*
D03*
Y50037D02*
D03*
Y49840D02*
D03*
Y49644D02*
D03*
Y49447D02*
D03*
D29*
X24850Y64650D02*
D03*
X23600Y50900D02*
D03*
X36095Y67367D02*
D03*
X34961Y68861D02*
D03*
X41800Y67350D02*
D03*
X30900Y63950D02*
D03*
X23600Y47900D02*
D03*
Y46100D02*
D03*
X42965Y43783D02*
D03*
X40472Y57598D02*
D03*
X29030Y49085D02*
D03*
X48405Y39811D02*
D03*
X21100Y44550D02*
D03*
X31669Y47579D02*
D03*
X39185Y53150D02*
D03*
X45125Y36701D02*
D03*
D30*
X46350Y31200D02*
D03*
X48600D02*
D03*
X39700D02*
D03*
X44050D02*
D03*
X35351Y31208D02*
D03*
X29500Y31200D02*
D03*
X31156Y66490D02*
D03*
X26600Y31250D02*
D03*
D31*
X45350Y31200D02*
D03*
X21900Y49900D02*
D03*
Y48900D02*
D03*
Y47900D02*
D03*
X47600Y31200D02*
D03*
X50750Y59300D02*
D03*
X51750D02*
D03*
X50750Y58300D02*
D03*
X51750D02*
D03*
X50750Y57300D02*
D03*
X51750D02*
D03*
X50750Y56300D02*
D03*
X51750D02*
D03*
X50750Y55300D02*
D03*
X51750D02*
D03*
X50750Y54300D02*
D03*
X51750D02*
D03*
X50750Y53300D02*
D03*
X51750D02*
D03*
X50750Y52300D02*
D03*
X51750D02*
D03*
X50750Y51300D02*
D03*
X51750D02*
D03*
X50750Y50300D02*
D03*
X51750D02*
D03*
X50750Y49300D02*
D03*
X51750D02*
D03*
X50750Y48300D02*
D03*
X51750D02*
D03*
X50750Y47300D02*
D03*
X51750D02*
D03*
X50750Y46300D02*
D03*
X51750D02*
D03*
X50750Y45300D02*
D03*
X51750D02*
D03*
X50750Y44300D02*
D03*
X51750D02*
D03*
X50750Y43300D02*
D03*
X51750D02*
D03*
X50750Y42300D02*
D03*
X51750D02*
D03*
X50750Y41300D02*
D03*
X51750D02*
D03*
X50750Y40300D02*
D03*
X38700Y31200D02*
D03*
X37700D02*
D03*
X36700D02*
D03*
X43050D02*
D03*
X42050D02*
D03*
X41050D02*
D03*
X22450Y44600D02*
D03*
Y45600D02*
D03*
X51750Y62750D02*
D03*
Y61750D02*
D03*
X34351Y31208D02*
D03*
X32500Y32200D02*
D03*
Y31200D02*
D03*
X31500Y32200D02*
D03*
Y31200D02*
D03*
X30500Y32200D02*
D03*
Y31200D02*
D03*
X29500Y32200D02*
D03*
X32156Y66490D02*
D03*
X51750Y65000D02*
D03*
X27600Y31250D02*
D03*
X21900Y58300D02*
D03*
Y59300D02*
D03*
Y60300D02*
D03*
Y61300D02*
D03*
Y62300D02*
D03*
D32*
Y50900D02*
D03*
X51750Y40300D02*
D03*
X22450Y46600D02*
D03*
X51750Y60750D02*
D03*
Y64000D02*
D03*
X21900Y57300D02*
D03*
D33*
X22880Y42389D02*
D03*
Y37889D02*
D03*
X28289Y67070D02*
D03*
D34*
X22880Y40420D02*
D03*
Y35920D02*
D03*
D35*
X26320Y67070D02*
D03*
D36*
X26650Y39900D02*
D03*
Y35963D02*
D03*
X38030Y54590D02*
D03*
D37*
X51850Y32476D02*
D03*
X22450D02*
D03*
X51850Y67450D02*
D03*
X22450D02*
D03*
D38*
X31900Y52800D02*
D03*
X20513Y50900D02*
D03*
X32773Y49745D02*
D03*
X33780Y50190D02*
D03*
X36063Y51630D02*
D03*
X33380Y53640D02*
D03*
X32530Y53190D02*
D03*
X34154Y53868D02*
D03*
X35742Y50628D02*
D03*
X34730Y51040D02*
D03*
X34830Y50406D02*
D03*
X35430Y52490D02*
D03*
X35030Y53240D02*
D03*
X33948Y51043D02*
D03*
X33951Y52583D02*
D03*
X33166Y51809D02*
D03*
X31830Y51812D02*
D03*
X32580Y50740D02*
D03*
X32480Y51590D02*
D03*
X34760Y51929D02*
D03*
X31880Y50690D02*
D03*
X33951Y51809D02*
D03*
X36100Y52550D02*
D03*
X52215Y37616D02*
D03*
Y35884D02*
D03*
D39*
X26850Y59464D02*
D03*
Y57950D02*
D03*
Y58846D02*
D03*
X29217Y61607D02*
D03*
X27186Y63254D02*
D03*
X26820Y60313D02*
D03*
X48448Y50496D02*
D03*
X47698D02*
D03*
X46948D02*
D03*
X45559D02*
D03*
X44826D02*
D03*
X46248D02*
D03*
X49200D02*
D03*
X47452Y45142D02*
D03*
X46969Y45577D02*
D03*
X46250Y58350D02*
D03*
Y56900D02*
D03*
X46950Y57650D02*
D03*
Y56900D02*
D03*
X46250Y51106D02*
D03*
X46950Y56047D02*
D03*
X46250Y54341D02*
D03*
Y53488D02*
D03*
X21793Y56306D02*
D03*
X25080Y56582D02*
D03*
X23057Y58104D02*
D03*
X26330Y48298D02*
D03*
X40528Y52820D02*
D03*
X40456Y52074D02*
D03*
X36003Y56551D02*
D03*
X27868Y50402D02*
D03*
X40021Y53959D02*
D03*
X23996Y65196D02*
D03*
X20714Y34023D02*
D03*
X45900Y34250D02*
D03*
X48250Y34900D02*
D03*
X45200Y38650D02*
D03*
X44750Y41600D02*
D03*
X46750Y42850D02*
D03*
Y40000D02*
D03*
X44600Y43650D02*
D03*
X46250Y43600D02*
D03*
X33925Y46941D02*
D03*
X35409Y46240D02*
D03*
X43360Y58350D02*
D03*
X44827Y57650D02*
D03*
X44094Y58350D02*
D03*
X45560D02*
D03*
X44827Y51108D02*
D03*
X37100Y54900D02*
D03*
X35600Y53900D02*
D03*
X41560Y57550D02*
D03*
Y58350D02*
D03*
X32207Y61899D02*
D03*
X44827Y56900D02*
D03*
X41560Y56784D02*
D03*
X44827Y58350D02*
D03*
X41560Y55250D02*
D03*
Y56017D02*
D03*
Y51100D02*
D03*
Y52750D02*
D03*
Y53600D02*
D03*
X50260Y36976D02*
D03*
Y35677D02*
D03*
X40294Y43484D02*
D03*
X39721Y44138D02*
D03*
X34642Y46504D02*
D03*
X46950Y55194D02*
D03*
Y54341D02*
D03*
Y52635D02*
D03*
X45560Y57650D02*
D03*
Y56900D02*
D03*
Y51106D02*
D03*
X40421Y51327D02*
D03*
X41900Y43800D02*
D03*
X40850Y34300D02*
D03*
X25550Y32500D02*
D03*
X27789Y48961D02*
D03*
X29552Y51735D02*
D03*
X26630Y52318D02*
D03*
X31550Y37350D02*
D03*
X29400Y35650D02*
D03*
X30800Y41550D02*
D03*
Y42550D02*
D03*
X29000Y37850D02*
D03*
X27150Y47400D02*
D03*
X41560Y51950D02*
D03*
X41550Y33700D02*
D03*
X50200Y34000D02*
D03*
X44450Y37450D02*
D03*
X53350Y39700D02*
D03*
X37750Y40050D02*
D03*
Y39550D02*
D03*
Y39050D02*
D03*
Y38550D02*
D03*
X34400Y38750D02*
D03*
Y39350D02*
D03*
Y39950D02*
D03*
X36500Y57650D02*
D03*
X35400D02*
D03*
X25589Y57091D02*
D03*
X23838Y61734D02*
D03*
Y61077D02*
D03*
X44350Y68169D02*
D03*
X47264D02*
D03*
X49488Y68819D02*
D03*
X46378Y67000D02*
D03*
X25100Y45950D02*
D03*
X33566Y66581D02*
D03*
Y68153D02*
D03*
X46250Y57650D02*
D03*
X46950Y51106D02*
D03*
Y58350D02*
D03*
Y53488D02*
D03*
Y51850D02*
D03*
X47700Y52635D02*
D03*
Y51850D02*
D03*
Y51106D02*
D03*
X39621Y55180D02*
D03*
X36030Y49706D02*
D03*
X49461Y41712D02*
D03*
X25650Y33300D02*
D03*
X25700Y35661D02*
D03*
X38650Y44300D02*
D03*
X36229Y45894D02*
D03*
X37550Y43150D02*
D03*
X37050Y44100D02*
D03*
X37120Y47915D02*
D03*
X37750Y37550D02*
D03*
X34200Y36900D02*
D03*
X36450Y37600D02*
D03*
X35800D02*
D03*
X37750Y38050D02*
D03*
X37100Y37600D02*
D03*
X34400Y38150D02*
D03*
Y37600D02*
D03*
X35200D02*
D03*
X29436Y48126D02*
D03*
X43726Y35926D02*
D03*
X26364Y45423D02*
D03*
X39508Y49101D02*
D03*
X33333Y64652D02*
D03*
X29039Y52178D02*
D03*
X34344Y59775D02*
D03*
X33869Y59264D02*
D03*
X29759Y62156D02*
D03*
X26160Y53824D02*
D03*
X26595Y53030D02*
D03*
X24413Y52659D02*
D03*
X21793Y52331D02*
D03*
X22269Y52881D02*
D03*
X24770Y54616D02*
D03*
X48450Y53641D02*
D03*
X49566Y55476D02*
D03*
X49200Y51106D02*
D03*
X48450Y51850D02*
D03*
Y51106D02*
D03*
X49200Y52869D02*
D03*
X50700Y60950D02*
D03*
X43450Y38350D02*
D03*
X41450Y43000D02*
D03*
X39502Y35751D02*
D03*
Y40548D02*
D03*
X34600Y41700D02*
D03*
X33809Y42450D02*
D03*
X35900Y41700D02*
D03*
X29350Y40200D02*
D03*
X33516Y40194D02*
D03*
X32806Y40213D02*
D03*
X25783Y55482D02*
D03*
X30767Y56065D02*
D03*
X26650Y55573D02*
D03*
X26650Y56250D02*
D03*
X29783Y53959D02*
D03*
X30756Y55350D02*
D03*
X28204Y56018D02*
D03*
X30968Y57438D02*
D03*
X28236Y56755D02*
D03*
Y60340D02*
D03*
X26328Y65308D02*
D03*
X26820Y61115D02*
D03*
X26331Y62001D02*
D03*
X43752Y43791D02*
D03*
X50700Y60300D02*
D03*
X30836Y45423D02*
D03*
X33051Y47232D02*
D03*
X26362Y46291D02*
D03*
X35433Y66142D02*
D03*
Y65354D02*
D03*
Y64567D02*
D03*
Y63780D02*
D03*
X36220D02*
D03*
Y64575D02*
D03*
Y65354D02*
D03*
Y66142D02*
D03*
X40945D02*
D03*
X41732D02*
D03*
X40945Y65354D02*
D03*
X41732D02*
D03*
X40945Y64567D02*
D03*
X41732D02*
D03*
X40945Y63780D02*
D03*
X41732D02*
D03*
X43307Y66142D02*
D03*
Y65354D02*
D03*
Y64567D02*
D03*
Y63780D02*
D03*
X44094D02*
D03*
Y64567D02*
D03*
Y65354D02*
D03*
Y66142D02*
D03*
X48819D02*
D03*
Y65354D02*
D03*
X49606D02*
D03*
X48819Y64567D02*
D03*
X49606D02*
D03*
X48819Y63780D02*
D03*
X49606D02*
D03*
X48819Y62992D02*
D03*
X49606D02*
D03*
Y62205D02*
D03*
X35433Y59449D02*
D03*
X36220D02*
D03*
X37008D02*
D03*
X37795D02*
D03*
X38583D02*
D03*
X39370D02*
D03*
X43307D02*
D03*
X44094D02*
D03*
X44882D02*
D03*
X45669D02*
D03*
X46457D02*
D03*
X33500Y34450D02*
D03*
X36450D02*
D03*
X37250Y35150D02*
D03*
X38800Y43000D02*
D03*
X38900Y41050D02*
D03*
X49200Y43407D02*
D03*
X43250Y67350D02*
D03*
X37950Y36350D02*
D03*
M02*
